<svg xmlns:inkscape="http://www.inkscape.org/namespaces/inkscape" xmlns:rdf="http://www.w3.org/1999/02/22-rdf-syntax-ns#" xmlns="http://www.w3.org/2000/svg" xmlns:xlink="http://www.w3.org/1999/xlink" xmlns:ns1="http://sozi.baierouge.fr" xmlns:cc="http://creativecommons.org/ns#" xmlns:sodipodi="http://sodipodi.sourceforge.net/DTD/sodipodi-0.dtd" xmlns:dc="http://purl.org/dc/elements/1.1/" id="svg2" viewBox="0 0 919.8 600" version="1.1" inkscape:version="0.91 r13725" style="">
  <title id="title3459">Vegan Logo</title>
  <g id="layer1" transform="translate(92.902 -459.94)">
    <g id="g3451">
      <path id="path3343" style="" d="m425.06 596.18c-26.227 23.175-48.363 50.669-68.805 78.916-32.84 45.378-60.727 94.093-89.377 142.19-11.335 19.028-21.61 38.675-33.312 57.511-4.7054 7.5743-9.0481 15.416-14.772 22.299 18.639-43.49 29.743-90.059 35.245-136.97 1.9475-16.605 2.7857-33.405 1.6358-50.111 31.659-12.433 61.468-36.555 70.936-70.125 2.8352-10.052 3.9577-25.267-6.3947-31.437-9.7732-5.8251-11.275 6.251-5.0562 11.572 3.2831 16.668-6.9975 32.388-16.755 44.846-11.402 14.558-27.302 24.931-43.97 32.629-3.0339-33.079-12.851-68.732-39.657-90.289-15.461-12.433-35.954-16.343-55.42-15.843-18.26-17.833-43.989-32.435-70.242-26.272-23.05 5.4109-36.293 25.65-39.239 47.947-1.1839 8.9595-0.39397 20.718 0.92464 29.07-28.364 28.527-48.176 70.176-42.833 111.01 2.7362 20.912 13.488 44.353 35.047 51.154 26.781 8.4486 55.265-4.5461 75.546-22.001 8.5665-7.3727 21.674-22.105 17.598-29.649-4.1271-7.6387-14.973 11.158-22.307 16.935-17.43 13.73-40.285 24.189-61.22 15.992-18.712-7.3266-24.692-30.641-24.092-49.316 0.90617-28.185 12.205-55.293 29.396-77.327 14.172 32.606 47.709 51.207 80.801 59.448 20.569 5.1219 41.978 6.7104 63.054 4.5194 4.44 41.289 3.0355 83.197-5.7007 123.91-8.1163 37.826-22.052 74.894-44.664 106.83-6.0688 8.5707 9.7371 8.0607 14.652 0.74495 28.844-42.935 42.224-92.682 48.686-143.28 3.8176-29.896 4.318-60.215 1.3526-90.14 13.843-3.6668 16.388-7.6022 15.849 5.009-1.8058 42.226-5.4576 84.225-14.107 125.35-4.5196 21.491-11.735 43.533-20.43 63.726 3.2575 13.578 19.915-0.35439 25.083-6.655 11.508-14.031 22.228-28.631 32.519-43.605 16.155-23.508 30.133-48.483 45.704-72.41 30.624-47.058 61.62-93.995 96.118-138.31 16.497-19.859 35.073-44.605 59.464-53.829 21.683-8.1991 43.448-6.2124 63.373-0.10647 35.275 10.81 64.519 35.616 86.799 64.315 14.897 19.189 32.696 35.8 50.612 52.048-7.8513-4.2978-14.863-10.102-22.158-15.296-20.401-14.526-36.854-33.515-54.578-51.005-17.929-17.693-40.224-30.845-64.194-38.092-19.818-5.9914-41.264-2.4515-60.576 4.0228-6.0532 2.0294-12.621 3.5064-17.895 7.1516-7.637 20.662 6.4246 43.383 17.994 57.461 4.7276 5.7078 9.3101 11.878 15.367 16.19 7.2995-5.4579 13.848-12.036 21.365-17.134-2.2219 14.155-10.524 30.478-0.59485 35.311 12.434 7.1733 24.348 15.621 37.872 20.462 3.0166-9.9184 4.8764-20.169 8.1792-29.997 4.4797 12.273 7.793 24.978 12.145 37.298 17.153 5.2385 39.299 9.6843 59.832 9.7838 3.1499-1.9575-5.1027-22.886-5.7007-33.076 8.1407 11.006 16.185 22.137 24.29 33.175 23.173-0.499 77.877-8.6774 98.448-16.836-49.233-26.645-55.582-55.919-87.507-95.979-34.903-43.797-68.254-74.932-118.81-79.583-36.951-3.3992-72.218 16.482-95.524 35.857zm-280.62-3.8738c-29.647 3.9977-57.042 18.505-79.611 37.794-4.1095-18.008 0.24865-39.674 16.2-50.417 23.19-13.084 49.814-2.5363 63.411 12.623zm6.4938 12.317c9.3149-0.12301 14.071 10.269 18.887 17.829 17.104 26.853 25.689 58.24 30.536 89.494-37.248 3.8124-77.593-3.6944-106.92-28.06-11.784-9.79-20.095-23.34-24.788-37.9 13.025-16.64 53.195-40.98 82.285-41.37zm25.529 6.4066c31.152 12.486 40.642 33.676 48.701 59.399 2.9619 9.454 9.7249 32.516 1.4751 36.194-12.67 5.6474-13.768 5.6417-14.995-5.5999-3.5268-32.312-15.935-63.564-35.181-89.993z"/>
      <path id="path3247" d="m117.72 774.32c-4.9544 4.3668-4.9943 4.3451 0 0z"/>
      <path id="path3439" d="m359.3 888.48c3.2215 2.1948 4.8323 5.7452 4.8324 10.651-0.00009 4.7769-1.2243 8.7146-3.6726 11.813-2.4485 3.0985-5.6701 5.6806-9.6648 7.7463-8.2473 4.2605-16.817 6.3907-25.708 6.3907-8.8916 0-15.979-0.96829-21.262-2.9049-5.1546-1.9366-9.4715-4.7123-12.951-8.3273-6.8298-6.8426-10.245-16.525-10.245-29.049 0-19.495 5.2834-35.181 15.85-47.059 11.34-12.781 26.868-19.172 46.584-19.172 12.242 0.0001 21.391 2.5822 27.448 7.7463 4.5101 3.8732 6.7652 8.9729 6.7653 15.299-0.0001 22.723-19.587 34.084-58.762 34.084-0.5155 3.3568-0.77323 6.4553-0.77319 9.2956-0.00004 5.9389 1.2886 10.07 3.8659 12.394 2.7061 2.1948 6.5076 3.2922 11.404 3.2922 4.8968 0.00002 9.9224-1.0974 15.077-3.2922 5.2833-2.3239 9.0204-5.2933 11.211-8.9082m-39.44-21.11c9.1493 0.00007 16.366-2.8402 21.649-8.5209 5.2834-5.4223 7.925-12.459 7.9251-21.109-0.00007-2.9693-0.57995-5.2287-1.7396-6.778-1.031-1.6783-2.6418-2.5174-4.8324-2.5176-2.1908 0.0001-4.2526 0.45196-6.1855 1.3556-1.8041 0.77471-3.6727 2.5822-5.6056 5.4224-4.768 6.4553-8.505 17.171-11.211 32.147"/>
      <path id="path3441" style="" d="m397.42 840.26c4.3813-6.1969 9.858-11.361 16.43-15.493 6.7009-4.1312 14.111-6.1969 22.229-6.197 8.1184 0.0001 14.111 1.2912 17.976 3.8732l37.886-3.8732-13.144 74.364c-4.5103 25.305-11.533 42.927-21.069 52.868-9.1494 9.4246-22.616 14.137-40.399 14.137-13.531-0.00004-24.162-2.1303-31.894-6.3907-7.7318-4.2605-11.598-9.9411-11.598-17.042 0.00001-5.2933 1.9974-9.4892 5.9922-12.588 3.9948-2.9694 9.0849-4.4541 15.27-4.4541 5.4123 0 10.18 1.2265 14.304 3.6795 2.4484 1.291 4.2525 2.8403 5.4123 4.6478-2.9639 2.5821-4.4458 6.0034-4.4458 10.264-0.00003 5.5515 2.5772 8.3272 7.7318 8.3273 8.6338-0.00003 15.399-10.199 20.296-30.598 1.4174-5.5515 2.7061-11.103 3.8659-16.655-5.7989 7.1008-15.27 10.651-28.414 10.651-9.1493 0.00001-16.366-2.1948-21.649-6.5844-5.2834-4.3895-7.9251-11.749-7.9251-22.077-0.00001-6.4552 1.0953-13.298 3.286-20.528 2.1907-7.3589 5.4767-14.137 9.8581-20.334m25.128 41.443c-0.00005 8.7792 2.2551 13.169 6.7653 13.169 3.0927 0.00002 6.121-1.6783 9.0849-5.0351 2.3195-2.7112 3.9303-6.0679 4.8324-10.07l9.8581-49.77c-0.64438-0.12901-1.2887-0.32266-1.933-0.58097-1.2887-0.51633-2.7706-0.77454-4.4458-0.77463-7.8607 0.00009-14.111 6.4553-18.75 19.366-3.6082 10.07-5.4123 21.302-5.4123 33.696"/>
      <path id="path3443" style="" d="m507.91 915.4c-2.9639-3.3567-5.1546-7.6817-6.572-12.975-1.2886-5.2933-1.933-12.265-1.933-20.915s1.4819-16.913 4.4458-24.788c2.9638-7.8753 7.1519-14.653 12.564-20.334 11.082-11.878 25.773-17.816 44.071-17.816 6.572 0.0001 12.242 1.0975 17.01 3.2922l33.054-3.2922-14.304 75.526c-0.38668 1.5493-0.57998 3.7441-0.57988 6.5844-0.0001 2.8403 0.83751 5.1642 2.5128 6.9717 1.804 1.8075 3.9947 2.8403 6.572 3.0985-1.2887 4.3896-4.317 7.8754-9.0849 10.457-4.6392 2.5821-9.6004 3.8732-14.884 3.8732-5.2835 0-9.7293-1.0328-13.337-3.0985-3.4794-1.9366-5.7345-4.5832-6.7653-7.94-2.0619 3.2276-5.2835 5.8743-9.6648 7.94-4.3814 2.0657-9.536 3.0985-15.464 3.0985-5.7989 0-11.082-0.77464-15.85-2.3239s-8.6983-4.0022-11.791-7.359m40.785-78.625c-1.4176 2.324-2.7706 5.487-4.0592 9.4892-1.2887 3.8732-3.0284 11.103-5.219 21.69-2.0619 10.458-3.0928 19.43-3.0927 26.918-0.00004 7.4881 0.57984 12.33 1.7397 14.524 1.1597 2.1948 2.7705 3.2922 4.8324 3.2922 4.1236 0.00001 7.6673-1.9366 10.631-5.8097 3.0927-4.0022 5.2189-9.4892 6.3788-16.461l10.245-56.742c-2.7062-2.3238-5.6701-3.4858-8.8916-3.4858-3.0928 0.00009-5.6056 0.51651-7.5385 1.5493-1.8042 1.0329-3.4794 2.7113-5.0257 5.0351"/>
      <path id="path3445" style="" d="m702.93 925.08c-15.593 0-23.389-6.0679-23.389-18.204 0.1288-3.3567 0.70869-7.8754 1.7396-13.556l3.4793-17.816c3.4792-16.784 5.2189-27.047 5.219-30.792-0.00007-7.488-2.1908-11.232-6.572-11.232-7.3453 0.00009-12.951 9.6184-16.817 28.855l-11.404 58.872-38.852 3.8732 20.103-102.83 31.7-3.6795-3.0927 18.978c6.0565-12.652 18.363-18.978 36.919-18.978 9.0204 0.0001 15.399 1.9367 19.136 5.8097 3.8658 3.7441 5.7988 9.8766 5.7989 18.397-0.00011 8.0046-2.0619 21.367-6.1855 40.087-1.933 8.3919-2.8995 14.202-2.8994 17.429-0.0001 3.0985 0.83751 5.5515 2.5128 7.359 1.804 1.8075 3.9947 2.8403 6.572 3.0985-1.2888 4.3896-4.1882 7.8754-8.6983 10.457-4.3815 2.5821-9.4716 3.8732-15.27 3.8732"/>
    </g>
  </g>
</svg>