<svg xmlns="http://www.w3.org/2000/svg"  viewBox="0 0 64 64" width="64px" height="64px"><path d="M 58.033203 3 A 1.0001 1.0001 0 0 0 57.480469 3.1464844 C 50.018916 7.6882989 45.042255 14.975988 41.453125 22.728516 C 39.406268 21.933799 38.37876 20.856019 38.080078 19.560547 C 37.752825 18.141153 38.207348 16.309445 39.347656 14.425781 C 41.628273 10.658454 46.553551 6.9088209 51.195312 5.9804688 A 1.0001 1.0001 0 1 0 50.804688 4.0195312 C 45.446449 5.0911791 40.256852 9.0624527 37.636719 13.390625 C 36.326652 15.554711 35.635956 17.865175 36.130859 20.011719 C 36.576896 21.946314 38.190062 23.500728 40.625 24.498047 C 38.902524 28.515566 37.428037 32.581886 36.408203 36.498047 C 33.481773 47.735539 33.123127 56.641647 33.076172 58 L 27.853516 58 C 25.392474 34.970115 14.898229 16.455887 9.7050781 8.5507812 C 15.709827 13.252598 20.313161 21.09264 23.457031 28.394531 C 27.290158 37.297277 29.023436 45.212891 29.023438 45.212891 A 1.0001 1.0001 0 1 0 30.976562 44.787109 C 30.976562 44.787109 29.209842 36.702723 25.292969 27.605469 C 21.376095 18.508215 15.342733 8.2919155 6.4257812 4.0957031 A 1.0001 1.0001 0 0 0 5.2128906 5.6171875 C 5.2128906 5.6171875 23.036279 28.430223 26.003906 59.095703 A 1.0001 1.0001 0 0 0 27 60 L 34 60 A 1.0001 1.0001 0 0 0 35 59.023438 C 35 59.023438 35.248517 48.880148 38.341797 37.001953 C 39.358491 33.097848 40.834367 29.076182 42.550781 25.119141 C 46.083613 26.053188 48.903751 26.084939 50.951172 25.056641 C 53.255088 23.89952 54.556623 21.704451 55.376953 19.255859 C 57.017614 14.358676 57.081332 8.0736634 58.894531 4.4472656 A 1.0001 1.0001 0 0 0 58.033203 3 z M 55.986328 6.6816406 C 54.895696 10.617076 54.628551 15.192247 53.480469 18.619141 C 52.746049 20.811299 51.725333 22.430464 50.054688 23.269531 C 48.637096 23.981503 46.406533 23.993832 43.419922 23.267578 C 46.440593 16.854283 50.426648 10.887405 55.986328 6.6816406 z"/></svg>