<?xml version="1.0" encoding="UTF-8"?>
<svg version="1.1" xmlns="http://www.w3.org/2000/svg" viewBox="0 0 400 366">
<path d="M0 0 C2.54471759 1.63588988 3.63627079 2.37415278 5 5 C5.09527921 14.40541897 1.49219297 24.02034751 -1 33 C-1.75700583 35.94516697 -2.48962259 38.89548278 -3.21875 41.84765625 C-3.79427925 44.16991678 -4.37897221 46.48991093 -4.96875 48.80859375 C-8.09812726 61.12026195 -10.82817047 73.48004155 -13 86 C-11.35 85.67 -9.7 85.34 -8 85 C-8 84.34 -8 83.68 -8 83 C-6.02 82.34 -4.04 81.68 -2 81 C-2 80.34 -2 79.68 -2 79 C0.5614657 76.70351351 1.47967572 76 5 76 C5.25007813 75.40574219 5.50015625 74.81148437 5.7578125 74.19921875 C7.17066153 71.69785396 8.56911124 70.50493534 10.875 68.8125 C11.55304688 68.30332031 12.23109375 67.79414062 12.9296875 67.26953125 C14.98361986 66.01004443 16.64588985 65.43809673 19 65 C19.36256858 66.4562672 19.71479793 67.91511185 20.0625 69.375 C20.25972656 70.18710937 20.45695312 70.99921875 20.66015625 71.8359375 C21 74 21 74 20 76 C19.34 76 18.68 76 18 76 C17.62875 76.99 17.62875 76.99 17.25 78 C16.0201984 80.95152383 14.64273822 83.79435025 13.1875 86.640625 C12.32875309 88.34681952 11.49896068 90.06769092 10.6875 91.796875 C7.61979698 98.23238242 4.13589652 103.89355058 -0.171875 109.57421875 C-1.67606199 111.57015918 -3.04797206 113.57316817 -4.375 115.6875 C-4.91125 116.450625 -5.4475 117.21375 -6 118 C-6.66 118 -7.32 118 -8 118 C-8.061875 118.556875 -8.12375 119.11375 -8.1875 119.6875 C-9.3480769 122.99068042 -11.40213446 124.71894733 -14 127 C-14.66 127 -15.32 127 -16 127 C-16.3403125 127.928125 -16.3403125 127.928125 -16.6875 128.875 C-18 131 -18 131 -20.48828125 131.828125 C-23.17265091 132.74595831 -23.17265091 132.74595831 -23.96875 135.1796875 C-24.1440625 136.06914063 -24.319375 136.95859375 -24.5 137.875 C-26.58841528 146.86580476 -30.17791372 155.14178532 -35 163 C-28.77974881 161.85962062 -23.44272655 160.0074953 -17.65234375 157.49609375 C-12.24497235 155.28109562 -6.72977487 153.40066476 -1.20581055 151.49926758 C-0.39023682 151.21849365 0.42533691 150.93771973 1.265625 150.6484375 C2.34505371 150.27984619 2.34505371 150.27984619 3.44628906 149.90380859 C5.57660258 149.14984869 7.69180019 148.36920439 9.80639648 147.57275391 C16.01585374 145.23455734 22.27176215 143.02754187 28.52563477 140.81152344 C30.04544216 140.27220031 31.56465358 139.73119466 33.08325195 139.18847656 C40.88617183 136.40021066 48.63196111 133.71877609 56.66113281 131.64404297 C59.52173684 130.85633176 62.24597723 129.83745122 65.00732422 128.75878906 C68.80766267 127.3116619 72.68786036 126.10573151 76.5625 124.875 C77.37396484 124.61074219 78.18542969 124.34648438 79.02148438 124.07421875 C83.67430771 122.59462844 88.11376672 121.31785446 93 121 C95.4375 122.9375 95.4375 122.9375 97 125 C96.16525273 129.10167185 95.02608151 131.3088727 91.69921875 133.73828125 C90.3729533 134.61322055 89.03521742 135.47097959 87.6875 136.3125 C87.02298828 136.75400391 86.35847656 137.19550781 85.67382812 137.65039062 C82.16130542 139.91911202 79.24944058 141.56437069 75 142 C74.67 142.99 74.34 143.98 74 145 C72.390625 146.2890625 72.390625 146.2890625 70.25 147.625 C67.31912145 149.49396603 64.42212051 151.38697328 61.58203125 153.390625 C60.99969727 153.80103027 60.41736328 154.21143555 59.81738281 154.63427734 C58.65711181 155.4546025 57.49886649 156.27780112 56.34277344 157.10400391 C52.22054476 160 52.22054476 160 50 160 C48.97803008 160.97753644 47.98020375 161.9805881 47 163 C44 165 44 165 41 165 C41 165.66 41 166.32 41 167 C39.37146459 168.06096663 37.69117515 169.04203111 36 170 C34.66285229 170.84482025 33.33124688 171.6984472 32.00390625 172.55859375 C31.28009766 173.02716797 30.55628906 173.49574219 29.81054688 173.97851562 C29.06869141 174.45998047 28.32683594 174.94144531 27.5625 175.4375 C26.45551758 176.15389648 26.45551758 176.15389648 25.32617188 176.88476562 C22.08000971 178.98827871 18.83992984 181.09899669 15.625 183.25 C13.12458476 184.9169435 10.58808899 186.47369111 8 188 C7.113125 188.556875 6.22625 189.11375 5.3125 189.6875 C3 191 3 191 1 191 C1 191.66 1 192.32 1 193 C-0.8359375 194.296875 -0.8359375 194.296875 -3.375 195.75 C-4.29152344 196.28238281 -5.20804688 196.81476563 -6.15234375 197.36328125 C-7.09207031 197.90339844 -8.03179688 198.44351563 -9 199 C-10.64848787 199.97469096 -12.29440159 200.95375087 -13.9375 201.9375 C-14.75476563 202.42476562 -15.57203125 202.91203125 -16.4140625 203.4140625 C-20.15650333 205.70927546 -23.80852114 208.14070912 -27.45703125 210.58203125 C-30.0279161 212.01556612 -32.1013724 212.59929206 -35 213 C-35 213.66 -35 214.32 -35 215 C-36.32 215 -37.64 215 -39 215 C-39 215.66 -39 216.32 -39 217 C-41.90548882 219.04169485 -43.40142046 220 -47 220 C-46.67 221.010625 -46.34 222.02125 -46 223.0625 C-43.48571511 233.31861173 -44.77879359 243.7593998 -47.24609375 253.87890625 C-47.9777148 256.90774159 -48.52323772 259.92187458 -49 263 C-49.66 263 -50.32 263 -51 263 C-50.938125 263.66 -50.87625 264.32 -50.8125 265 C-51.06275114 269.00401819 -52.49828212 272.3319742 -54 276 C-54.31324219 276.82242187 -54.62648438 277.64484375 -54.94921875 278.4921875 C-56.92210092 283.62324074 -59.14149096 288.303878 -62 293 C-62.66 293 -63.32 293 -64 293 C-64.0825 293.70125 -64.165 294.4025 -64.25 295.125 C-65.18009005 298.6903452 -66.76686369 301.09015572 -69 304 C-69.66 304 -70.32 304 -71 304 C-71.268125 304.804375 -71.53625 305.60875 -71.8125 306.4375 C-72.204375 307.283125 -72.59625 308.12875 -73 309 C-73.99 309.33 -74.98 309.66 -76 310 C-76 310.99 -76 311.98 -76 313 C-76.66 313 -77.32 313 -78 313 C-78.268125 313.639375 -78.53625 314.27875 -78.8125 314.9375 C-80 317 -80 317 -83 318 C-83.67129225 319.33101049 -84.33712389 320.66477812 -85 322 C-87.09375 324.140625 -87.09375 324.140625 -89.5 326.25 C-90.69109375 327.30960938 -90.69109375 327.30960938 -91.90625 328.390625 C-94 330 -94 330 -96 330 C-96 330.66 -96 331.32 -96 332 C-97.32 332.33 -98.64 332.66 -100 333 C-100 333.66 -100 334.32 -100 335 C-128.10277202 357.7979791 -172.87204246 366.99153943 -208.1171875 363.53125 C-222.60881647 361.87717766 -236.42402604 358.34480398 -248.921875 350.58984375 C-251.0958361 349.71243341 -251.0958361 349.71243341 -253.26953125 351.21875 C-254.17058594 351.8065625 -255.07164062 352.394375 -256 353 C-258.64731298 353.93811196 -261.24416852 354.78850527 -263.9375 355.5625 C-264.68314209 355.77865967 -265.42878418 355.99481934 -266.19702148 356.2175293 C-275.92867165 358.93899598 -288.15247973 362.28250676 -298 359 C-298 358.34 -298 357.68 -298 357 C-298.99 356.67 -299.98 356.34 -301 356 C-301.07427838 352.65747276 -301.06546953 350.1964086 -300 347 C-299.34 347 -298.68 347 -298 347 C-297.77054687 345.71609375 -297.54109375 344.4321875 -297.3046875 343.109375 C-296.09129249 337.66295875 -293.78889087 333.11956145 -291.125 328.25 C-290.69058594 327.42628906 -290.25617188 326.60257813 -289.80859375 325.75390625 C-287.95225512 322.29208556 -286.20567228 319.2438489 -283.6640625 316.23046875 C-281.79306182 314.14088232 -281.79306182 314.14088232 -281.828125 311.59765625 C-281.96734375 310.76105469 -282.1065625 309.92445313 -282.25 309.0625 C-284.34327181 293.07162976 -283.07544701 277.22402419 -273 264 C-271.70896357 262.6256709 -270.3743291 261.29103643 -269 260 C-268.236875 259.195625 -267.47375 258.39125 -266.6875 257.5625 C-256.12967435 247.49573601 -244.29482383 244.88621036 -230 245 C-221.38680347 245.57627121 -210.30243982 247.69756018 -204 254 C-201.82155012 242.25379824 -203.2592798 230.69283776 -205 219 C-205.23396484 217.42605469 -205.23396484 217.42605469 -205.47265625 215.8203125 C-206.26972418 210.98432052 -207.36225487 206.57673805 -209.2109375 202.0390625 C-210.13072521 199.66218534 -210.84812757 197.25868438 -211.5625 194.8125 C-212.54878249 191.44994103 -213.6694018 188.24333311 -215 185 C-220.86441464 168.22716641 -221.00194574 152.05849693 -213.48828125 135.7109375 C-212 133 -212 133 -210 132 C-209.85167725 131.25282715 -209.70335449 130.5056543 -209.55053711 129.73583984 C-208.93457661 126.6748849 -207.88203444 124.83947112 -206.19140625 122.2265625 C-205.61406738 121.32671631 -205.03672852 120.42687012 -204.44189453 119.49975586 C-203.82169434 118.55108643 -203.20149414 117.60241699 -202.5625 116.625 C-201.61286377 115.15268921 -201.61286377 115.15268921 -200.64404297 113.65063477 C-196.62698393 107.44000324 -192.54200459 101.27592633 -188.41503906 95.13793945 C-184.43254891 89.19808017 -180.67965843 83.13276405 -177 77 C-176.41605469 76.02675781 -175.83210938 75.05351563 -175.23046875 74.05078125 C-163.84795014 54.80584573 -154.90094281 35.81271482 -149.25756836 14.10009766 C-148.98952393 13.07577637 -148.72147949 12.05145508 -148.4453125 10.99609375 C-148.09750732 9.62215454 -148.09750732 9.62215454 -147.74267578 8.22045898 C-147 6 -147 6 -145 4 C-142.09352312 4.17069785 -140.54382134 4.42021164 -138.5234375 6.57421875 C-132.75012396 17.19790115 -131.470729 29.07486538 -131 41 C-130.92072266 42.64742187 -130.92072266 42.64742187 -130.83984375 44.328125 C-130.55512508 55.17219275 -131.65183728 66.8090947 -135.9375 76.875 C-137.66785749 81.53091035 -135.97116384 84.6604246 -134.140625 89.078125 C-129.71226792 100.42199862 -130.89735973 112.43032818 -134 124 C-134.66573367 125.33379942 -135.33230894 126.66717936 -136 128 C-136.24029959 130.59154919 -136.24029959 130.59154919 -136.125 133.25 C-136.10695313 134.14203125 -136.08890625 135.0340625 -136.0703125 135.953125 C-136.04710937 136.62859375 -136.02390625 137.3040625 -136 138 C-135.34 138 -134.68 138 -134 138 C-134 137.34 -134 136.68 -134 136 C-121.27015333 125.06759783 -105.57098522 117.94056859 -89.23828125 114.52734375 C-86.23776638 113.82041616 -83.38068439 112.80744148 -80.4765625 111.78125 C-76.55590945 110.54445093 -72.5304376 109.75905438 -68.50390625 108.94140625 C-65.94651629 108.25207692 -65.94651629 108.25207692 -64.88671875 106.3828125 C-64.59410156 105.59648438 -64.30148437 104.81015625 -64 104 C-55.88763275 87.28194587 -55.88763275 87.28194587 -51.421875 81.1875 C-49.7647106 78.63801631 -48.48098017 75.98893345 -47.14257812 73.26171875 C-45.03596471 69.09170451 -42.69744203 65.05256581 -40.375 61 C-39.85301025 60.08661865 -39.33102051 59.1732373 -38.79321289 58.23217773 C-35.07980204 51.77581058 -31.23303214 45.41876894 -27.21044922 39.15039062 C-24.8953632 35.52711907 -22.88562388 31.86180032 -21 28 C-20.17025545 26.52763429 -19.31878705 25.06710608 -18.4375 23.625 C-18.02371094 22.93664062 -17.60992188 22.24828125 -17.18359375 21.5390625 C-16.79300781 21.03117188 -16.40242188 20.52328125 -16 20 C-15.34 20 -14.68 20 -14 20 C-13.896875 19.278125 -13.79375 18.55625 -13.6875 17.8125 C-12.93206053 14.72206579 -11.84468685 12.58256159 -10 10 C-9.34 10 -8.68 10 -8 10 C-7.690625 8.63875 -7.690625 8.63875 -7.375 7.25 C-5.6795921 3.24267224 -3.72450216 2.10515339 0 0 Z M-142 26 C-143.10636395 28.39068734 -143.10636395 28.39068734 -144 31 C-143.67 31.66 -143.34 32.32 -143 33 C-143.99 33.495 -143.99 33.495 -145 34 C-145.90742792 35.77806437 -145.90742792 35.77806437 -146.625 37.875 C-146.88539063 38.57367187 -147.14578125 39.27234375 -147.4140625 39.9921875 C-148.14007172 42.13138532 -148.14007172 42.13138532 -148 45 C-148.66 45.33 -149.32 45.66 -150 46 C-150 47.32 -150 48.64 -150 50 C-150.66 50.33 -151.32 50.66 -152 51 C-152.89328862 52.78371414 -153.71734189 54.60254851 -154.5 56.4375 C-156.7881549 61.7881549 -156.7881549 61.7881549 -159 64 C-159.69756807 66.18649489 -160.30845324 68.40095281 -160.875 70.625 C-161.12890503 71.6162085 -161.12890503 71.6162085 -161.38793945 72.62744141 C-161.74646082 74.0314712 -162.10192801 75.43628385 -162.45458984 76.84179688 C-162.99403478 78.97639546 -163.55148373 81.10556192 -164.11328125 83.234375 C-168.00215127 95.23808586 -168.00215127 95.23808586 -166.5625 107.0625 C-165.7890625 108.0215625 -165.7890625 108.0215625 -165 109 C-162.08652936 106.47123536 -160.68053949 103.67844663 -159.00390625 100.23046875 C-158.44509766 99.09416016 -157.88628906 97.95785156 -157.31054688 96.78710938 C-156.72732855 95.58750004 -156.1446504 94.38762794 -155.5625 93.1875 C-154.42179727 90.84578741 -153.2773776 88.50588109 -152.12890625 86.16796875 C-151.62431885 85.12922607 -151.11973145 84.0904834 -150.59985352 83.02026367 C-148.92534758 79.85906835 -146.99029711 76.96943237 -145 74 C-140.56893884 62.91531366 -139.93811784 52.44530181 -139.875 40.6875 C-139.86774902 39.37833618 -139.86774902 39.37833618 -139.86035156 38.04272461 C-139.87153757 33.90110581 -139.95099233 30.03784698 -141 26 C-141.33 26 -141.66 26 -142 26 Z M-145 90 C-146.00460531 92.12282669 -147.00355602 94.24833021 -148 96.375 C-148.556875 97.55835938 -149.11375 98.74171875 -149.6875 99.9609375 C-151.13216041 102.75428575 -151.13216041 102.75428575 -151 105 C-151.99 105.495 -151.99 105.495 -153 106 C-158.57130926 114.01129872 -157.8770853 123.93473213 -156.5390625 133.1875 C-156.08943621 135.48124572 -155.59550739 137.74026215 -155 140 C-153.29115995 138.37660195 -151.62553283 136.70680947 -150 135 C-150 134.34 -150 133.68 -150 133 C-149.34 133 -148.68 133 -148 133 C-147.2054739 130.81353696 -146.4145142 128.62577779 -145.625 126.4375 C-144.96371094 124.61025391 -144.96371094 124.61025391 -144.2890625 122.74609375 C-140.68877012 112.28342589 -139.86439226 103.72300426 -143 93 C-143.66 92.01 -144.32 91.02 -145 90 Z M-1 90 C-1 90.66 -1 91.32 -1 92 C-2.65 92.33 -4.3 92.66 -6 93 C-6 93.66 -6 94.32 -6 95 C-6.69609375 95.10441406 -7.3921875 95.20882812 -8.109375 95.31640625 C-11.45235736 96.1069764 -14.18387421 97.39310905 -17.25 98.9375 C-18.30703125 99.46214844 -19.3640625 99.98679687 -20.453125 100.52734375 C-23.10334414 101.74798406 -23.10334414 101.74798406 -24 104 C-25.65694085 104.37872934 -27.32656552 104.70250054 -29 105 C-32.18810561 105.64583509 -32.18810561 105.64583509 -35 107 C-36.24714403 109.40952023 -36.24714403 109.40952023 -37 112 C-38.4375 113.625 -38.4375 113.625 -40 115 C-40.45375 115.45375 -40.9075 115.9075 -41.375 116.375 C-41.91125 116.91125 -42.4475 117.4475 -43 118 C-43.825 118.845625 -44.65 119.69125 -45.5 120.5625 C-48 123 -48 123 -51 125 C-51 125.66 -51 126.32 -51 127 C-51.639375 127.12375 -52.27875 127.2475 -52.9375 127.375 C-53.618125 127.58125 -54.29875 127.7875 -55 128 C-55.495 128.99 -55.495 128.99 -56 130 C-57.485 130.495 -57.485 130.495 -59 131 C-59 131.66 -59 132.32 -59 133 C-59.556875 133.268125 -60.11375 133.53625 -60.6875 133.8125 C-64.22310912 135.62808306 -67.42754008 137.52772057 -70.5 140.0625 C-72.95103799 141.96205445 -75.08369331 143.00012342 -78 144 C-78 144.66 -78 145.32 -78 146 C-78.556875 146.268125 -79.11375 146.53625 -79.6875 146.8125 C-80.450625 147.204375 -81.21375 147.59625 -82 148 C-82.9075 148.350625 -83.815 148.70125 -84.75 149.0625 C-87.19286372 150.74057101 -87.19286372 150.74057101 -87.31640625 153.08984375 C-87.31264306 155.41173209 -87.18860232 157.6864782 -87 160 C-87 160.99 -87 161.98 -87 163 C-86.03578125 162.43410156 -85.0715625 161.86820313 -84.078125 161.28515625 C-82.80223301 160.54401311 -81.52618301 159.80314193 -80.25 159.0625 C-79.29867187 158.50272461 -79.29867187 158.50272461 -78.328125 157.93164062 C-75.23708368 156.14463236 -72.48532332 154.75114727 -69 154 C-69 153.34 -69 152.68 -69 152 C-68.37351562 151.80664062 -67.74703125 151.61328125 -67.1015625 151.4140625 C-66.28429687 151.15367187 -65.46703125 150.89328125 -64.625 150.625 C-63.81289063 150.36976563 -63.00078125 150.11453125 -62.1640625 149.8515625 C-59.43699273 148.77845562 -58.30605678 147.61211357 -57 145 C-55.3523962 144.28752268 -53.68236471 143.62599617 -52 143 C-50.65949948 142.34786461 -49.32338632 141.68620031 -48 141 C-48 140.34 -48 139.68 -48 139 C-47.13375 138.84337891 -47.13375 138.84337891 -46.25 138.68359375 C-43.65145383 137.8941049 -42.1156288 136.75252379 -40 135.0625 C-37.42597029 133.01634748 -34.9891578 131.38115104 -32 130 C-32 129.34 -32 128.68 -32 128 C-30 127 -28 126 -26 125 C-26 124.34 -26 123.68 -26 123 C-25.443125 122.773125 -24.88625 122.54625 -24.3125 122.3125 C-14.97789434 117.01448057 -7.49271549 104.92566267 -2 96 C-2 95.34 -2 94.68 -2 94 C-1.34 94 -0.68 94 0 94 C0.33 92.68 0.66 91.36 1 90 C0.34 90 -0.32 90 -1 90 Z M-176 94 C-176.66 95.32 -177.32 96.64 -178 98 C-177.01 98.495 -177.01 98.495 -176 99 C-175.67 97.35 -175.34 95.7 -175 94 C-175.33 94 -175.66 94 -176 94 Z M-53 100 C-53.80528889 102.05000871 -53.80528889 102.05000871 -54 104 C-52.35 104 -50.7 104 -49 104 C-49 103.34 -49 102.68 -49 102 C-47.02 101.67 -45.04 101.34 -43 101 C-46.30068601 97.69931399 -49.12760152 97.19584938 -53 100 Z M-43 98 C-43 98.66 -43 99.32 -43 100 C-42.01 99.67 -41.02 99.34 -40 99 C-40.99 98.67 -41.98 98.34 -43 98 Z M-184 105 C-186.2013866 108.80427492 -186.2013866 108.80427492 -187 113 C-187.66 113 -188.32 113 -189 113 C-189 113.99 -189 114.98 -189 116 C-189.66 116 -190.32 116 -191 116 C-191 116.99 -191 117.98 -191 119 C-191.66 119 -192.32 119 -193 119 C-193.99 120.670625 -193.99 120.670625 -195 122.375 C-195.37125 123.00148438 -195.7425 123.62796875 -196.125 124.2734375 C-197.15068348 125.97472667 -197.15068348 125.97472667 -197 128 C-197.66 128 -198.32 128 -199 128 C-201.07821807 132.58718306 -201.07821807 132.58718306 -202.5625 137.375 C-202.706875 137.91125 -202.85125 138.4475 -203 139 C-203.99 139.495 -203.99 139.495 -205 140 C-210.55421389 151.9258404 -211.4364982 164.35445889 -208 177 C-207.0970234 179.45721508 -206.10559014 181.8579828 -205.078125 184.265625 C-203.38756854 188.5532682 -202.18132008 192.97772186 -200.9296875 197.41015625 C-200.28427786 200.14566623 -200.28427786 200.14566623 -198 201 C-198.33 202.32 -198.66 203.64 -199 205 C-198.34 205 -197.68 205 -197 205 C-197.33 205.99 -197.66 206.98 -198 208 C-197.35090217 210.00577079 -196.68073429 212.00474431 -196 214 C-195.54915629 216.72176017 -195.1695024 219.38739763 -194.875 222.125 C-194.79008301 222.89183105 -194.70516602 223.65866211 -194.61767578 224.44873047 C-193.70020464 233.62159584 -193.82702167 242.79370872 -194 252 C-187.8544288 245.21868005 -186.4830403 237.57795838 -185.3125 228.75 C-185.18584961 227.82485596 -185.05919922 226.89971191 -184.92871094 225.9465332 C-182.96632019 210.85437311 -183.92562555 197.5778322 -190.125 183.5625 C-190.40214844 182.92634766 -190.67929687 182.29019531 -190.96484375 181.63476562 C-191.63931586 180.0881313 -192.31909495 178.54381303 -193 177 C-193.66 177 -194.32 177 -195 177 C-195.0825 176.41089844 -195.165 175.82179688 -195.25 175.21484375 C-196.45390338 171.65956658 -199.2887802 170.10988524 -202.1875 167.87890625 C-204.42641769 165.55795925 -204.83745297 164.20168395 -205 161 C-204.22265625 158.83203125 -204.22265625 158.83203125 -203.0625 156.8125 C-201.41918766 154.07254077 -201.41918766 154.07254077 -201 151 C-200.34 151 -199.68 151 -199 151 C-197.52760004 148.36119267 -196.07225428 145.71505962 -194.625 143.0625 C-194.2125 142.32708984 -193.8 141.59167969 -193.375 140.83398438 C-190.54218673 135.60241794 -189.05869848 130.85774381 -188 125 C-187.34 125 -186.68 125 -186 125 C-183.55302334 120.63799813 -182.49730652 116.97306516 -182 112 C-181.67 112 -181.34 112 -181 112 C-181.33 109.69 -181.66 107.38 -182 105 C-182.66 105 -183.32 105 -184 105 Z M-57.5 114.75 C-59.2325 115.36875 -59.2325 115.36875 -61 116 C-62.52342561 116.4695114 -64.04976198 116.92963149 -65.578125 117.3828125 C-69.10300718 118.43255843 -72.62399379 119.49324322 -76.140625 120.5703125 C-77.84375 121.08854167 -79.546875 121.60677083 -81.25 122.125 C-82.10851562 122.38925781 -82.96703125 122.65351562 -83.8515625 122.92578125 C-88.22054287 124.24991838 -92.46057475 125.39177636 -97 126 C-97 126.66 -97 127.32 -97 128 C-97.84175781 128.0928125 -98.68351562 128.185625 -99.55078125 128.28125 C-103.46811307 129.09754564 -106.68771288 130.63992104 -110.1875 132.5 C-116.72101113 135.90700371 -116.72101113 135.90700371 -120 137 C-120.639375 137.639375 -121.27875 138.27875 -121.9375 138.9375 C-124 141 -124 141 -126.1875 142 C-128.21402157 142.85609195 -128.21402157 142.85609195 -128.75 145.125 C-128.8325 145.74375 -128.915 146.3625 -129 147 C-129.66 147 -130.32 147 -131 147 C-131 147.66 -131 148.32 -131 149 C-132.485 149.495 -132.485 149.495 -134 150 C-136.36506843 152.00121175 -136.9893322 152.96799661 -138 156 C-138.99 156.495 -138.99 156.495 -140 157 C-147.36366374 168.57769923 -151.09332066 181.55532669 -153 195 C-153.11424316 195.80550293 -153.22848633 196.61100586 -153.34619141 197.44091797 C-154.71630333 207.67311678 -155.09910834 217.74080386 -154.96630859 228.05395508 C-154.85670476 241.76080642 -156.36794878 255.55220888 -159 269 C-159.16113281 269.83273437 -159.32226562 270.66546875 -159.48828125 271.5234375 C-160.13945481 274.6749187 -160.91739071 277.79171889 -161.6953125 280.9140625 C-162.18728112 283.1881967 -162.18728112 283.1881967 -161 286 C-159.50734458 283.31925117 -158.03093047 280.63147942 -156.5625 277.9375 C-156.14162109 277.18533203 -155.72074219 276.43316406 -155.28710938 275.65820312 C-152.77528065 271.01634365 -151.38533889 267.2756397 -151 262 C-150.34 262 -149.68 262 -149 262 C-142.90857955 241.09746079 -138.51538806 221.85261855 -139.3125 199.9375 C-139.36567383 197.99133789 -139.36567383 197.99133789 -139.41992188 196.00585938 C-139.6649428 188.79054159 -140.33204445 182.02007666 -142 175 C-143.0598697 170.27753156 -143.0598697 170.27753156 -142.5390625 167.86328125 C-140.13138775 164.94840598 -136.87132549 164.26510026 -133.375 163.1875 C-127.18855935 161.14570252 -121.15634601 158.92674043 -115.1875 156.3125 C-114.52476074 156.02721436 -113.86202148 155.74192871 -113.17919922 155.44799805 C-109.77763978 153.94270013 -106.92262454 152.28137358 -104 150 C-102.41401927 149.15254966 -100.80841546 148.34104995 -99.1875 147.5625 C-95.02038705 145.52524478 -90.99954611 143.34755968 -87 141 C-87 140.34 -87 139.68 -87 139 C-86.113125 138.7525 -85.22625 138.505 -84.3125 138.25 C-80.84816338 136.94270316 -78.80642536 135.37466761 -76 133 C-73.66649851 131.52021857 -71.37449092 130.17623102 -68.875 129 C-66.96380397 128.09920209 -66.96380397 128.09920209 -65.6328125 126.62109375 C-63.29222434 124.29730407 -60.62134819 122.50379843 -57.9375 120.59765625 C-55.90003105 118.91756593 -54.49676741 117.16563535 -53 115 C-55.03212647 113.69836814 -55.03212647 113.69836814 -57.5 114.75 Z M-146 142 C-148.04142473 144.83165366 -149.84969261 147.74563364 -151.625 150.75 C-153 153 -153 153 -155 155 C-154.34 156.98 -153.68 158.96 -153 161 C-150.40669218 157.90797914 -148.03684256 154.69688268 -145.75 151.375 C-145.22921875 150.61960937 -144.7084375 149.86421875 -144.171875 149.0859375 C-142.75510196 146.96284438 -142.75510196 146.96284438 -143 144 C-143.33 143.34 -143.66 142.68 -144 142 C-144.66 142 -145.32 142 -146 142 Z M-38 145 C-45.19517564 149.03257354 -52.29418825 153.07286468 -59.09375 157.75390625 C-61.61489705 159.40195115 -64.30908459 160.65454229 -67 162 C-67.33 162.66 -67.66 163.32 -68 164 C-69.32181809 164.37641177 -70.65841452 164.70160883 -72 165 C-73.57609917 165.61189733 -75.13883572 166.25915945 -76.6875 166.9375 C-77.86892578 167.44603516 -77.86892578 167.44603516 -79.07421875 167.96484375 C-81.16529855 168.85052458 -81.16529855 168.85052458 -82 171 C-83.9375 171.5625 -83.9375 171.5625 -86 172 C-86.66 172.33 -87.32 172.66 -88 173 C-88.50966688 175.41400129 -88.50966688 175.41400129 -88.6875 178.25 C-88.77386719 179.20390625 -88.86023438 180.1578125 -88.94921875 181.140625 C-88.99883248 183.93425946 -88.65694498 186.29318909 -88 189 C-81.48180123 187.10463724 -75.82185199 184.4821006 -70 181 C-70 180.34 -70 179.68 -70 179 C-68.906875 178.731875 -67.81375 178.46375 -66.6875 178.1875 C-63.11850822 177.03816367 -62.32435379 176.62753038 -60 174 C-59.05125 173.38125 -58.1025 172.7625 -57.125 172.125 C-48.73874077 166.42234372 -41.31522063 157.19329613 -37 148 C-37.495 146.515 -37.495 146.515 -38 145 Z M-48 176 C-53.20765852 179.14424665 -55.70075536 181.31849256 -57.58984375 187.1328125 C-58.10727497 189.16973895 -58.10727497 189.16973895 -58 192 C-58.66 192 -59.32 192 -60 192 C-60.5259375 193.6396875 -60.5259375 193.6396875 -61.0625 195.3125 C-63.10002436 200.77855092 -66.61676316 209.30838158 -72 212 C-72 212.66 -72 213.32 -72 214 C-72.66 214 -73.32 214 -74 214 C-74 214.66 -74 215.32 -74 216 C-74.556875 216.226875 -75.11375 216.45375 -75.6875 216.6875 C-79.86148042 219.05651591 -82.48131043 221.74032532 -84.3125 226.1875 C-85.07915103 228.84124822 -85.07915103 228.84124822 -85 231 C-83.515 230.505 -83.515 230.505 -82 230 C-82 229.34 -82 228.68 -82 228 C-81.0925 227.979375 -80.185 227.95875 -79.25 227.9375 C-73.14562532 227.05670846 -68.15597529 223.15932842 -63 220 C-60.67092477 218.6582216 -58.33881402 217.32444691 -56 216 C-54.82392897 215.32863238 -53.64814635 214.65675925 -52.47265625 213.984375 C-50.19008303 212.68004745 -47.9062636 211.37789791 -45.62109375 210.078125 C-44.57050781 209.47484375 -43.51992188 208.8715625 -42.4375 208.25 C-41.04337891 207.45335937 -41.04337891 207.45335937 -39.62109375 206.640625 C-36.90268356 204.93908658 -34.46371853 203.04938612 -32 201 C-32.66 200.154375 -33.32 199.30875 -34 198.4375 C-36.2868052 194.50705355 -36.16498907 192.45470498 -36 188 C-36.350625 187.319375 -36.70125 186.63875 -37.0625 185.9375 C-38.43226637 183.10664949 -37.67843308 180.98510554 -37 178 C-39.31192733 177.31498449 -41.19787753 177 -43.625 177 C-46 177 -46 177 -48 176 Z M-70 190 C-70 190.66 -70 191.32 -70 192 C-70.53367187 192.14695312 -71.06734375 192.29390625 -71.6171875 192.4453125 C-74.12228877 193.19944333 -76.55227686 194.07626307 -79 195 C-80.36318359 195.48146484 -80.36318359 195.48146484 -81.75390625 195.97265625 C-84.83680119 197.3682608 -86.73677609 198.45982327 -89 201 C-90.75591946 206.12902578 -90.85960414 211.62666739 -91 217 C-89.68 216.34 -88.36 215.68 -87 215 C-87 214.34 -87 213.68 -87 213 C-86.443125 212.773125 -85.88625 212.54625 -85.3125 212.3125 C-80.04772266 209.32438313 -75.57645378 203.87921701 -72 199 C-72 198.34 -72 197.68 -72 197 C-71.34 196.67 -70.68 196.34 -70 196 C-69.27306096 194.02111039 -68.60183749 192.02045442 -68 190 C-68.66 190 -69.32 190 -70 190 Z M-96 231 C-96.66 232.32 -97.32 233.64 -98 235 C-97.34 235 -96.68 235 -96 235 C-95.34 233.68 -94.68 232.36 -94 231 C-94.66 231 -95.32 231 -96 231 Z M-99 235 C-99.33 236.98 -99.66 238.96 -100 241 C-99.34 240.34 -98.68 239.68 -98 239 C-98.3185177 236.89179203 -98.3185177 236.89179203 -99 235 Z M-102 242 C-101 244 -101 244 -101 244 Z M-104 244 C-103.67 244.66 -103.34 245.32 -103 246 C-102.67 245.34 -102.34 244.68 -102 244 C-102.66 244 -103.32 244 -104 244 Z M-168 249 C-168 249.66 -168 250.32 -168 251 C-168.66 251 -169.32 251 -170 251 C-172.08937386 252.89943078 -173.73220443 254.46440887 -175 257 C-175.66 257 -176.32 257 -177 257 C-177 257.66 -177 258.32 -177 259 C-177.66 259 -178.32 259 -179 259 C-179 259.66 -179 260.32 -179 261 C-179.66 261 -180.32 261 -181 261 C-181 261.66 -181 262.32 -181 263 C-181.556875 263.2475 -182.11375 263.495 -182.6875 263.75 C-185.42410913 265.22924818 -187.67650869 266.93467439 -190 269 C-190 269.66 -190 270.32 -190 271 C-194.50153374 271.30674847 -194.50153374 271.30674847 -196.67578125 269.96875 C-197.21589844 269.4840625 -197.75601563 268.999375 -198.3125 268.5 C-202.34547329 265.25659154 -206.63637267 262.97849048 -211.25 260.6875 C-211.94778564 260.33816406 -212.64557129 259.98882813 -213.36450195 259.62890625 C-219.94147583 256.40817823 -224.83327253 255.14494675 -232 257 C-235.29000859 258.65615686 -238.1106942 260.72653203 -241 263 C-241.71542969 263.54011719 -242.43085938 264.08023437 -243.16796875 264.63671875 C-251.42036602 271.27889216 -256.09962032 280.76199639 -257.40234375 291.234375 C-257.65267759 294.15607955 -257.85629 297.07128926 -258 300 C-257.40832031 299.36578125 -256.81664062 298.7315625 -256.20703125 298.078125 C-252.47902508 294.56786078 -248.35193546 294.11654616 -243.375 293.6875 C-237.62960911 294.21948064 -234.92646897 297.07353103 -231 301 C-230.360625 301.30035156 -229.72125 301.60070313 -229.0625 301.91015625 C-226.7632957 303.1250767 -225.66301842 304.34442538 -224.0625 306.375 C-221.62624056 309.34921521 -219.05188349 311.64568988 -216 314 C-215.67 314.66 -215.34 315.32 -215 316 C-214.34 316 -213.68 316 -213 316 C-212.7525 316.78375 -212.505 317.5675 -212.25 318.375 C-210.80253303 321.41468063 -210.06085181 321.82967431 -207 323 C-205.66666667 323.66666667 -204.33333333 324.33333333 -203 325 C-203 325.66 -203 326.32 -203 327 C-199.62902617 328.49821059 -197.79557881 329 -194 329 C-193.67 329.66 -193.34 330.32 -193 331 C-189.72406584 331.74198509 -186.34736699 331.81331157 -183 332 C-181.95457031 332.06574219 -180.90914063 332.13148438 -179.83203125 332.19921875 C-167.64792037 332.62136835 -157.50543764 328.66825222 -148 321 C-146.15706964 318.68583934 -145.18566795 316.74859388 -144 314 C-143.505 313.01 -143.505 313.01 -143 312 C-142.53411718 306.11834264 -142.53411718 306.11834264 -145 301 C-160.43858925 308.73818903 -160.43858925 308.73818903 -173.625 319.75 C-176.66065342 322.62588218 -179.01167304 323.74441559 -183 325 C-184.485 324.01 -184.485 324.01 -186 323 C-185.67156964 319.49674282 -184.58985756 317.18937815 -182.6875 314.3125 C-173.05146416 299.43048477 -169.85865275 280.20078233 -167 263 C-166.7215625 261.576875 -166.7215625 261.576875 -166.4375 260.125 C-165.91068165 256.36201181 -165.93451785 252.79796495 -166 249 C-166.66 249 -167.32 249 -168 249 Z M-250 258 C-256.16354534 260.09560541 -259.05119357 262.92645613 -263 268 C-263.66 268.66 -264.32 269.32 -265 270 C-267.61412096 273.04790189 -267.61412096 273.04790189 -268 277 C-268.66 277 -269.32 277 -270 277 C-270 278.65 -270 280.3 -270 282 C-270.66 282.33 -271.32 282.66 -272 283 C-276.47585404 296.42756212 -272.71129197 307.25427263 -268 320 C-267.34 320 -266.68 320 -266 320 C-266 320.99 -266 321.98 -266 323 C-265.34 323 -264.68 323 -264 323 C-263.7525 323.556875 -263.505 324.11375 -263.25 324.6875 C-259.95635588 330.78074162 -255.09253546 335.14447873 -249.1875 338.6875 C-247 340 -247 340 -246 342 C-243.82688162 343.02631003 -243.82688162 343.02631003 -241.25 343.9375 C-238.55254928 344.93491067 -236.21922701 345.85253435 -233.828125 347.4609375 C-212.14356562 359.26165075 -179.18910588 356.21229182 -156.28125 349.67578125 C-146.28772809 346.70282302 -136.59903717 343.06025624 -127 339 C-125.78699219 338.49210937 -124.57398438 337.98421875 -123.32421875 337.4609375 C-120.79163097 336.34790832 -118.43602728 335.21724063 -116.0625 333.8125 C-115.051875 333.214375 -114.04125 332.61625 -113 332 C-113 330.68 -113 329.36 -113 328 C-113.99 327.67 -114.98 327.34 -116 327 C-117.02376636 324.38140685 -117.86148354 321.88101638 -118.625 319.1875 C-118.8415625 318.46240234 -119.058125 317.73730469 -119.28125 316.99023438 C-119.87189246 314.99772757 -120.44848191 313.00367804 -121 311 C-121.20802246 310.32235596 -121.41604492 309.64471191 -121.63037109 308.9465332 C-122 307 -122 307 -121 304 C-121.33 303.34 -121.66 302.68 -122 302 C-122.66 302 -123.32 302 -124 302 C-123.814375 301.38125 -123.62875 300.7625 -123.4375 300.125 C-122.76313824 297.95839822 -122.76313824 297.95839822 -124 296 C-122.02 295.01 -122.02 295.01 -120 294 C-120.66 293.34 -121.32 292.68 -122 292 C-122.71408334 290.01643517 -123.38617742 288.01684563 -124 286 C-124.33 286.99 -124.66 287.98 -125 289 C-125.66 289 -126.32 289 -127 289 C-127 289.66 -127 290.32 -127 291 C-128.32 291 -129.64 291 -131 291 C-131 291.66 -131 292.32 -131 293 C-131.9590625 293.433125 -131.9590625 293.433125 -132.9375 293.875 C-135.15206079 294.82823451 -135.15206079 294.82823451 -136 297 C-135.49605493 298.64622058 -134.99164474 300.29230085 -134.484375 301.9375 C-133.20014921 307.40581627 -133.6479262 313.59170481 -135 319 C-135.99 319.495 -135.99 319.495 -137 320 C-137.309375 320.61875 -137.61875 321.2375 -137.9375 321.875 C-139.03604954 324.07209907 -140.24124429 325.31771193 -142 327 C-142.33 327.66 -142.66 328.32 -143 329 C-143.99 329.33 -144.98 329.66 -146 330 C-146 330.66 -146 331.32 -146 332 C-146.71542969 332.2784375 -147.43085938 332.556875 -148.16796875 332.84375 C-149.98363149 333.58504127 -151.78123187 334.37326852 -153.55078125 335.21875 C-168.54775198 342.17632624 -185.64758838 342.89065481 -201.20703125 337.23828125 C-205.52457612 335.32406905 -209.25115172 332.85188458 -213 330 C-213.99 329.2575 -214.98 328.515 -216 327.75 C-218 326 -218 326 -219 324 C-219.66 324 -220.32 324 -221 324 C-221.66 322.35 -222.32 320.7 -223 319 C-223.66 319 -224.32 319 -225 319 C-225.33 318.01 -225.66 317.02 -226 316 C-226.99 315.67 -227.98 315.34 -229 315 C-229.268125 315.61875 -229.53625 316.2375 -229.8125 316.875 C-231 319 -231 319 -234 321 C-234 321.66 -234 322.32 -234 323 C-240.94852748 326.17898274 -248.63223034 325.59303128 -256 324 C-256 323.34 -256 322.68 -256 322 C-257.31200404 320.64567325 -258.64631404 319.31266518 -260 318 C-260.33 317.34 -260.66 316.68 -261 316 C-261.66 316 -262.32 316 -263 316 C-268.1476855 301.53745503 -267.28181505 287.807398 -261 274 C-257.83685918 268.43027823 -254.39749876 263.59833251 -249 260 C-249.33 259.34 -249.66 258.68 -250 258 Z M-111 263 C-110 265 -110 265 -110 265 Z M-163 286 C-162 288 -162 288 -162 288 Z M-249.75 304.6875 C-251.18456058 307.34143707 -252 308.95984496 -252 312 C-249.71158743 315.02878134 -248.16972398 316.71470147 -244.4375 317.625 C-241.79804459 317.14772448 -241.79804459 317.14772448 -239.625 314.875 C-237.74372018 312.09699206 -237.74372018 312.09699206 -238 308.875 C-239.15165668 305.56398704 -239.8848354 304.5575823 -243 303 C-246.20460105 302.45287299 -247.37797932 302.40019435 -249.75 304.6875 Z M-279 322 C-279 323.32 -279 324.64 -279 326 C-279.99 326.495 -279.99 326.495 -281 327 C-283.55407862 331.73901307 -285.41977816 336.86427902 -287 342 C-286.34 342 -285.68 342 -285 342 C-285 341.34 -285 340.68 -285 340 C-284.01 340 -283.02 340 -282 340 C-282 339.34 -282 338.68 -282 338 C-280.68 337.67 -279.36 337.34 -278 337 C-278 336.34 -278 335.68 -278 335 C-277.34 335 -276.68 335 -276 335 C-273.25624329 332.04518508 -273 331.22528092 -273 327 C-273.66 327 -274.32 327 -275 327 C-275 325.68 -275 324.36 -275 323 C-276.32 322.67 -277.64 322.34 -279 322 Z M-267 337 C-268.29854721 338.07507629 -269.58858361 339.16043736 -270.875 340.25 C-271.59429687 340.85328125 -272.31359375 341.4565625 -273.0546875 342.078125 C-274.97052118 343.97087634 -275.96449045 345.53657727 -277 348 C-268.36153461 346.56115528 -268.36153461 346.56115528 -260 344 C-260 343.34 -260 342.68 -260 342 C-260.66 342 -261.32 342 -262 342 C-262 341.34 -262 340.68 -262 340 C-264.46326712 338.3553326 -264.46326712 338.3553326 -267 337 Z " transform="translate(300,0)"/>
</svg>
