<?xml version="1.0" encoding="UTF-8"?>
<svg version="1.1" xmlns="http://www.w3.org/2000/svg" viewbox= "0 0 430 366">
<path d="M0 0 C2.8984375 0.125 2.8984375 0.125 6 1 C18.96427279 18.89990964 18.38369487 52.02998957 20.3125 73.0625 C20.40096191 74.00109863 20.48942383 74.93969727 20.58056641 75.90673828 C20.94035212 80.20103212 21.02164536 83.78111918 20 88 C19.95725179 89.93702835 19.95937983 91.87542585 20 93.8125 C20.04792038 98.65844873 19.73624017 103.2144389 19 108 C19.33 107.67 19.66 107.34 20 107 C20.33 107.66 20.66 108.32 21 109 C21.66 109 22.32 109 23 109 C23.625 110.875 23.625 110.875 24 113 C23.34 113.66 22.68 114.32 22 115 C21.814375 115.99 21.814375 115.99 21.625 117 C21.41875 117.66 21.2125 118.32 21 119 C19.02 119.99 19.02 119.99 17 121 C16.67 126.61 16.34 132.22 16 138 C16.99 136.68 17.98 135.36 19 134 C19.66 134 20.32 134 21 134 C21.35578125 132.92685547 21.35578125 132.92685547 21.71875 131.83203125 C23.20820269 128.53979589 25.06794847 126.35249153 27.5 123.6875 C28.2940625 122.80449219 29.088125 121.92148437 29.90625 121.01171875 C32 119 32 119 34 119 C34.33 118.01 34.66 117.02 35 116 C36.77734375 114.17578125 36.77734375 114.17578125 38.9375 112.3125 C40.00291016 111.37857422 40.00291016 111.37857422 41.08984375 110.42578125 C43 109 43 109 45 109 C45.33 108.01 45.66 107.02 46 106 C47.55859375 104.61328125 47.55859375 104.61328125 49.4375 103.3125 C50.05496094 102.87550781 50.67242188 102.43851562 51.30859375 101.98828125 C53 101 53 101 55 101 C55 100.34 55 99.68 55 99 C60.874765 94.49700754 67.29999533 90.69554618 73.81640625 87.19921875 C76.1168044 85.93585161 78.33271684 84.5713754 80.5625 83.1875 C84.94392169 80.54224229 89.43106074 78.17473693 94 75.875 C94.6401001 75.55039795 95.2802002 75.2257959 95.93969727 74.89135742 C104.80719237 70.48501666 114.10818026 67.15742287 123.4375 63.875 C124.39720703 63.52824219 125.35691406 63.18148437 126.34570312 62.82421875 C143.28054598 56.8713649 143.28054598 56.8713649 148.31420898 58.96044922 C148.87052002 59.30350098 149.42683105 59.64655273 150 60 C150 61.65 150 63.3 150 65 C148.97519531 65.54269531 147.95039062 66.08539063 146.89453125 66.64453125 C145.53381697 67.36711745 144.17314196 68.08977762 142.8125 68.8125 C142.13896484 69.16892578 141.46542969 69.52535156 140.77148438 69.89257812 C137.85270843 71.44451265 134.99943784 73.0003536 132.19921875 74.76171875 C130 76 130 76 127 76 C127 76.66 127 77.32 127 78 C125.02 78.66 123.04 79.32 121 80 C121 80.66 121 81.32 121 82 C120.01 82 119.02 82 118 82 C118 82.66 118 83.32 118 84 C116.171875 85.4375 116.171875 85.4375 113.75 87 C112.96109375 87.515625 112.1721875 88.03125 111.359375 88.5625 C109 90 109 90 106.828125 91.0625 C104.82266051 91.97298524 104.82266051 91.97298524 103 94 C101 96 101 96 99.0625 96.9375 C96.77142445 98.11775104 95.30358691 99.65570802 93.51391602 101.48217773 C90.57319569 104.43048579 87.4906051 107.23154807 84.4375 110.0625 C83.12305677 111.28186131 81.80923692 112.50189501 80.49609375 113.72265625 C79.88620605 114.28871582 79.27631836 114.85477539 78.64794922 115.43798828 C77.2822494 116.73246938 75.96433954 118.07715604 74.66015625 119.43359375 C73 121 73 121 71 121 C70.731875 121.58265625 70.46375 122.1653125 70.1875 122.765625 C68.98519009 125.02786601 67.66174087 126.80576318 66 128.75 C65.484375 129.36359375 64.96875 129.9771875 64.4375 130.609375 C63 132 63 132 61 132 C60.7525 132.556875 60.505 133.11375 60.25 133.6875 C58.77075182 136.42410913 57.06532561 138.67650869 55 141 C54.34 141 53.68 141 53 141 C53 141.99 53 142.98 53 144 C52.34 144 51.68 144 51 144 C50.62875 144.804375 50.62875 144.804375 50.25 145.625 C48.69347463 148.5823982 46.96564327 151.29724051 45 154 C44.34 154 43.68 154 43 154 C42.67 155.32 42.34 156.64 42 158 C41.34 158 40.68 158 40 158 C39.71125 158.763125 39.4225 159.52625 39.125 160.3125 C38 163 38 163 36 166 C35.75741795 170.52819826 36.05939065 174.86673621 36.5 179.375 C37.3364345 188.03807158 37.02875264 196.36582603 36 205 C37.11375 204.814375 38.2275 204.62875 39.375 204.4375 C44.40289154 203.87347371 49.33510866 204.05995314 54.375 204.3125 C55.17212402 204.34722412 55.96924805 204.38194824 56.79052734 204.41772461 C60.62420232 204.63994891 62.7463482 204.8308988 66 207 C67.05058594 206.45730469 68.10117187 205.91460937 69.18359375 205.35546875 C93.26016412 193.0229367 93.26016412 193.0229367 106.62109375 196.7265625 C110.42420173 198.30424305 112.83779528 199.83960006 115.80859375 202.77734375 C118.83812987 205.43849088 118.83812987 205.43849088 122.4453125 204.4296875 C123.65960937 203.91664063 124.87390625 203.40359375 126.125 202.875 C127.46644401 202.3590098 128.81157925 201.85251802 130.16015625 201.35546875 C130.81773926 201.11231934 131.47532227 200.86916992 132.15283203 200.61865234 C136.68293828 199.10143199 141.26524756 199.07308328 146 199 C146.79325684 198.98098633 147.58651367 198.96197266 148.40380859 198.94238281 C158.93867792 198.70737567 169.13511699 198.90323948 179.5703125 200.421875 C185.41791472 201.24014966 191.30323364 201.66119473 197.1875 202.125 C198.82005737 202.25624268 198.82005737 202.25624268 200.4855957 202.39013672 C205.00494798 202.7416694 209.4646286 203.04812337 214 203 C214.66 204.65 215.32 206.3 216 208 C213.07549635 211.34228988 211.01722039 212.58974066 206.6875 213.5 C201.91410824 214.56398379 197.21177692 215.7501757 192.5 217.0625 C188.06801831 218.25693478 183.72790647 219.27182492 179.1875 219.9375 C166.07685374 221.96947348 153.81796319 225.99629983 142 232 C140.767901 232.60095919 139.53478963 233.19984634 138.30078125 233.796875 C131.35230135 237.17077689 131.35230135 237.17077689 124.77734375 241.2109375 C122 243 122 243 119 243 C119 243.66 119 244.32 119 245 C114.61538462 248 114.61538462 248 112 248 C112 248.66 112 249.32 112 250 C110.35 250.66 108.7 251.32 107 252 C107 252.66 107 253.32 107 254 C106.01 254 105.02 254 104 254 C103.79375 254.556875 103.5875 255.11375 103.375 255.6875 C101.42316968 258.97012371 99.05769006 260.70673246 96 263 C95.34 263 94.68 263 94 263 C94 263.66 94 264.32 94 265 C93.21625 265.2475 92.4325 265.495 91.625 265.75 C88.50515924 267.23563846 88.47562245 268.02689403 87 271 C85.34375 272.703125 85.34375 272.703125 83.5 274.25 C82.8915625 274.77078125 82.283125 275.2915625 81.65625 275.828125 C80 277 80 277 78 277 C77.67 277.99 77.34 278.98 77 280 C76.34 280 75.68 280 75 280 C74.67 280.99 74.34 281.98 74 283 C70.55555556 286 70.55555556 286 68 286 C67.6596875 286.86625 67.6596875 286.86625 67.3125 287.75 C65.67083893 290.56427613 63.56440947 292.02737733 61 294 C60.67 294.66 60.34 295.32 60 296 C59.34 296 58.68 296 58 296 C58 296.66 58 297.32 58 298 C57.41992188 298.31453125 56.83984375 298.6290625 56.2421875 298.953125 C52.60167559 300.94759687 49.02107263 302.91981247 45.625 305.3125 C43 307 43 307 40 307 C40 307.66 40 308.32 40 309 C25.29636472 316.60087545 11.03173701 323.09739759 -5.75 324.4375 C-6.8225 324.623125 -7.895 324.80875 -9 325 C-10.3498008 326.78265886 -10.3498008 326.78265886 -11 329 C-12.9375 331.25 -12.9375 331.25 -15 333 C-15.99 333 -16.98 333 -18 333 C-18 333.66 -18 334.32 -18 335 C-18.66 335 -19.32 335 -20 335 C-20.33 335.99 -20.66 336.98 -21 338 C-22.93359375 339.39453125 -22.93359375 339.39453125 -25.4375 340.8125 C-29.43835195 343.09593207 -29.43835195 343.09593207 -33.359375 345.51171875 C-61.29394709 363.36922205 -98.10011135 366.81717366 -130 360 C-134.72625574 358.86184948 -139.36242758 357.45365531 -144 356 C-145.14984375 355.71382812 -146.2996875 355.42765625 -147.484375 355.1328125 C-152.48504199 353.52148647 -156.38297183 350.68715604 -160.71875 347.77734375 C-164.24942278 345.86489599 -167.02490521 345.32623884 -171 345 C-171.28875 344.0925 -171.5775 343.185 -171.875 342.25 C-172.76531776 339.67797092 -173.71494413 337.38653234 -175 335 C-175.66 335 -176.32 335 -177 335 C-178.5078125 332.8828125 -178.5078125 332.8828125 -180.125 330.125 C-180.66382813 329.22007812 -181.20265625 328.31515625 -181.7578125 327.3828125 C-183 325 -183 325 -183 323 C-184.0725 322.95875 -185.145 322.9175 -186.25 322.875 C-194.36344873 321.85181197 -202.96214566 317.13630369 -208.91015625 311.56640625 C-210 310 -210 310 -210.25 306.5 C-208.06701501 300.38764202 -203.57055586 296.45027808 -199 292 C-198.443125 291.401875 -197.88625 290.80375 -197.3125 290.1875 C-196 289 -196 289 -194 289 C-194 288.34 -194 287.68 -194 287 C-193.34 287 -192.68 287 -192 287 C-191.71125 286.38125 -191.4225 285.7625 -191.125 285.125 C-190 283 -190 283 -188 281 C-187.79375 279.80375 -187.5875 278.6075 -187.375 277.375 C-184.50181647 263.4163052 -176.01096947 251.46424904 -164.796875 243.03125 C-163 242 -163 242 -160 242 C-159.67 241.34 -159.34 240.68 -159 240 C-156.85546875 238.96484375 -156.85546875 238.96484375 -154.1875 237.9375 C-153.31480469 237.59589844 -152.44210937 237.25429688 -151.54296875 236.90234375 C-147.44275409 235.44742887 -144.11657728 234.88004504 -139.75 234.9375 C-138.85796875 234.94652344 -137.9659375 234.95554687 -137.046875 234.96484375 C-136.03367187 234.98224609 -136.03367187 234.98224609 -135 235 C-135.29648437 234.36578125 -135.59296875 233.7315625 -135.8984375 233.078125 C-137.34866982 229.02570276 -137.97408883 224.99420652 -138.625 220.75 C-138.7590625 219.94175781 -138.893125 219.13351562 -139.03125 218.30078125 C-140.32725121 210.03546744 -140.19153739 202.06938597 -139.375 193.75 C-139.29507813 192.93136475 -139.21515625 192.11272949 -139.1328125 191.26928711 C-138.22085027 182.79838795 -136.80861953 174.41624736 -135.4083252 166.01574707 C-127.28763606 117.2260641 -122.69516611 59.81447004 -151.875 16.625 C-154.00195633 13.33164827 -154.75861178 10.98271185 -154 7 C-151 5 -151 5 -148.4375 5 C-140.63188856 7.27072333 -134.16629224 12.44313293 -127.91015625 17.484375 C-125.86740316 19.14808306 -125.86740316 19.14808306 -123 21 C-123 21.66 -123 22.32 -123 23 C-121.515 23.495 -121.515 23.495 -120 24 C-118.39453125 25.77734375 -118.39453125 25.77734375 -116.8125 27.9375 C-116.28269531 28.64777344 -115.75289063 29.35804688 -115.20703125 30.08984375 C-114 32 -114 32 -114 34 C-113.34 34 -112.68 34 -112 34 C-105.95230469 45.03851183 -102.80537102 55.44732071 -102 68 C-99.34771188 69.07525194 -96.71631546 70.09456151 -94 71 C-94 71.66 -94 72.32 -94 73 C-92.824375 73.37125 -92.824375 73.37125 -91.625 73.75 C-88.61694992 75.1824048 -88.24509643 76.0309239 -87 79 C-86.34 79.33 -85.68 79.66 -85 80 C-79.52807028 87.69490117 -79.07088722 96.30485596 -78.71435547 105.50317383 C-78.41461094 114.10136015 -78.41461094 114.10136015 -75.1171875 121.92578125 C-70.14237808 131.1622281 -69.12598954 142.0864208 -68.90234375 152.3828125 C-68.64639601 161.57198316 -67.90283092 168.82805012 -64.14453125 177.30859375 C-62.74110404 180.60880313 -62.24800184 183.44530689 -62 187 C-57.94666015 181.0466571 -54.92198906 174.79197195 -51.94335938 168.25610352 C-49.56367268 163.06389789 -46.90852391 158.16952093 -43.96020508 153.27319336 C-41.53302972 149.17039872 -39.71929511 144.99464484 -38.125 140.5 C-36.58718486 136.26167999 -35.03894534 132.03846276 -33.31640625 127.87109375 C-33.0436084 127.20980469 -32.77081055 126.54851562 -32.48974609 125.8671875 C-31.73151426 124.04336998 -30.96560043 122.22275167 -30.19921875 120.40234375 C-28.96908616 116.91229331 -28.39749029 113.67093972 -28 110 C-27.34 110 -26.68 110 -26 110 C-26 108.35 -26 106.7 -26 105 C-25.34 105 -24.68 105 -24 105 C-23.8453125 104.0409375 -23.8453125 104.0409375 -23.6875 103.0625 C-23.14649078 100.65254986 -22.50895772 98.50876781 -21.6953125 96.19140625 C-19.55829714 89.83543458 -17.86711568 83.36403559 -16.1875 76.875 C-15.92762802 75.87371567 -15.92762802 75.87371567 -15.6625061 74.85220337 C-10.53749302 54.98407442 -6.84901492 34.82964597 -3.5859375 14.578125 C-1.43342037 1.43342037 -1.43342037 1.43342037 0 0 Z M-142 17 C-141.67 18.65 -141.34 20.3 -141 22 C-140.34 22 -139.68 22 -139 22 C-138.608125 23.216875 -138.21625 24.43375 -137.8125 25.6875 C-136.53844471 29.54572405 -135.08424051 33.29572257 -133.5625 37.0625 C-129.05562639 48.69620689 -126.67774544 60.6663038 -125 73 C-124.82597656 74.0725 -124.65195312 75.145 -124.47265625 76.25 C-122.9042973 86.14096447 -122.40480727 96.00765208 -122 106 C-121.01 105.505 -121.01 105.505 -120 105 C-120 104.34 -120 103.68 -120 103 C-119.236875 102.814375 -118.47375 102.62875 -117.6875 102.4375 C-114.62516647 100.79950765 -113.75604191 99.35132978 -112.55078125 96.1328125 C-111.72242763 92.9251453 -111.48264328 89.73135441 -111.30859375 86.4296875 C-111 84 -111 84 -109.96484375 81.68359375 C-108.68564415 78.12565802 -108.86542036 74.89517658 -109.125 71.1875 C-109.20113525 70.0735083 -109.20113525 70.0735083 -109.27880859 68.93701172 C-110.33025617 56.16016677 -113.24107593 45.43617919 -121 35 C-121.47308594 34.27296875 -121.94617188 33.5459375 -122.43359375 32.796875 C-127.34546594 25.5055973 -134.56801313 21.41150023 -142 17 Z M-105 75 C-104.34 76.32 -103.68 77.64 -103 79 C-102.34 78.67 -101.68 78.34 -101 78 C-101 77.34 -101 76.68 -101 76 C-102.32 75.67 -103.64 75.34 -105 75 Z M-93 83 C-93.86743956 86.26657419 -94.49046826 89.54450408 -95.0625 92.875 C-95.23910156 93.88304687 -95.41570312 94.89109375 -95.59765625 95.9296875 C-95.99890691 98.99165852 -96.06904905 101.91580905 -96 105 C-94.68 104.67 -93.36 104.34 -92 104 C-92 104.66 -92 105.32 -92 106 C-88.27385847 104.88145414 -88.27385847 104.88145414 -86 102 C-86.36508449 99.50574276 -86.79703797 97.08802217 -87.3125 94.625 C-87.50875977 93.61566406 -87.50875977 93.61566406 -87.70898438 92.5859375 C-88.41459382 89.12265636 -89.2034328 86.05965593 -91 83 C-91.66 83 -92.32 83 -93 83 Z M19 110 C19.66 110.66 20.32 111.32 21 112 C21 111.34 21 110.68 21 110 C20.34 110 19.68 110 19 110 Z M-80 133 C-80.33 134.98 -80.66 136.96 -81 139 C-80.01 139.33 -79.02 139.66 -78 140 C-78.33 137.69 -78.66 135.38 -79 133 C-79.33 133 -79.66 133 -80 133 Z M28 176 C26.98888907 179.04913228 26.98888907 179.04913228 28 182 C27.01 182.495 27.01 182.495 26 183 C26.33 183.33 26.66 183.66 27 184 C26.5625 186.0625 26.5625 186.0625 26 188 C25.01 188 24.02 188 23 188 C23 188.99 23 189.98 23 191 C22.01 191.33 21.02 191.66 20 192 C20 192.99 20 193.98 20 195 C19.34 195.33 18.68 195.66 18 196 C18 196.99 18 197.98 18 199 C17.34 199 16.68 199 16 199 C14.96588523 201.74564964 13.94748843 204.4954861 12.9375 207.25 C12.49567383 208.41595703 12.49567383 208.41595703 12.04492188 209.60546875 C11.77099609 210.35957031 11.49707031 211.11367188 11.21484375 211.890625 C10.95823975 212.58188477 10.70163574 213.27314453 10.43725586 213.98535156 C9.93047944 216.32031471 10.25785861 217.75375603 11 220 C11.81791016 219.31164062 11.81791016 219.31164062 12.65234375 218.609375 C17.82161471 214.40326734 22.77125439 211.37075188 29 209 C31.4580302 191.77017687 31.4580302 191.77017687 28 176 Z M-55 189 C-55 189.99 -55 190.98 -55 192 C-55.66 192.33 -56.32 192.66 -57 193 C-57.71578289 194.51734142 -58.42253706 196.03894627 -59.125 197.5625 C-62.53103913 203.41922583 -66.69255761 205.26806787 -72.6184082 207.96362305 C-84.63864229 213.46918875 -94.54863647 221.85599788 -104 231 C-104.92683594 231.88042969 -105.85367188 232.76085937 -106.80859375 233.66796875 C-109.22826445 235.70956267 -109.22826445 235.70956267 -109 238 C-109.66 238 -110.32 238 -111 238 C-111.66 239.98 -112.32 241.96 -113 244 C-112.401875 244.37125 -111.80375 244.7425 -111.1875 245.125 C-105.13936378 250.30911676 -103.03111476 260.50049936 -101 268 C-100.39671875 267.72285156 -99.7934375 267.44570313 -99.171875 267.16015625 C-97.97304688 266.61681641 -97.97304688 266.61681641 -96.75 266.0625 C-95.56664062 265.52302734 -95.56664062 265.52302734 -94.359375 264.97265625 C-89.68228432 263.04451787 -86.08709803 262.9266675 -81 263.25 C-79.783125 263.31703125 -78.56625 263.3840625 -77.3125 263.453125 C-73.892327 264.0177762 -72.56708011 264.7894588 -70 267 C-69.34 267 -68.68 267 -68 267 C-67.566875 265.96875 -67.13375 264.9375 -66.6875 263.875 C-66.12538457 262.58316593 -65.56289225 261.29149578 -65 260 C-64.608125 259.071875 -64.21625 258.14375 -63.8125 257.1875 C-59.11805758 248.93175643 -51.32784578 238.10928193 -42 235 C-42 234.34 -42 233.68 -42 233 C-41.40832031 232.80664062 -40.81664062 232.61328125 -40.20703125 232.4140625 C-39.02173828 232.02347656 -39.02173828 232.02347656 -37.8125 231.625 C-37.03519531 231.36976563 -36.25789063 231.11453125 -35.45703125 230.8515625 C-33.00498517 230.05989359 -33.00498517 230.05989359 -30.8203125 228.91796875 C-26.58768035 227.54031147 -22.484984 227.67139481 -18.0625 227.6875 C-17.18142578 227.67138672 -16.30035156 227.65527344 -15.39257812 227.63867188 C-10.1017287 227.63470869 -6.65615192 228.23836999 -2 231 C-1.34 231 -0.68 231 0 231 C0 230.34 0 229.68 0 229 C0.66 228.67 1.32 228.34 2 228 C2.59191183 225.40742617 3.08009732 222.87093099 3.5 220.25 C4.26262575 215.59044045 5.02097344 211.33338575 7 207 C4.69 206.67 2.38 206.34 0 206 C-0.33 207.32 -0.66 208.64 -1 210 C-1.66 210 -2.32 210 -3 210 C-3.495 211.485 -3.495 211.485 -4 213 C-5.32 213 -6.64 213 -8 213 C-8.185625 213.9590625 -8.185625 213.9590625 -8.375 214.9375 C-8.58125 215.618125 -8.7875 216.29875 -9 217 C-9.66 217.33 -10.32 217.66 -11 218 C-11.99 219.485 -11.99 219.485 -13 221 C-19.25080515 220.47909957 -25.04654666 219.34095136 -31.10546875 217.71875 C-34.05652294 216.98596461 -36.99587263 216.46285814 -40 216 C-40 215.34 -40 214.68 -40 214 C-41.0725 213.54625 -42.145 213.0925 -43.25 212.625 C-45.88618474 211.50969107 -48.4487522 210.29820132 -51 209 C-50.97679687 207.80761719 -50.95359375 206.61523438 -50.9296875 205.38671875 C-50.91092822 203.82031876 -50.89272819 202.253912 -50.875 200.6875 C-50.85824219 199.90181641 -50.84148437 199.11613281 -50.82421875 198.30664062 C-50.81777344 197.54931641 -50.81132812 196.79199219 -50.8046875 196.01171875 C-50.79421387 195.31522217 -50.78374023 194.61872559 -50.77294922 193.90112305 C-50.89425405 191.668827 -50.89425405 191.668827 -53 189 C-53.66 189 -54.32 189 -55 189 Z M70 214 C70.66 215.32 71.32 216.64 72 218 C72.66 217.34 73.32 216.68 74 216 C74.99 215.67 75.98 215.34 77 215 C77 214.34 77 213.68 77 213 C77.99 213.66 78.98 214.32 80 215 C80.625 218.1875 80.625 218.1875 81 222 C81.2784375 223.9490625 81.2784375 223.9490625 81.5625 225.9375 C81.706875 226.948125 81.85125 227.95875 82 229 C82.556875 228.67 83.11375 228.34 83.6875 228 C86 227 86 227 88.18359375 227.265625 C92.489931 226.85947946 95.0486238 224.37503182 98.375 221.75 C103.09600942 218.09409636 107.74515459 214.8514665 113 212 C112.78318793 210.06057609 112.78318793 210.06057609 112 208 C97.79489113 197.54530539 82.8824796 205.93164117 70 214 Z M115 216 C114.12214844 216.53625 113.24429688 217.0725 112.33984375 217.625 C106.24546962 221.38054279 100.55457298 225.48776664 95 230 C95.33 230.66 95.66 231.32 96 232 C98.38084878 232.84298574 98.38084878 232.84298574 101 233 C101.99 232.34 102.98 231.68 104 231 C106 234 106 234 105.8125 236 C104.90059285 238.24469451 103.81466246 239.42203265 102 241 C102.33 241.66 102.66 242.32 103 243 C102.0409375 243.185625 102.0409375 243.185625 101.0625 243.375 C100.381875 243.58125 99.70125 243.7875 99 244 C98.67 244.66 98.34 245.32 98 246 C92.86680404 247.31511632 88.81401034 247.26541663 84 245 C82.515 245.495 82.515 245.495 81 246 C80.7834375 247.85625 80.7834375 247.85625 80.5625 249.75 C79.50667581 257.95071669 79.50667581 257.95071669 76 261 C79.29090603 263.20232797 79.29090603 263.20232797 83 264 C85.45179219 262.20221815 87.59490816 260.42894068 89.8125 258.375 C91.00392257 257.29661316 92.19792868 256.22107361 93.39453125 255.1484375 C93.98186035 254.61959961 94.56918945 254.09076172 95.17431641 253.54589844 C97.0287567 251.97565025 98.94545838 250.59938801 100.94921875 249.2265625 C101.95597656 248.49179687 102.96273438 247.75703125 104 247 C104 246.34 104 245.68 104 245 C105.10988281 244.60554688 105.10988281 244.60554688 106.2421875 244.203125 C109.00589201 242.99742955 110.83246586 241.68514288 113.125 239.75 C118.12003047 235.78335816 123.30826272 232.85592471 129 230 C129.66789551 229.65678711 130.33579102 229.31357422 131.02392578 228.95996094 C147.32612496 220.62603633 163.79025989 215.43219208 181.81811523 212.29174805 C183.89022984 211.920357 185.94752828 211.46792101 188 211 C188.33 210.34 188.66 209.68 189 209 C186.35421083 208.68712252 183.70837024 208.37469055 181.0625 208.0625 C179.95938477 207.93198242 179.95938477 207.93198242 178.83398438 207.79882812 C177.32203563 207.62056343 175.80990368 207.44384686 174.29760742 207.26855469 C172.78932326 207.09225965 171.28163363 206.91078544 169.7746582 206.72363281 C150.78757574 204.44342891 131.39727484 205.08914793 115 216 Z M88 241 C89 243 89 243 89 243 Z M96 241 C97 243 97 243 97 243 Z M-162 250 C-162 250.66 -162 251.32 -162 252 C-162.57878906 252.24878906 -163.15757812 252.49757813 -163.75390625 252.75390625 C-171.56603556 257.08793973 -176.29208747 265.78855673 -179 274 C-182.88718878 289.4062927 -183.21090901 309.57818198 -176 324 C-175.34 324 -174.68 324 -174 324 C-173.690625 324.78375 -173.38125 325.5675 -173.0625 326.375 C-172.07124962 328.92330128 -172.07124962 328.92330128 -171 331 C-170.34 331 -169.68 331 -169 331 C-167.5393715 328.35261084 -167 327.10551666 -167 324 C-164.03 323.01 -164.03 323.01 -161 322 C-161 321.34 -161 320.68 -161 320 C-160.0925 319.9175 -159.185 319.835 -158.25 319.75 C-150.59386972 318.647393 -143.08306543 315.81788419 -136.26953125 312.203125 C-133.14968966 310.54923308 -129.97803385 309.00143908 -126.8125 307.4375 C-122.76452584 305.43359658 -118.86704652 303.3295461 -115 301 C-113.35125354 300.30752649 -111.70221696 299.61572289 -110.05078125 298.9296875 C-106.67360681 297.39870176 -103.47735645 295.54316707 -100.23828125 293.7421875 C-97.83381827 292.44859222 -95.43004555 291.20979669 -92.98046875 290.0078125 C-92.28107178 289.66451904 -91.5816748 289.32122559 -90.86108398 288.9675293 C-89.4920995 288.29958139 -88.12064462 287.63666399 -86.74633789 286.97973633 C-83.33451884 285.31292279 -80.29848061 283.54792723 -77.265625 281.25390625 C-74 279 -74 279 -70 279 C-70 277.35 -70 275.7 -70 274 C-71.70129086 273.15238178 -73.41143084 272.3225132 -75.125 271.5 C-76.07632813 271.0359375 -77.02765625 270.571875 -78.0078125 270.09375 C-83.49181992 268.08915199 -87.65216039 268.96272777 -93 271 C-93 271.66 -93 272.32 -93 273 C-94.65 273.66 -96.3 274.32 -98 275 C-98 275.66 -98 276.32 -98 277 C-99.16402344 277.34804688 -99.16402344 277.34804688 -100.3515625 277.703125 C-103.615578 279.30143347 -104.03944836 280.43622526 -105.375 283.75 C-107.43844655 288.31199685 -109.62964639 290.8989304 -113.64453125 293.84375 C-114.09183594 294.2253125 -114.53914063 294.606875 -115 295 C-115 295.66 -115 296.32 -115 297 C-115.66 297.2475 -116.32 297.495 -117 297.75 C-119.32260688 298.71775287 -121.4185859 299.75257391 -123.625 300.9375 C-133.16335322 305.73362111 -142.83521754 307.56211255 -153.1875 304.75 C-161.05007821 302.14133064 -165.66425653 298.08755106 -169.75 290.9375 C-172.00342643 285.23545963 -172.17849427 278.32314149 -170.1328125 272.5546875 C-169.16598665 270.64220717 -168.10166218 268.83610364 -167 267 C-166.67 266.01 -166.34 265.02 -166 264 C-164 262.9375 -164 262.9375 -161 262 C-159.96746094 261.66742188 -159.96746094 261.66742188 -158.9140625 261.328125 C-153.10354632 259.70197371 -150.2757588 260.10350497 -145 263 C-144.2575 263.2475 -143.515 263.495 -142.75 263.75 C-139.88544825 265.79610839 -138.90885916 268.7227998 -138 272 C-137.57806737 276.81003198 -137.98983984 280.59679203 -140 285 C-141.62746694 286.70496537 -143.28891311 288.37897032 -145 290 C-145 290.66 -145 291.32 -145 292 C-145.95712891 292.29003906 -145.95712891 292.29003906 -146.93359375 292.5859375 C-147.75988281 292.84632813 -148.58617187 293.10671875 -149.4375 293.375 C-150.26121094 293.63023437 -151.08492188 293.88546875 -151.93359375 294.1484375 C-154.17798016 294.80882227 -154.17798016 294.80882227 -155 297 C-146.30229128 301.07705096 -137.85859255 299.90844869 -129 297 C-125.38351643 295.35693415 -122.01800283 293.60447841 -119 291 C-119 290.34 -119 289.68 -119 289 C-118.01 288.67 -117.02 288.34 -116 288 C-116 287.34 -116 286.68 -116 286 C-115.34 286 -114.68 286 -114 286 C-113.35165346 284.730447 -112.70642185 283.45930294 -112.0625 282.1875 C-111.70285156 281.47980469 -111.34320313 280.77210938 -110.97265625 280.04296875 C-108.13948496 274.09217122 -108.05336255 267.60133811 -109.71875 261.265625 C-112.60519083 253.58396796 -116.57879991 247.92063401 -124 244 C-137.78776703 240.09863827 -149.94107485 242.45130276 -162 250 Z M-155 267 C-154.835 267.721875 -154.67 268.44375 -154.5 269.1875 C-153.7884707 273.18985232 -153.70939581 276.12818744 -155 280 C-157.06640625 280.94921875 -157.06640625 280.94921875 -159.5625 281.6875 C-160.80193359 282.06455078 -160.80193359 282.06455078 -162.06640625 282.44921875 C-162.70449219 282.63097656 -163.34257812 282.81273437 -164 283 C-163.80528889 284.94999129 -163.80528889 284.94999129 -163 287 C-160.73120977 288.68169101 -159.58934836 289.08508198 -156.78125 288.6796875 C-151.54480227 286.83258436 -147.60658338 285.21316675 -145 280 C-144.43090858 274.43708776 -144.43090858 274.43708776 -146.625 269.5625 C-149.4372406 267.71234171 -151.67260127 267.30249079 -155 267 Z M-160 270 C-163.31460705 271.70892499 -163.31460705 271.70892499 -163.6875 275.125 C-163.790625 276.07375 -163.89375 277.0225 -164 278 C-161.37812506 276.95125002 -160.20628639 276.35068687 -158.75 273.875 C-158.5025 273.25625 -158.255 272.6375 -158 272 C-158.66 271.34 -159.32 270.68 -160 270 Z M72 271 C73 274 73 274 73 274 Z M-189 290 C-189.639375 290.804375 -190.27875 291.60875 -190.9375 292.4375 C-193 295 -193 295 -195 296 C-195 296.66 -195 297.32 -195 298 C-195.99 298.33 -196.98 298.66 -198 299 C-199.39712274 300.95597184 -200.73779907 302.95436401 -202 305 C-200.0412957 304.85923685 -198.08303907 304.7122324 -196.125 304.5625 C-195.03445313 304.48128906 -193.94390625 304.40007812 -192.8203125 304.31640625 C-190.05271029 304.16998297 -190.05271029 304.16998297 -188 303 C-188 298.71 -188 294.42 -188 290 C-188.33 290 -188.66 290 -189 290 Z M-199 310 C-195.18765077 313.3502463 -191.66714289 315.16974789 -187 317 C-186.20046862 313.71303767 -185.90341064 312.28976808 -187 309 C-191.16138263 308.91840426 -194.9472484 309.01751476 -199 310 Z M-42.796875 319.9453125 C-44.05909526 321.1014169 -45.27505614 322.30884746 -46.45703125 323.546875 C-49.93286699 326.89990856 -53.79391443 329.55641182 -57.75 332.3125 C-58.49580322 332.83980713 -59.24160645 333.36711426 -60.01000977 333.91040039 C-63.26487701 336.19193184 -66.40432732 338.28642166 -70 340 C-70 340.66 -70 341.32 -70 342 C-70.72920654 342.28085449 -71.45841309 342.56170898 -72.2097168 342.85107422 C-74.77960528 343.90925037 -77.19113303 345.08100936 -79.64453125 346.3828125 C-80.48564453 346.82753906 -81.32675781 347.27226563 -82.19335938 347.73046875 C-83.05767578 348.19066406 -83.92199219 348.65085937 -84.8125 349.125 C-86.13797852 349.82689453 -86.13797852 349.82689453 -87.49023438 350.54296875 C-89.66135525 351.69307603 -91.8312226 352.84548146 -94 354 C-93.34 354.66 -92.68 355.32 -92 356 C-89.92195755 356.04695312 -89.92195755 356.04695312 -87.5625 355.64453125 C-86.66660156 355.51626953 -85.77070313 355.38800781 -84.84765625 355.25585938 C-83.43806641 355.03639648 -83.43806641 355.03639648 -82 354.8125 C-81.09121094 354.68552734 -80.18242187 354.55855469 -79.24609375 354.42773438 C-57.44896201 351.1876202 -33.17460374 341.4470084 -18 325 C-18 324.67 -18 324.34 -18 324 C-18.82242188 323.89042969 -19.64484375 323.78085937 -20.4921875 323.66796875 C-26.06540104 322.87639223 -31.08333896 322.05853256 -36.3125 319.9375 C-39.63885313 318.85777275 -39.63885313 318.85777275 -42.796875 319.9453125 Z" transform="translate(210,0)"/>
</svg>
