<?xml version="1.0" encoding="UTF-8"?>
<svg version="1.1" xmlns="http://www.w3.org/2000/svg" preserveAspectRatio="none">
<path d="M0 0 C1 3 1 3 0.125 5.0625 C-1.19729613 8.5151621 -1.46516458 11.63943611 -1.75390625 15.3046875 C-2 18 -2 18 -2.63671875 21.01171875 C-3.46334943 26.6778545 -2.14816275 32.34291996 -1.25 37.9375 C-1.0653418 39.14374023 -0.88068359 40.34998047 -0.69042969 41.59277344 C0.20758588 47.37016205 1.17959405 53.1173231 2.35791016 58.84399414 C5.69693007 75.07545647 5.38159204 93.30017319 -3.47265625 107.8046875 C-7.58061951 113.70922805 -14.04066712 119.603771 -21.13671875 121.6015625 C-23.0625 121.875 -23.0625 121.875 -26 122 C-25.690625 123.27875 -25.38125 124.5575 -25.0625 125.875 C-22.85550909 134.9972291 -22.86380973 144.29467832 -22.9375 153.625 C-22.94201172 154.72457031 -22.94652344 155.82414063 -22.95117188 156.95703125 C-22.96282861 159.63808003 -22.97918983 162.31900932 -23 165 C-15.05302752 165.88784131 -7.2409893 166.09639312 0.75 166 C18.64535562 165.78721337 18.64535562 165.78721337 24 169 C24 169.66 24 170.32 24 171 C25.32 171.66 26.64 172.32 28 173 C28 173.66 28 174.32 28 175 C28.99 175 29.98 175 31 175 C31 175.99 31 176.98 31 178 C31.99 178.33 32.98 178.66 34 179 C34 179.66 34 180.32 34 181 C34.66 181 35.32 181 36 181 C37.66732298 186.08136526 38.31166865 190.63482763 38.25 196 C38.25773438 196.67289063 38.26546875 197.34578125 38.2734375 198.0390625 C38.24892626 204.38747438 36.57405685 209.8683635 34.1875 215.6875 C33.84332031 216.533125 33.49914062 217.37875 33.14453125 218.25 C32.33686212 220.19061115 31.52096874 222.12780933 30.69921875 224.0625 C26.47715581 234.02607037 22.04999692 244.94422236 26.015625 255.7734375 C26.34046875 256.50820313 26.6653125 257.24296875 27 258 C27 258.66 27 259.32 27 260 C27.66 260 28.32 260 29 260 C28.08833011 264.68858801 28.08833011 264.68858801 27.46484375 266.88671875 C26.95666233 269.19702253 26.93772213 271.19983317 27 273.5625 C27.02804593 277.34870047 26.94545524 281.09671445 26.6875 284.875 C26.62949219 285.75929688 26.57148437 286.64359375 26.51171875 287.5546875 C25.91690217 290.39709346 24.83059591 291.78109587 23 294 C22.525625 295.03125 22.05125 296.0625 21.5625 297.125 C20 300 20 300 18.3125 301.375 C14.86630935 302.30640288 11.56648048 302.03613455 8 302 C8.00222061 302.89376846 8.00444122 303.78753693 8.00672913 304.70838928 C8.02689454 313.19493044 8.04205614 321.68146336 8.05181217 330.16802311 C8.05699668 334.52942502 8.06401223 338.89080689 8.07543945 343.25219727 C8.08642785 347.47325775 8.09231006 351.69429914 8.09487724 355.91537285 C8.09670311 357.51343524 8.10026733 359.11149676 8.10573006 360.70955086 C8.13531372 369.73555099 7.93392059 378.65326269 7.21531677 387.65574646 C7.06445089 389.99896278 7.00013917 392.34860257 7.00038147 394.69667053 C6.99997449 398.2208653 6.52535486 401.51952404 6 405 C6 406.32 6 407.64 6 409 C6.99 408.67 7.98 408.34 9 408 C9.33 407.01 9.66 406.02 10 405 C16.56407612 403.68718478 20.83354621 404.47346685 27 407 C27 407.66 27 408.32 27 409 C27.66 409 28.32 409 29 409 C29.12375 409.639375 29.2475 410.27875 29.375 410.9375 C29.58125 411.618125 29.7875 412.29875 30 413 C30.66 413.33 31.32 413.66 32 414 C34.78179331 419.56358662 34.22753284 425.07755259 33 431 C31.9661546 433.70867495 30.74470824 436.26434972 29.4765625 438.87109375 C22.83993078 452.9344324 19.16498033 466.5110411 23.29296875 482.04296875 C24.32085023 484.88809924 25.62966735 487.53340124 27.09765625 490.17578125 C28.05225289 492.1056368 28.51045372 493.90905658 29 496 C30.29376816 499.14200838 31.64172932 502.23706388 33.0859375 505.3125 C33.44945312 506.09625 33.81296875 506.88 34.1875 507.6875 C34.53167969 508.41324219 34.87585938 509.13898438 35.23046875 509.88671875 C36 512 36 512 36 516 C36.66 516 37.32 516 38 516 C38.19335938 516.66386719 38.38671875 517.32773437 38.5859375 518.01171875 C38.84632813 518.89472656 39.10671875 519.77773438 39.375 520.6875 C39.63023437 521.55761719 39.88546875 522.42773438 40.1484375 523.32421875 C40.95534533 525.99259212 40.95534533 525.99259212 42.02734375 528.46875 C44.95056842 536.07617807 46.42748544 545.32851128 43.140625 553.0078125 C41.4099157 556.29616018 40.60764601 557.79745133 37 559 C36.67 559.99 36.34 560.98 36 562 C26.26170976 567.55677248 16.26603719 567.2185247 5.82421875 564.42578125 C2.45546203 563.48588492 -0.89765391 562.51216457 -4.24267578 561.4909668 C-5.28536621 561.17426025 -6.32805664 560.85755371 -7.40234375 560.53125 C-8.33554443 560.23798828 -9.26874512 559.94472656 -10.23022461 559.64257812 C-13.50023919 558.7740056 -13.50023919 558.7740056 -19 559 C-19 566.26 -19 573.52 -19 581 C-16.65611052 582.17194474 -15.5838308 581.98321739 -13 581.8125 C-7.40345336 581.73112856 -2.99252975 583.63738661 2 586 C2.69480469 586.31195312 3.38960937 586.62390625 4.10546875 586.9453125 C9.20879598 589.78634003 11.34911864 594.57945908 13 600 C13.4645604 607.08786445 10.34914006 614.10128991 6.5 619.875 C2.29782934 626.33694823 0.4503463 633.30484821 1 641 C1.05414062 641.86367188 1.10828125 642.72734375 1.1640625 643.6171875 C1.42814282 647.32966541 1.42814282 647.32966541 2 651 C2.66 651.33 3.32 651.66 4 652 C5.32421875 654.328125 5.32421875 654.328125 6.6875 657.25 C7.14511719 658.20390625 7.60273437 659.1578125 8.07421875 660.140625 C9.0888426 663.27439992 8.9373252 664.88694418 8 668 C5.6875 668.625 5.6875 668.625 3 669 C2.01 668.34 1.02 667.68 0 667 C0 666.34 0 665.68 0 665 C-0.804375 664.814375 -1.60875 664.62875 -2.4375 664.4375 C-7.33565216 662.46105264 -10.93796751 659.31609562 -15 656 C-16.32 655.01 -17.64 654.02 -19 653 C-19.33 656.63 -19.66 660.26 -20 664 C-20.99 664.33 -21.98 664.66 -23 665 C-23 665.99 -23 666.98 -23 668 C-23.66 668 -24.32 668 -25 668 C-25.28875 668.7425 -25.5775 669.485 -25.875 670.25 C-26.82302644 672.56739797 -27.84845911 674.77917115 -29 677 C-29.66 677 -30.32 677 -31 677 C-31.37125 677.928125 -31.37125 677.928125 -31.75 678.875 C-33.20628639 681.35068687 -34.37812506 681.95125002 -37 683 C-37 683.66 -37 684.32 -37 685 C-42.35714286 690 -42.35714286 690 -46 690 C-46 690.66 -46 691.32 -46 692 C-52.4150557 694.87940913 -57.97047248 696.5464821 -65 697 C-65.66 695.02 -66.32 693.04 -67 691 C-66.01 690.67 -65.02 690.34 -64 690 C-63.30959426 688.34302621 -62.6469365 686.6744239 -62 685 C-61.401875 684.278125 -60.80375 683.55625 -60.1875 682.8125 C-54.12693017 675.02033879 -52.18528479 667.80324989 -52 658 C-52.66 657.67 -53.32 657.34 -54 657 C-54.34375 654.77734375 -54.34375 654.77734375 -54.5 651.9375 C-54.75246469 648.4480773 -55.08481466 645.19061061 -56 641.8125 C-59.56597044 628.2172377 -59.02958113 613.29866589 -52.109375 600.7890625 C-50.20358441 597.71563965 -48.24864754 594.84039689 -46 592 C-45.34 592 -44.68 592 -44 592 C-44 591.34 -44 590.68 -44 590 C-39.3849949 586.2326489 -35.8283647 584.51131666 -30 583 C-29.97302863 580.39576408 -29.95317511 577.79180756 -29.9375 575.1875 C-29.92912109 574.44951172 -29.92074219 573.71152344 -29.91210938 572.95117188 C-29.89740172 569.70077932 -29.96468298 567.10595105 -31 564 C-32.41764994 564.93601246 -33.83407568 565.8738792 -35.25 566.8125 C-36.43335938 567.59560547 -36.43335938 567.59560547 -37.640625 568.39453125 C-39.97999673 569.94144253 -39.97999673 569.94144253 -41.98828125 571.59375 C-49.2815742 576.6919742 -59.47017601 576.80000884 -68 576 C-73.67745381 574.82886603 -78.45747831 572.656176 -83 569 C-84.375 566.75 -84.375 566.75 -85 565 C-85.66 565 -86.32 565 -87 565 C-87.30744141 564.06027344 -87.30744141 564.06027344 -87.62109375 563.1015625 C-87.89050781 562.28429687 -88.15992188 561.46703125 -88.4375 560.625 C-88.70433594 559.81289063 -88.97117187 559.00078125 -89.24609375 558.1640625 C-89.95179729 555.98968201 -89.95179729 555.98968201 -91 554 C-92.13472748 540.06727018 -89.99387909 529.75130882 -84.14892578 517.16772461 C-79.64026224 507.16539063 -82.41027928 498.55162974 -85.80859375 488.69921875 C-88.14677956 481.43934346 -88.3339876 476.74210776 -85.25 469.8125 C-83.87326924 467.197205 -83.17993352 466.1215767 -80.6875 464.4375 C-75.79019884 463.64026493 -72.11931767 464.25378822 -68 467 C-67.20820488 461.42719198 -66.84212509 456.05038268 -66.875 450.42578125 C-66.87765869 449.54932449 -66.88031738 448.67286774 -66.88305664 447.76985168 C-66.98364435 432.44065089 -67.49600082 417.11351931 -67.92712402 401.79089355 C-68.04988085 397.40557542 -68.16931449 393.02016677 -68.2890625 388.63476562 C-68.52286576 380.08975396 -68.76023798 371.54484654 -69 363 C-70.32 363.33 -71.64 363.66 -73 364 C-84.53175517 350.90989953 -83.85240709 333.64488773 -83 317 C-82.55124731 311.63526841 -81.83195689 306.31858156 -81 301 C-82.40185547 301.27263672 -82.40185547 301.27263672 -83.83203125 301.55078125 C-88.60810913 302.22803027 -91.08267964 300.61154691 -95 298 C-95 297.34 -95 296.68 -95 296 C-95.66 296 -96.32 296 -97 296 C-101.11762239 288.1712158 -101.76549982 281.65696784 -100 273 C-98.87413594 269.59504308 -97.58775567 266.3107304 -96.2109375 263 C-91.36768981 251.00124442 -92.36107255 240.6196423 -97.32421875 228.86328125 C-100.10868065 222.68776863 -103.19999391 216.74474782 -106.484375 210.82421875 C-112.72111232 199.20266957 -116.35782446 189.30535299 -116.3125 176.125 C-116.32861328 175.19558594 -116.34472656 174.26617187 -116.36132812 173.30859375 C-116.37024445 160.52258232 -111.80627205 150.65597039 -103.4375 141.0625 C-99.93930828 138.10249162 -96.26979768 135.69261691 -92.25 133.5 C-89.87232028 132.2008445 -89.87232028 132.2008445 -89.0625 129.9375 C-88 128 -88 128 -84.875 126.75 C-83.92625 126.5025 -82.9775 126.255 -82 126 C-81.505 128.475 -81.505 128.475 -81 131 C-80.34 131 -79.68 131 -79 131 C-78.67 131.99 -78.34 132.98 -78 134 C-76.824375 134.433125 -76.824375 134.433125 -75.625 134.875 C-72.27015716 136.31278979 -71.81005257 137.88670959 -70 141 C-65.56810338 145.43189662 -60.58071035 147.82210687 -54.95703125 150.51953125 C-52.43676657 151.78132823 -50.15184828 153.12637179 -47.8125 154.6875 C-43.03926847 157.78311041 -37.73322337 160 -32 160 C-32.71967562 140.98427198 -32.71967562 140.98427198 -34 122 C-34.89589844 122.03609375 -35.79179687 122.0721875 -36.71484375 122.109375 C-43.24668312 121.89190591 -49.3402086 118.50947555 -54 114 C-54 113.34 -54 112.68 -54 112 C-54.66 112 -55.32 112 -56 112 C-58.67243437 106.62685152 -59.48403344 102.47022967 -59.375 96.5 C-59.36919922 95.71826416 -59.36339844 94.93652832 -59.35742188 94.13110352 C-59.21475923 87.61551555 -58.09763687 81.61832825 -56.6796875 75.2578125 C-54.16897516 63.22370853 -57.86406093 52.38089508 -63.59765625 41.7890625 C-65.0416197 38.91722433 -66.05423777 36.06807077 -67 33 C-66.34 32.34 -65.68 31.68 -65 31 C-59.22335439 31.07623139 -55.88534307 33.93761482 -51.625 37.4375 C-50.98433594 37.94087891 -50.34367187 38.44425781 -49.68359375 38.96289062 C-48.07629738 40.25318292 -46.53202568 41.62117689 -45 43 C-45 43.66 -45 44.32 -45 45 C-44.34 45 -43.68 45 -43 45 C-43 45.66 -43 46.32 -43 47 C-41.515 47.495 -41.515 47.495 -40 48 C-38.41034429 50.21701147 -37.27672514 52.57862473 -36 55 C-33.79159309 52.15753548 -33.79159309 52.15753548 -33.5625 48.875 C-32.90070786 44.31598745 -31.54900689 40.32091397 -30 36 C-29.66484375 35.01515625 -29.3296875 34.0303125 -28.984375 33.015625 C-28.63890625 32.02046875 -28.2934375 31.0253125 -27.9375 30 C-27.61652344 29.071875 -27.29554688 28.14375 -26.96484375 27.1875 C-26 25 -26 25 -24 24 C-23.34227572 20.97065509 -23.34227572 20.97065509 -23 18 C-22.34 18 -21.68 18 -21 18 C-20.62875 16.6696875 -20.62875 16.6696875 -20.25 15.3125 C-18.53180481 10.75928274 -15.68195339 7.17986884 -12 4 C-11.34 4 -10.68 4 -10 4 C-10 3.34 -10 2.68 -10 2 C-6.37626474 -0.79545292 -4.37834956 -1.37605272 0 0 Z M-6 62 C-9.96 63.32 -13.92 64.64 -18 66 C-17.67 66.66 -17.34 67.32 -17 68 C-16.34 68 -15.68 68 -15 68 C-12.94236222 73.9361217 -12.69718921 79.30882192 -12.75 85.5625 C-12.74226562 86.48224609 -12.73453125 87.40199219 -12.7265625 88.34960938 C-12.74090101 93.33582479 -13.15562861 97.30193588 -15 102 C-15.16857483 104.75065232 -15.16857483 104.75065232 -15 107 C-15.99 107.495 -15.99 107.495 -17 108 C-13.18291355 108.41961449 -13.18291355 108.41961449 -11.4375 106.734375 C-3.97610251 96.43440238 -1.93166827 81.29472171 -3.640625 68.921875 C-3.75921875 68.28765625 -3.8778125 67.6534375 -4 67 C-4.99 67.33 -5.98 67.66 -7 68 C-7.99 67.67 -8.98 67.34 -10 67 C-8.35 66.34 -6.7 65.68 -5 65 C-5.33 64.01 -5.66 63.02 -6 62 Z M-29 68 C-29.268125 69.134375 -29.53625 70.26875 -29.8125 71.4375 C-31 75 -31 75 -33.625 76.4375 C-34.40875 76.623125 -35.1925 76.80875 -36 77 C-36 77.99 -36 78.98 -36 80 C-36.99 80 -37.98 80 -39 80 C-39.88556744 81.68973726 -39.88556744 81.68973726 -40 84 C-38.23084477 87.11211359 -38.23084477 87.11211359 -36 90 C-35.34 90.99 -34.68 91.98 -34 93 C-25.51649684 81.52828531 -25.51649684 81.52828531 -22 68 C-25.58327753 66.99782936 -25.58327753 66.99782936 -29 68 Z M-21 85 C-21.24234375 85.51949219 -21.4846875 86.03898437 -21.734375 86.57421875 C-23.3185349 89.87048993 -24.7427222 92.69732024 -27.125 95.5 C-29.66520802 98.88694403 -30.15965517 101.86830459 -31 106 C-33.875 105.75 -33.875 105.75 -37 105 C-38.375 102.9375 -38.375 102.9375 -39 101 C-40.49649163 104.49181381 -41.1012365 106.47357021 -40.375 110.25 C-39.23252181 112.98632225 -39.23252181 112.98632225 -37.375 114.375 C-35.04447489 114.98829608 -33.24665805 115.06335353 -30.8515625 115.0390625 C-29.58054687 115.02617187 -28.30953125 115.01328125 -27 115 C-20.73020693 100.51189321 -20.73020693 100.51189321 -20 85 C-20.33 85 -20.66 85 -21 85 Z M-51 87 C-53.03531267 92.68139426 -52.87999988 99.61283048 -50.5 105.125 C-50.005 106.07375 -49.51 107.0225 -49 108 C-48.34 108 -47.68 108 -47 108 C-46.49772952 104.54199242 -45.99856919 101.08354301 -45.5 97.625 C-45.28537109 96.14773438 -45.28537109 96.14773438 -45.06640625 94.640625 C-44.93105469 93.69960938 -44.79570312 92.75859375 -44.65625 91.7890625 C-44.53056641 90.91975098 -44.40488281 90.05043945 -44.27539062 89.15478516 C-43.95774231 87.03140807 -43.95774231 87.03140807 -44 85 C-46.75474605 85 -48.55683729 85.74709605 -51 87 Z M-92 139 C-94.0399719 140.36323743 -94.0399719 140.36323743 -96 142 C-96 142.66 -96 143.32 -96 144 C-96.99 144.33 -97.98 144.66 -99 145 C-99 145.66 -99 146.32 -99 147 C-99.66 147 -100.32 147 -101 147 C-107.99652036 155.98438966 -111.08041257 166.71155139 -110 178 C-109.5727034 180.87713043 -108.95932537 183.22300551 -108 186 C-107.01 186.33 -106.02 186.66 -105 187 C-105 186.34 -105 185.68 -105 185 C-103.53633658 185.39753821 -102.0791065 185.81881384 -100.625 186.25 C-99.81289063 186.48203125 -99.00078125 186.7140625 -98.1640625 186.953125 C-95.50726784 188.23836141 -95.03804841 189.29478294 -94 192 C-93.67 192.66 -93.34 193.32 -93 194 C-94.03125 193.484375 -95.0625 192.96875 -96.125 192.4375 C-99.73052374 190.86604974 -102.15678443 190.96889338 -106 192 C-105.50866347 195.14455381 -104.70861143 198.1171609 -103.6875 201.125 C-103.46449219 201.78757812 -103.24148438 202.45015625 -103.01171875 203.1328125 C-102.09032309 205.15643604 -102.09032309 205.15643604 -99.98828125 206.44921875 C-97.50802546 208.38372081 -97.22120844 209.66506725 -96.5 212.6875 C-94.60940332 219.73387762 -94.60940332 219.73387762 -91 226 C-88.94206592 226.75886548 -88.94206592 226.75886548 -87 227 C-87 226.34 -87 225.68 -87 225 C-85.68 225 -84.36 225 -83 225 C-82.773125 224.360625 -82.54625 223.72125 -82.3125 223.0625 C-81 221 -81 221 -78.4375 220.1875 C-77.633125 220.125625 -76.82875 220.06375 -76 220 C-74.41727399 221.58272601 -74.65264253 223.38034003 -74.4375 225.5625 C-74.35371094 226.38878906 -74.26992188 227.21507812 -74.18359375 228.06640625 C-74.12300781 228.70449219 -74.06242187 229.34257813 -74 230 C-69.81861997 223.72792996 -71.9809655 214.73012731 -73.328125 207.6484375 C-74.24183427 204.04672303 -74.95038426 202.21097141 -78 200 C-81.33557932 199.3181992 -84.60018199 199.07137023 -88 199 C-87.67 198.34 -87.34 197.68 -87 197 C-85.68 197 -84.36 197 -83 197 C-83 196.34 -83 195.68 -83 195 C-81.8553125 194.8453125 -81.8553125 194.8453125 -80.6875 194.6875 C-77.82940576 193.95635961 -76.84257115 193.23048087 -75 191 C-75.94875 190.175 -76.8975 189.35 -77.875 188.5 C-78.40867187 188.0359375 -78.94234375 187.571875 -79.4921875 187.09375 C-80.95936421 185.80427542 -80.95936421 185.80427542 -83 186 C-83.33 185.01 -83.66 184.02 -84 183 C-87.21717354 180.6699963 -87.21717354 180.6699963 -91 180 C-91 178.35 -91 176.7 -91 175 C-84.78325258 177.21274061 -79.72225555 179.27774445 -75 184 C-74.34 184 -73.68 184 -73 184 C-73 184.66 -73 185.32 -73 186 C-72.44828125 185.69320312 -71.8965625 185.38640625 -71.328125 185.0703125 C-68.79459879 183.90557059 -66.48828238 183.37942044 -63.75 182.875 C-62.85796875 182.70742188 -61.9659375 182.53984375 -61.046875 182.3671875 C-60.37140625 182.24601562 -59.6959375 182.12484375 -59 182 C-59 182.66 -59 183.32 -59 184 C-55.12315913 185.19287411 -52.08378077 186 -48 186 C-48 186.66 -48 187.32 -48 188 C-41.71724311 190.64472478 -41.71724311 190.64472478 -35 191 C-35 191.66 -35 192.32 -35 193 C-28.64416673 192.13329546 -22.32448699 191.06965872 -16 190 C-16 189.67 -16 189.34 -16 189 C-16.589021 188.95512451 -17.17804199 188.91024902 -17.78491211 188.86401367 C-20.50350163 188.65018006 -23.22035495 188.41894026 -25.9375 188.1875 C-26.86369141 188.11724609 -27.78988281 188.04699219 -28.74414062 187.97460938 C-34.17790334 187.49796352 -38.95371407 186.56980473 -44.07250977 184.67724609 C-46.10175485 183.90008379 -46.10175485 183.90008379 -48.75 183.55859375 C-51.858416 182.78688631 -53.59137257 181.14370464 -56 179.0625 C-59.23390295 176.27831168 -61.94661568 174.38249358 -66 173 C-66 172.34 -66 171.68 -66 171 C-66.99 170.67 -67.98 170.34 -69 170 C-69.99 170.495 -69.99 170.495 -71 171 C-71 170.34 -71 169.68 -71 169 C-73.31 168.34 -75.62 167.68 -78 167 C-78 166.34 -78 165.68 -78 165 C-77.34 165 -76.68 165 -76 165 C-76 164.34 -76 163.68 -76 163 C-76.66 163 -77.32 163 -78 163 C-77.505 161.515 -77.505 161.515 -77 160 C-78.98 159.34 -80.96 158.68 -83 158 C-83.495 155.525 -83.495 155.525 -84 153 C-84.66 153 -85.32 153 -86 153 C-85.73672346 159.45027515 -83.49335977 162.47915791 -79 167 C-81.64 166.67 -84.28 166.34 -87 166 C-87.2475 165.236875 -87.495 164.47375 -87.75 163.6875 C-88.77924709 160.89180331 -88.77924709 160.89180331 -91.125 159.5 C-93 158 -93 158 -93.3125 155.375 C-93 153 -93 153 -92 152 C-91.95919217 150.00041636 -91.95745644 147.99954746 -92 146 C-91.34 145.67 -90.68 145.34 -90 145 C-90.33 144.01 -90.66 143.02 -91 142 C-91.33 141.01 -91.66 140.02 -92 139 Z M-9 186 C-10.98 186.66 -12.96 187.32 -15 188 C-15.16677282 191.41656024 -15.16677282 191.41656024 -15 195 C-12.22957891 197.77042109 -10.23466195 197.39796106 -6.375 197.625 C-5.18648437 197.69976562 -3.99796875 197.77453125 -2.7734375 197.8515625 C-1.85820313 197.90054688 -0.94296875 197.94953125 0 198 C-0.495 198.45375 -0.99 198.9075 -1.5 199.375 C-3.22609337 200.87635519 -3.22609337 200.87635519 -3 203 C-1.73542969 203.30744141 -1.73542969 203.30744141 -0.4453125 203.62109375 C0.65039062 203.89050781 1.74609375 204.15992188 2.875 204.4375 C3.96554687 204.70433594 5.05609375 204.97117187 6.1796875 205.24609375 C9 206 9 206 11 207 C9.84705882 216.88235294 9.84705882 216.88235294 9 219 C7.515 219.495 7.515 219.495 6 220 C6 223.96 6 227.92 6 232 C6.33 232 6.66 232 7 232 C7 230.02 7 228.04 7 226 C7.78375 225.9175 8.5675 225.835 9.375 225.75 C10.24125 225.5025 11.1075 225.255 12 225 C12.68486725 223.67592331 13.34870203 222.34090759 14 221 C19.33333333 217 19.33333333 217 22 217 C22.66 217.66 23.32 218.32 24 219 C24.66 217.02 25.32 215.04 26 213 C24.68 212.67 23.36 212.34 22 212 C22.20625 211.2575 22.4125 210.515 22.625 209.75 C23.04408751 206.67669159 22.61949011 205.57213134 21 203 C21.763125 203.495 22.52625 203.99 23.3125 204.5 C25.92363751 206.24368308 25.92363751 206.24368308 29 206 C30.59162079 200.42932723 31.20674944 195.78898419 31 190 C27.95086772 188.98888907 27.95086772 188.98888907 25 190 C24.505 189.01 24.505 189.01 24 188 C23.01 188.66 22.02 189.32 21 190 C19.5459375 188.9790625 19.5459375 188.9790625 18.0625 187.9375 C13.60867947 185.36135941 9.87797207 185.89394819 5 187 C4.01 187.33 3.02 187.66 2 188 C0.27204648 188.06802967 -1.45835365 188.08495645 -3.1875 188.0625 C-4.08855469 188.05347656 -4.98960937 188.04445313 -5.91796875 188.03515625 C-6.60503906 188.02355469 -7.29210937 188.01195312 -8 188 C-8.33 187.34 -8.66 186.68 -9 186 Z M-79 196 C-78 199 -78 199 -78 199 Z M-66 202 C-66.80484678 207.42055826 -67.03288613 212.33687974 -66.66015625 217.83203125 C-66.61434921 218.54928879 -66.56854218 219.26654633 -66.52134705 220.00553894 C-66.37546807 222.27505699 -66.21969283 224.54373994 -66.0625 226.8125 C-65.86124883 229.79788625 -65.66462505 232.78353382 -65.47265625 235.76953125 C-65.42622482 236.48969421 -65.3797934 237.20985718 -65.33195496 237.95184326 C-65.03265339 242.82958442 -64.93549728 247.67151212 -64.98950195 252.55639648 C-65.00681849 256.58712321 -64.78385996 260.60145727 -64.5625 264.625 C-64.49482422 265.924375 -64.49482422 265.924375 -64.42578125 267.25 C-64.21746069 271.19651724 -63.99541359 275.14179541 -63.74609375 279.0859375 C-63.097871 289.39576594 -62.70140196 299.70335092 -62.39257812 310.02929688 C-62.23064086 315.07208009 -62.0383023 320.06736393 -61.46875 325.08203125 C-60.84370209 330.80990089 -60.9362409 336.49490252 -61 342.25 C-61.06762527 353.67867002 -60.84614433 365.07723723 -60.5 376.5 C-60.04839051 391.46373186 -59.90101978 406.40608551 -60.05603027 421.37609863 C-60.07375352 427.75078429 -59.91440683 434.05154209 -59.50219727 440.41064453 C-58.9577274 449.52317045 -58.87036521 458.60046239 -58.90234375 467.7265625 C-58.9042165 469.33751379 -58.90563633 470.94846566 -58.90663147 472.55941772 C-58.91038931 476.73162502 -58.92015912 480.90379564 -58.93133545 485.07598877 C-58.94169727 489.36054997 -58.94616022 493.64511729 -58.95117188 497.9296875 C-58.96178988 506.28647488 -58.97878163 514.64323283 -59 523 C-53.7374707 521.87390793 -50.92576013 519.2600624 -47.75 514.9375 C-45.26758319 510.77058607 -44.88461238 507.95326202 -44.9375 503.1875 C-44.94523437 502.02863281 -44.95296875 500.86976563 -44.9609375 499.67578125 C-44.98664711 497.25650687 -45.01268009 494.83723589 -45.0390625 492.41796875 C-45.17295541 472.17782411 -45.17295541 472.17782411 -40 463 C-40 462.34 -40 461.68 -40 461 C-29.00742115 457.92207792 -29.00742115 457.92207792 -25 460 C-23.875 462.25 -23.875 462.25 -23 465 C-22.65686768 465.74064697 -22.31373535 466.48129395 -21.96020508 467.24438477 C-20.79946004 470.57551349 -20.76052786 473.31455721 -20.76171875 476.83984375 C-20.73754883 478.8053418 -20.73754883 478.8053418 -20.71289062 480.81054688 C-20.69644974 482.87547255 -20.68750737 484.93965295 -20.69458008 487.00463867 C-21.08528409 496.04771993 -21.08528409 496.04771993 -17.45703125 503.94140625 C-16.24080078 504.96041016 -16.24080078 504.96041016 -15 506 C-10.13433254 504.57590221 -6.13138735 502.91627343 -2 500 C-0.6705097 495.05504775 -0.8547542 489.95426369 -0.8671875 484.8671875 C-0.86575241 483.55755539 -0.86575241 483.55755539 -0.86428833 482.22146606 C-0.86360985 480.37746102 -0.86544092 478.53345354 -0.86962891 476.68945312 C-0.87494296 473.90489145 -0.86969273 471.12049394 -0.86328125 468.3359375 C-0.86120293 459.9034368 -0.91026735 451.57402863 -1.88330078 443.18408203 C-2 441 -2 441 -1 438 C-0.92662558 435.35907127 -0.90828763 432.74541301 -0.9375 430.10546875 C-0.94128662 429.32166336 -0.94507324 428.53785797 -0.94897461 427.7303009 C-0.96521682 424.38662132 -0.99294794 421.04306561 -1.02050781 417.69946289 C-1.0883977 408.68708095 -0.99617068 399.79992037 -0.25830078 390.81079102 C0.32667165 382.18051247 0.39376453 373.5215739 0.5625 364.875 C0.58401123 363.84007416 0.60552246 362.80514832 0.62768555 361.73886108 C0.98728737 344.27561395 1.08527889 326.81943955 0.96313477 309.35302734 C0.91775159 301.25030939 0.9434164 293.28642635 1.87890625 285.22143555 C2.02325265 281.38141398 1.63735379 277.70074905 1.25585938 273.8815155 C0.86427327 269.47143108 0.78721962 265.06958362 0.71875 260.64453125 C0.70034058 259.69922043 0.68193115 258.75390961 0.66296387 257.779953 C0.60493484 254.79085742 0.55187662 251.80170824 0.5 248.8125 C0.27298003 235.84796212 -0.03561951 222.93370002 -1 210 C-4.53061582 209.80417706 -4.53061582 209.80417706 -7.75 211 C-11.4312031 216.88992495 -9.79494291 224.46661862 -9.26879883 231.04760742 C-8.89196844 236.48125855 -9.4264403 240.81650924 -11 246 C-11.66 246 -12.32 246 -13 246 C-13.495 246.99 -13.495 246.99 -14 248 C-18.21439754 250.59489106 -22.18856506 250.63484211 -27 250 C-30.46531691 248.58820422 -32.21141076 247.35626164 -34.1015625 244.10546875 C-36.65342971 237.59265984 -35.79796396 231.60132356 -34.6015625 224.88989258 C-33.85872895 220.51733852 -33.85872895 220.51733852 -35.4375 216.4921875 C-35.953125 215.99976563 -36.46875 215.50734375 -37 215 C-38.65 215.33 -40.3 215.66 -42 216 C-42.23074219 216.91523438 -42.46148437 217.83046875 -42.69921875 218.7734375 C-43.02535156 219.96195313 -43.35148437 221.15046875 -43.6875 222.375 C-44.00074219 223.55835938 -44.31398438 224.74171875 -44.63671875 225.9609375 C-46 229 -46 229 -48.46875 230.40625 C-51.07580877 231.0177823 -53.33191165 231.15246219 -56 231 C-57.82240368 226.9907119 -58.44649409 223.35885902 -59 219 C-59.32447188 216.91526815 -59.65844139 214.83200063 -60 212.75 C-60.165 211.73421875 -60.33 210.7184375 -60.5 209.671875 C-60.95368099 206.91174063 -60.95368099 206.91174063 -62 204 C-62.66 204 -63.32 204 -64 204 C-64 203.34 -64 202.68 -64 202 C-64.66 202 -65.32 202 -66 202 Z M-73 232 C-72 234 -72 234 -72 234 Z M15 486 C15 486.66 15 487.32 15 488 C14.34 488 13.68 488 13 488 C12.01 489.485 12.01 489.485 11 491 C8.375 491.6875 8.375 491.6875 6 492 C4.98459888 496.10223585 4.98459888 496.10223585 6 500 C7.84971696 501.05021103 7.84971696 501.05021103 10 502 C13.88888889 503.77777778 13.88888889 503.77777778 15 506 C15.66 506 16.32 506 17 506 C17.12375 506.70125 17.2475 507.4025 17.375 508.125 C17.92091494 510.99855769 17.92091494 510.99855769 19.015625 513.60546875 C20.25375642 517.87505686 20.38202356 521.76397253 20.375 526.1875 C20.37693359 527.44300659 20.37693359 527.44300659 20.37890625 528.72387695 C20.26558986 535.38572153 19.0173419 541.00572702 16 547 C16.99 547.33 17.98 547.66 19 548 C18.79375 548.5775 18.5875 549.155 18.375 549.75 C17.91338739 552.51967567 18.57055055 553.64561267 20 556 C19.34 556 18.68 556 18 556 C18 556.66 18 557.32 18 558 C26.06637667 557.70959434 26.06637667 557.70959434 33 554 C37.30880717 548.12911919 36.57675843 541.99124745 36 535 C35.33834307 531.81158075 34.32153224 528.97062375 33 526 C32.69835937 525.32195313 32.39671875 524.64390625 32.0859375 523.9453125 C31.43008833 522.48964727 30.76836624 521.0366174 30.1015625 519.5859375 C28.75133923 516.41626443 27.63097238 513.19164752 26.5 509.9375 C24.90061632 505.36993495 23.1889903 501.07813511 20.90625 496.81640625 C19.88878443 494.77708948 19.13281704 492.71091132 18.375 490.5625 C17.43505738 486.93694489 17.43505738 486.93694489 15 486 Z M-5 509 C-5.80528889 511.05000871 -5.80528889 511.05000871 -6 513 C-6.66 513 -7.32 513 -8 513 C-9.02196992 513.97753644 -10.01979625 514.9805881 -11 516 C-14.0717247 518.04781647 -15.46378457 518.3491032 -19 519 C-21.84505118 519.74970943 -24.67077526 520.56784145 -27.5 521.375 C-34.05945113 523.23427752 -40.61305983 524.8802761 -47.30078125 526.2265625 C-50.08939994 526.89518495 -50.08939994 526.89518495 -52.59765625 528.59375 C-55.20861881 530.12211833 -56.19847185 530.23077401 -59.125 529.875 C-61.043125 529.936875 -61.043125 529.936875 -63 530 C-65.02829372 532.40859879 -66 533.83044309 -66 537 C-66.99 537.33 -67.98 537.66 -69 538 C-69 538.66 -69 539.32 -69 540 C-69.969375 540.12375 -70.93875 540.2475 -71.9375 540.375 C-72.948125 540.58125 -73.95875 540.7875 -75 541 C-75.33 541.66 -75.66 542.32 -76 543 C-77.97888961 543.72693904 -79.97954558 544.39816251 -82 545 C-83.72805471 551.62420971 -81.84964058 555.92158211 -79 562 C-78.34 562 -77.68 562 -77 562 C-77 562.66 -77 563.32 -77 564 C-69.31868959 567.50368542 -69.31868959 567.50368542 -61 568 C-61.66 567.01 -62.32 566.02 -63 565 C-63.38499891 563.34450469 -63.72793135 561.6777567 -64 560 C-64.99 560 -65.98 560 -67 560 C-65.45713631 552.4399679 -61.35445815 548.30650777 -56 543 C-56.33 542.34 -56.66 541.68 -57 541 C-56.34 541 -55.68 541 -55 541 C-55 541.66 -55 542.32 -55 543 C-53.32171592 543.96624167 -53.32171592 543.96624167 -51 544 C-49.55908117 542.7818822 -48.12002917 541.56141746 -46.69482422 540.32495117 C-38.77819922 534.13602523 -27.77262948 532.04388905 -18 532 C-17.24203125 531.98582031 -16.4840625 531.97164062 -15.703125 531.95703125 C-14.13542962 531.9413543 -12.56736902 531.96437798 -11 532 C-10.505 532.99 -10.505 532.99 -10 534 C-8.35636866 534.72159424 -6.68949614 535.39351421 -5 536 C-5 536.66 -5 537.32 -5 538 C-4.02149805 539.02104551 -3.02019573 540.0206121 -2 541 C-1.67 541.66 -1.34 542.32 -1 543 C0.32 543 1.64 543 3 543 C3.33 543.66 3.66 544.32 4 545 C5.32 545 6.64 545 8 545 C8.99 545 9.98 545 11 545 C13.54358422 539.08515733 14.47289869 534.34986407 14.375 527.9375 C14.38660156 527.17373047 14.39820313 526.40996094 14.41015625 525.62304688 C14.37801805 519.36145433 12.98935926 514.79983896 9.3125 509.625 C5.21309787 506.74433905 -0.88154852 505.54050075 -5 509 Z M11 545 C12 547 12 547 12 547 Z M-61 566 C-60.67 566.66 -60.34 567.32 -60 568 C-59.34 568 -58.68 568 -58 568 C-58 567.34 -58 566.68 -58 566 C-58.99 566 -59.98 566 -61 566 Z M-20 589 C-20.71692843 594.14336228 -20.71692843 594.14336228 -18.734375 598.65625 C-17.65675618 599.63970796 -16.56798412 600.61107518 -15.46875 601.5703125 C-12.46429072 604.49486594 -12.06389287 607.97771403 -11.8125 612 C-12 615 -12 615 -12.5625 617.875 C-13.29890725 623.13505176 -12.88094721 628.39048447 -10 633 C-9.01 633 -8.02 633 -7 633 C-6.32968281 631.0429132 -5.66385317 629.08428887 -5 627.125 C-4.62875 626.03445313 -4.2575 624.94390625 -3.875 623.8203125 C-2.901228 621.17379146 -2.901228 621.17379146 -3 619 C-2.34 619 -1.68 619 -1 619 C0.01680643 616.98757061 1.01273789 614.9645868 2 612.9375 C2.556875 611.81214844 3.11375 610.68679688 3.6875 609.52734375 C5.10971696 605.70513568 5.38696323 603.04376571 5 599 C1.80004586 593.90007309 -2.15115766 590.65479442 -8 589 C-12.02606407 588.69372273 -15.97203389 588.75832203 -20 589 Z M-38 595 C-46.88485754 604.10697898 -50.66161037 616.22730755 -51.09765625 628.8203125 C-50.84883115 632.49806888 -50.26141403 634.67521287 -47.9375 637.5625 C-47.298125 638.036875 -46.65875 638.51125 -46 639 C-42.97078828 638.28476069 -42.97078828 638.28476069 -40 636 C-38.51154124 632.43108185 -37.73721778 628.78685969 -37 625 C-36.80148437 624.11699219 -36.60296875 623.23398437 -36.3984375 622.32421875 C-35.8881036 619.34727102 -36.47581811 616.97036407 -37 614 C-37.6129665 608.57086817 -37.41813148 606.04789191 -34.125 601.625 C-32.48980013 599.64222141 -30.81811708 597.81811708 -29 596 C-29 594.68 -29 593.36 -29 592 C-33.42565546 592 -34.5173193 592.45169705 -38 595 Z M-27 602 C-29.82329519 605.32152375 -31.27244992 607.85408136 -31.3125 612.1875 C-31.15855415 615.92045382 -31.15855415 615.92045382 -30 619 C-29.278125 618.938125 -28.55625 618.87625 -27.8125 618.8125 C-24.47141026 619.03523932 -22.72967245 620.1282246 -20 622 C-18.54945062 616.85288931 -17.78616656 611.26214413 -20.375 606.4375 C-21.88807063 604.77914204 -21.88807063 604.77914204 -24 605 C-24.33 604.01 -24.66 603.02 -25 602 C-25.66 602 -26.32 602 -27 602 Z M-26 628 C-27.485 631.465 -27.485 631.465 -29 635 C-25.7 634.67 -22.4 634.34 -19 634 C-19.66 633.67 -20.32 633.34 -21 633 C-21.33 632.01 -21.66 631.02 -22 630 C-22.66 630 -23.32 630 -24 630 C-24 629.34 -24 628.68 -24 628 C-24.66 628 -25.32 628 -26 628 Z " transform="translate(115,0)"/>
<path d="M0 0 C0.33663062 3.70293685 0.47736015 5.39534381 -1.875 8.375 C-4 10 -4 10 -6 10 C-6 10.66 -6 11.32 -6 12 C-8 13.33333333 -10 14.66666667 -12 16 C-12 16.66 -12 17.32 -12 18 C-12.66 18 -13.32 18 -14 18 C-14.309375 18.78375 -14.61875 19.5675 -14.9375 20.375 C-16 23 -16 23 -17 25 C-17.66 25 -18.32 25 -19 25 C-19.23999049 28.07392075 -19.47668196 31.14799397 -19.70703125 34.22265625 C-19.89678852 36.66926 -20.10156469 39.1147642 -20.32421875 41.55859375 C-20.8954186 48.21270114 -20.95619342 54.46485464 -20.25390625 61.10546875 C-19.91614011 64.95600271 -19.97056662 68.7637982 -20.0625 72.625 C-20.00175269 74.93339788 -19.56114628 76.77268091 -19 79 C-18.04990826 96.9958554 -22.98349287 114.03792829 -31 130 C-31.66 130 -32.32 130 -33 130 C-33.20625 130.825 -33.4125 131.65 -33.625 132.5 C-35.35020787 136.89143822 -37.77469061 140.54681549 -41 144 C-41.66 144 -42.32 144 -43 144 C-43.2578125 144.59296875 -43.515625 145.1859375 -43.78125 145.796875 C-45.09769895 148.17660965 -46.42580782 149.50978792 -48.5 151.25 C-49.1084375 151.77078125 -49.716875 152.2915625 -50.34375 152.828125 C-52 154 -52 154 -54 154 C-54 154.66 -54 155.32 -54 156 C-66.19508604 162.44124586 -79.1395282 167.62336803 -93.12109375 164.24609375 C-100.61301802 161.76177556 -100.61301802 161.76177556 -101.9921875 159.046875 C-102 157 -102 157 -100.8515625 155.19921875 C-99 154 -99 154 -96.8359375 154.14453125 C-95.61777344 154.47517578 -95.61777344 154.47517578 -94.375 154.8125 C-82.76367504 157.52180916 -72.45553658 155.73040452 -62.03125 150.0234375 C-60 149 -60 149 -58 149 C-58 148.34 -58 147.68 -58 147 C-57.195625 146.525625 -56.39125 146.05125 -55.5625 145.5625 C-42.25700238 137.01567447 -33.25639424 117.60078637 -29.875 102.75 C-29.70395752 102.00709717 -29.53291504 101.26419434 -29.35668945 100.4987793 C-26.72112008 88.77927287 -26.72112008 88.77927287 -28 77 C-28.66 76.67 -29.32 76.34 -30 76 C-30 76.99 -30 77.98 -30 79 C-36.41104814 81.92149029 -42.94189332 81.82931707 -49.6875 80 C-50.450625 79.67 -51.21375 79.34 -52 79 C-52.66 80.65 -53.32 82.3 -54 84 C-54.66 84 -55.32 84 -56 84 C-56.495 85.98 -56.495 85.98 -57 88 C-57.66 88 -58.32 88 -59 88 C-59.495 89.485 -59.495 89.485 -60 91 C-65.02894352 94.55705762 -71.03722507 96.67105814 -77.19140625 95.62890625 C-83.21833237 93.98705328 -87.30477595 91.02710697 -91 86 C-93.532072 81.33233702 -94.25322497 77.31772446 -94 72 C-94.33 71.34 -94.66 70.68 -95 70 C-96.485 70.495 -96.485 70.495 -98 71 C-98.4021875 71.8971875 -98.4021875 71.8971875 -98.8125 72.8125 C-100.57278282 76.05512624 -102.78644747 77.26962556 -106 79 C-109.375 79.25 -109.375 79.25 -112 79 C-112 79.66 -112 80.32 -112 81 C-113.62490954 81.02698189 -115.24994633 81.04638757 -116.875 81.0625 C-118.23238281 81.07990234 -118.23238281 81.07990234 -119.6171875 81.09765625 C-122 81 -122 81 -124 80 C-124 79.34 -124 78.68 -124 78 C-125.32 78 -126.64 78 -128 78 C-128 76.35 -128 74.7 -128 73 C-131.33673437 74.07303876 -134.66866917 75.16031235 -138 76.25 C-139.40185547 76.70052734 -139.40185547 76.70052734 -140.83203125 77.16015625 C-151.20222632 80.19410547 -151.20222632 80.19410547 -159 87 C-159.66 87 -160.32 87 -161 87 C-161.34274406 88.66475686 -161.67364302 90.33195323 -162 92 C-162.2475 92.9075 -162.495 93.815 -162.75 94.75 C-163.09522527 99.23792848 -161.84955576 102.92608863 -160 107 C-155.97717249 111.02282751 -152.52935211 113.45692499 -147 115 C-147.33 116.65 -147.66 118.3 -148 120 C-150.58041236 120.96765464 -152.35779036 121.23399322 -154.97265625 120.28125 C-158.52346418 118.52907562 -162.06640155 116.68913191 -165 114 C-165 113.34 -165 112.68 -165 112 C-165.66 111.67 -166.32 111.34 -167 111 C-171.1891385 104.46987233 -172.16240423 98.69353988 -171 91 C-169.74855063 87.38417109 -168.29074118 84.07798181 -166 81 C-164.515 80.505 -164.515 80.505 -163 80 C-163 79.34 -163 78.68 -163 78 C-140.3318921 66.29046205 -140.3318921 66.29046205 -133 67 C-133 66.34 -133 65.68 -133 65 C-132.30132813 64.69707031 -131.60265625 64.39414062 -130.8828125 64.08203125 C-129.97273437 63.66308594 -129.06265625 63.24414062 -128.125 62.8125 C-127.22007812 62.40644531 -126.31515625 62.00039063 -125.3828125 61.58203125 C-122.4573756 59.63973298 -121.89306969 58.35774247 -121 55 C-120.20353698 48.56623382 -121.07918777 43.72479197 -124 38 C-124.33 37.01 -124.66 36.02 -125 35 C-125.66 35 -126.32 35 -127 35 C-127.66 34.34 -128.32 33.68 -129 33 C-134.06442962 28.19528472 -139.59018754 25.68025966 -146 23 C-146 20.69 -146 18.38 -146 16 C-140.90168284 13.95251583 -136.46914939 13.65141923 -131.0625 13.6875 C-130.23218262 13.69023926 -129.40186523 13.69297852 -128.54638672 13.69580078 C-119.07820881 13.85351311 -109.75220317 15.23032448 -101 19 C-101 19.66 -101 20.32 -101 21 C-99.35 21.33 -97.7 21.66 -96 22 C-96 22.66 -96 23.32 -96 24 C-94.515 24.495 -94.515 24.495 -93 25 C-93 25.99 -93 26.98 -93 28 C-91.515 28.495 -91.515 28.495 -90 29 C-85.39741787 35.53884082 -85.2008908 43.28396682 -85 51 C-84.97164062 52.05832031 -84.94328125 53.11664063 -84.9140625 54.20703125 C-84.81673052 61.63346105 -84.81673052 61.63346105 -86 64 C-85.82473753 66.46827978 -85.57674521 68.86424478 -85.25 71.3125 C-85.17523437 71.97701172 -85.10046875 72.64152344 -85.0234375 73.32617188 C-84.47318261 77.54062414 -83.55719636 80.59247378 -81 84 C-76.95398061 86.69734626 -73.74576236 86.43218852 -69 86 C-66.06919326 85.13346586 -66.06919326 85.13346586 -64 84 C-64 83.34 -64 82.68 -64 82 C-63.34 82 -62.68 82 -62 82 C-61.87625 81.195625 -61.7525 80.39125 -61.625 79.5625 C-61 76 -61 76 -60 72.1875 C-58.73535718 66.74485199 -58.57097324 61.24047155 -58.34179688 55.67651367 C-58.09643621 50.09643621 -58.09643621 50.09643621 -57 49 C-56.97942977 47.60416276 -57.00875806 46.20745395 -57.0625 44.8125 C-57.10710194 40.78558228 -56.50850939 37.77127348 -55 34 C-54.71125 33.06414062 -54.4225 32.12828125 -54.125 31.1640625 C-49.26047797 17.48259429 -38.66413944 9.18779471 -26 3 C-17.7226357 -0.05660083 -8.71885155 -2.01204267 0 0 Z M-33 67 C-33 67.66 -33 68.32 -33 69 C-34.98 69.99 -34.98 69.99 -37 71 C-32.34947128 71.26932521 -32.34947128 71.26932521 -28 70 C-28 68.02 -28 66.04 -28 64 C-30.04552042 64 -31.51557906 65.7550018 -33 67 Z "  />
<path d="M0 0 C2.97 0.495 2.97 0.495 6 1 C5.37240135 3.92879371 4.41377341 6.36095629 3 9 C2.34 9 1.68 9 1 9 C0.67 6.03 0.34 3.06 0 0 Z "  />
<path d="M0 0 C0.99 0.99 1.98 1.98 3 3 C2.67 3.66 2.34 4.32 2 5 C1.34 4.34 0.68 3.68 0 3 C0 2.01 0 1.02 0 0 Z "  />
<path d="M0 0 C0.66 0 1.32 0 2 0 C2 0.99 2 1.98 2 3 C1.34 3 0.68 3 0 3 C0 2.01 0 1.02 0 0 Z "  />
<path d="M0 0 C0.66 0 1.32 0 2 0 C2 0.66 2 1.32 2 2 C1.34 2 0.68 2 0 2 C0 1.34 0 0.68 0 0 Z "  />
<path d="M0 0 C2 1 2 1 2 1 Z "  />
<path d=""  />
<path d=""  />
<path d=""  />
<path d=""  />
<path d=""  />
<path d=""  />
<path d=""  />
<path d=""  />
<path d=""  />
<path d=""  />
<path d=""  />
<path d=""  />
<path d=""  />
<path d=""  />
<path d=""  />
<path d=""  />
<path d=""  />
<path d=""  />
<path d=""  />
<path d=""  />
<path d=""  />
<path d=""  />
<path d=""  />
<path d=""  />
<path d=""  />
<path d=""  />
<path d=""  />
</svg>
