<?xml version="1.0" encoding="UTF-8"?>
<svg version="1.1" xmlns="http://www.w3.org/2000/svg" width="1000" height="1300">
<path d="M0 0 C1.98 1.98 1.98 1.98 4 4 C2.26270118 8.49653812 0.1507493 12.54030372 -2.3125 16.6875 C-5.21816554 21.58891494 -7.83166035 26.55618584 -10.3359375 31.671875 C-12.31728825 35.63457649 -14.40745388 39.53277167 -16.5 43.4375 C-20.27387262 50.51165817 -23.69965957 57.69210334 -27 65 C-31.05854629 73.82692064 -35.10997971 82.59527763 -40 91 C-39.10539062 90.61328125 -38.21078125 90.2265625 -37.2890625 89.828125 C-24.41206129 84.2819539 -24.41206129 84.2819539 -18.78125 82.0859375 C-16.50055159 81.19544009 -14.23477641 80.27828772 -11.96875 79.3515625 C-10.52114486 78.77525854 -9.07322692 78.19973966 -7.625 77.625 C-6.93422363 77.33753906 -6.24344727 77.05007812 -5.53173828 76.75390625 C-0.55525739 74.81257874 -0.55525739 74.81257874 2.4765625 75.8359375 C4 77 4 77 4.31640625 79.16015625 C3.8768837 83.10500676 1.72283774 84.8662453 -1.0625 87.4375 C-1.81261353 88.15546753 -1.81261353 88.15546753 -2.57788086 88.88793945 C-4.03714503 90.27434618 -5.51820311 91.63770286 -7 93 C-7.7321875 93.67546875 -8.464375 94.3509375 -9.21875 95.046875 C-13.66130952 99 -13.66130952 99 -16 99 C-16 99.66 -16 100.32 -16 101 C-16.66 101 -17.32 101 -18 101 C-18 101.66 -18 102.32 -18 103 C-18.66 103 -19.32 103 -20 103 C-20.33 103.99 -20.66 104.98 -21 106 C-21.5775 106.268125 -22.155 106.53625 -22.75 106.8125 C-25.3291606 108.17372365 -26.54240403 109.90392646 -28.32421875 112.16015625 C-31.30193556 115.42939778 -34.82400432 118.06039158 -38.2734375 120.8125 C-40.57159768 122.65629613 -42.79449293 124.54789161 -45 126.5 C-48 129 -48 129 -51 130 C-50.79787875 132.56724152 -50.56450532 135.12507423 -50.3125 137.6875 C-50.25900391 138.40873047 -50.20550781 139.12996094 -50.15039062 139.87304688 C-49.58828287 145.22529027 -48.10397528 147.32034527 -44 151 C-44 151.99 -44 152.98 -44 154 C-43.01 154.33 -42.02 154.66 -41 155 C-41 155.99 -41 156.98 -41 158 C-40.34 158 -39.68 158 -39 158 C-36.12325168 163.94527987 -35.24223322 170.20351454 -36.875 176.625 C-38.91753464 182.01502197 -43.06069513 185.24317868 -48 188 C-50.7890625 188.6875 -50.7890625 188.6875 -53 189 C-53.14695312 189.92941406 -53.29390625 190.85882813 -53.4453125 191.81640625 C-55.74428639 204.48718761 -55.74428639 204.48718761 -60.11328125 208.8671875 C-63.79102059 211.07535398 -67.80581861 211.05280444 -72 211 C-72.66 211 -73.32 211 -74 211 C-75.55070196 213.21009135 -76.89433142 215.51321393 -78.26953125 217.8359375 C-80.29562427 220.36969717 -81.93915923 221.0542054 -85 222 C-85 222.66 -85 223.32 -85 224 C-87.64 224.99 -90.28 225.98 -93 227 C-92.67 228.32 -92.34 229.64 -92 231 C-91.41721248 235.97034497 -91.22033025 240.5442085 -93.875 244.9375 C-97.31368609 249.06781984 -101.85362464 250.15913988 -107 251 C-109.72753109 251.19325502 -112.26129722 251.15215015 -115 251 C-115 251.99 -115 252.98 -115 254 C-115.66 254 -116.32 254 -117 254 C-117.0928125 254.58523438 -117.185625 255.17046875 -117.28125 255.7734375 C-118.66842984 260.0706794 -122.36673751 262.54093909 -126 265 C-130.80642533 267.1700968 -134.72571876 267.37061043 -139.75 265.8125 C-147.2042086 262.84893443 -152.36258305 258.59001356 -157 252 C-157.66 252.33 -158.32 252.66 -159 253 C-159.12375 253.598125 -159.2475 254.19625 -159.375 254.8125 C-160 257 -160 257 -161.9375 258.875 C-164.39795079 261.41000991 -165.08043573 263.62826436 -166 267 C-166.66 267 -167.32 267 -168 267 C-168 268.32 -168 269.64 -168 271 C-168.66 271.33 -169.32 271.66 -170 272 C-170.89146227 273.80578254 -171.7159509 275.64505457 -172.5 277.5 C-174.77777778 282.88888889 -174.77777778 282.88888889 -177 284 C-177 285.32 -177 286.64 -177 288 C-179 290 -179 290 -181 291 C-181.37756808 292.32148827 -181.7018576 293.65835921 -182 295 C-182.75 297.6875 -182.75 297.6875 -184 300 C-186.625 300.8125 -186.625 300.8125 -189 301 C-191.23376623 298.61654841 -191.98356391 297.4332083 -192.109375 294.1171875 C-191.99078125 293.04726563 -191.8721875 291.97734375 -191.75 290.875 C-191.63011719 289.72386719 -191.51023437 288.57273437 -191.38671875 287.38671875 C-191.25910156 286.26910156 -191.13148438 285.15148437 -191 284 C-190.85387726 282.22919052 -190.7080125 280.45835973 -190.5625 278.6875 C-190.25108548 275.5934461 -189.73370654 272.69289934 -188.9375 269.6875 C-188.13224412 266.52016019 -187.91708669 264.21150907 -188 261 C-188.76183594 261.58007812 -188.76183594 261.58007812 -189.5390625 262.171875 C-201.64388145 271.32982792 -201.64388145 271.32982792 -206 272 C-206 272.66 -206 273.32 -206 274 C-209 276 -209 276 -212 276 C-212 276.66 -212 277.32 -212 278 C-213.86328125 279.5078125 -213.86328125 279.5078125 -216.3125 281.125 C-217.11300781 281.66382813 -217.91351563 282.20265625 -218.73828125 282.7578125 C-221 284 -221 284 -224 284 C-224 284.66 -224 285.32 -224 286 C-224.99 286 -225.98 286 -227 286 C-227 286.66 -227 287.32 -227 288 C-228.80016682 289.50457293 -230.66761422 290.92911713 -232.5625 292.3125 C-233.38306885 292.91372681 -233.38306885 292.91372681 -234.22021484 293.52709961 C-235.80990721 294.68962974 -237.40485466 295.84496343 -239 297 C-239.75410156 297.56203125 -240.50820313 298.1240625 -241.28515625 298.703125 C-245.74730603 302 -245.74730603 302 -248 302 C-248.309375 302.8353125 -248.309375 302.8353125 -248.625 303.6875 C-250.57683032 306.97012371 -252.94230994 308.70673246 -256 311 C-256.66 311 -257.32 311 -258 311 C-258 311.66 -258 312.32 -258 313 C-259.26418246 313.69965443 -260.53665402 314.38434763 -261.8125 315.0625 C-262.52019531 315.44535156 -263.22789062 315.82820313 -263.95703125 316.22265625 C-266 317 -266 317 -269 316 C-269.3539465 310.33685603 -268.20415643 306.22269997 -266 301 C-262.27257704 292.07056918 -259.46747175 283.02908094 -256.80664062 273.73608398 C-254.53920922 265.81782663 -252.17654308 257.93344807 -249.75 250.0625 C-249.42088623 248.99169189 -249.09177246 247.92088379 -248.75268555 246.81762695 C-246.91018982 240.85151753 -244.9986161 234.91565692 -243 229 C-245.51615099 227.7419245 -246.46286288 228.12079415 -249.19140625 228.671875 C-250.04500732 228.84033936 -250.8986084 229.00880371 -251.77807617 229.18237305 C-252.69693604 229.36968994 -253.6157959 229.55700684 -254.5625 229.75 C-256.48686602 230.12688026 -258.41134677 230.50317516 -260.3359375 230.87890625 C-263.01251688 231.4076632 -265.68878374 231.93784673 -268.36425781 232.47216797 C-279.24720097 234.62481119 -289.912807 235.62394316 -301 236 C-301.99 233.525 -301.99 233.525 -303 231 C-296.81695958 224.19865554 -289.0772569 219.4415728 -281.03125 215.12109375 C-278.2392976 213.58015079 -275.63334801 211.79546455 -273 210 C-268.39285714 207 -268.39285714 207 -265 207 C-265 206.34 -265 205.68 -265 205 C-264.36835938 204.6596875 -263.73671875 204.319375 -263.0859375 203.96875 C-258.77976568 201.63572319 -254.4839654 199.29591057 -250.2578125 196.8203125 C-249.32122803 196.27407227 -249.32122803 196.27407227 -248.36572266 195.71679688 C-247.13563987 194.99696827 -245.90865497 194.27181572 -244.68505859 193.54101562 C-241.88939704 191.90895375 -240.29799878 191 -237 191 C-237.825 190.21625 -238.65 189.4325 -239.5 188.625 C-242 186 -242 186 -242 184 C-242.66 184 -243.32 184 -244 184 C-246.68159945 177.79880128 -247.14288655 170.42865964 -245 164 C-244.34 164 -243.68 164 -243 164 C-242.76667969 163.28972656 -242.53335938 162.57945312 -242.29296875 161.84765625 C-240.28907675 157.4342506 -237.00523044 154.21426306 -233.80078125 150.62109375 C-231.73910977 148.2467049 -231.73910977 148.2467049 -232.265625 145.98828125 C-232.50796875 145.33214844 -232.7503125 144.67601562 -233 144 C-232.66081836 137.38081891 -231.15982548 131.68695314 -226.8125 126.59765625 C-222.49910006 122.79554294 -218.1911719 121.9654545 -212.53125 122.0546875 C-209.33715849 122.28382885 -206.1758248 122.59259125 -203 123 C-202.79375 122.030625 -202.5875 121.06125 -202.375 120.0625 C-200.14211352 112.34889217 -194.76583142 105.32518903 -188 101 C-185.7890625 100.34375 -185.7890625 100.34375 -184 100 C-184.165 99.34 -184.33 98.68 -184.5 98 C-185.60571673 91.36569959 -185.36505362 86.86617928 -182.4609375 80.859375 C-178.41451588 75.70938385 -173.21350562 74.38604865 -167.0625 73.25 C-160.84891891 71.90669363 -157.3694945 70.30875016 -153.625 65.1015625 C-149.66231451 59.97674329 -143.8254764 55.90930053 -137.375 54.875 C-132.72996352 54.66800194 -129.19057222 56.09519445 -125 58 C-125 58.66 -125 59.32 -125 60 C-124.01 60 -123.02 60 -122 60 C-121.20752336 57.79195441 -120.4159987 55.58357503 -119.625 53.375 C-118.96371094 51.53035156 -118.96371094 51.53035156 -118.2890625 49.6484375 C-117.46493763 47.31591438 -116.68425163 44.96728915 -115.9609375 42.6015625 C-115 40 -115 40 -113 39 C-113 37.35 -113 35.7 -113 34 C-112.34 34 -111.68 34 -111 34 C-110.34 30.7 -109.68 27.4 -109 24 C-108.34 24 -107.68 24 -107 24 C-106.8453125 22.9171875 -106.8453125 22.9171875 -106.6875 21.8125 C-105.93217477 18.72253314 -104.80862024 16.60441314 -103 14 C-102.34 13.67 -101.68 13.34 -101 13 C-98.375 14.4375 -98.375 14.4375 -96 16 C-96.06058594 16.5878125 -96.12117187 17.175625 -96.18359375 17.78125 C-97.24629852 29.16036569 -97.56930507 40.58312216 -98 52 C-94.69029715 52 -92.43850979 49.4857463 -89.875 47.5625 C-84.65428396 43.74032464 -79.33268062 40.28788831 -73.6875 37.125 C-72.73883057 36.59048218 -72.73883057 36.59048218 -71.77099609 36.04516602 C-67.74470588 33.82856753 -63.6368358 31.92575342 -59.42553711 30.08935547 C-54.85885512 28.03837056 -50.40629319 25.75436027 -45.9375 23.5 C-44.99583984 23.02691406 -44.05417969 22.55382812 -43.08398438 22.06640625 C-41.23666093 21.13824513 -39.38980542 20.20915197 -37.54345703 19.27905273 C-35.31955596 18.16069818 -33.09215661 17.04979766 -30.86328125 15.94140625 C-26.63100827 13.82607796 -22.43630306 11.64218713 -18.25 9.4375 C-17.50878906 9.05142578 -16.76757812 8.66535156 -16.00390625 8.26757812 C-12.43564204 6.38735273 -9.2043527 4.46260439 -6 2 C-4.01985568 1.27648573 -2.02178685 0.59734611 0 0 Z M-27.2578125 21.51171875 C-28.55192396 22.22793123 -29.84075791 22.95373774 -31.125 23.6875 C-32.47134649 24.43335874 -33.81900153 25.17686041 -35.16796875 25.91796875 C-35.82200684 26.27810059 -36.47604492 26.63823242 -37.14990234 27.00927734 C-40.67451373 28.89669791 -44.31782594 30.44961092 -48 32 C-48 32.33 -48 32.66 -48 33 C-45.60425039 33.30436567 -43.21455175 33.56894313 -40.8125 33.8125 C-40.13896484 33.90208984 -39.46542969 33.99167969 -38.77148438 34.08398438 C-34.88661046 34.44404586 -33.3236507 34.26112727 -30.25 31.78125 C-29.5075 30.8634375 -28.765 29.945625 -28 29 C-27.33355469 28.26136719 -26.66710937 27.52273437 -25.98046875 26.76171875 C-25.38878906 26.07722656 -24.79710937 25.39273438 -24.1875 24.6875 C-23.58292969 23.99011719 -22.97835938 23.29273438 -22.35546875 22.57421875 C-21.68451172 21.79498047 -21.68451172 21.79498047 -21 21 C-24.0897782 19.58886898 -24.0897782 19.58886898 -27.2578125 21.51171875 Z M-15 22 C-14 24 -14 24 -14 24 Z M-16 24 C-18.7701223 26.63651511 -21.14677793 29.53904906 -23.5625 32.5 C-24.74005859 33.93859375 -24.74005859 33.93859375 -25.94140625 35.40625 C-28.06743806 38.01148449 -28.06743806 38.01148449 -30 41 C-28.68 42.65 -27.36 44.3 -26 46 C-24.32326863 42.90116855 -22.6603866 39.79511545 -21 36.6875 C-20.28457031 35.36588867 -20.28457031 35.36588867 -19.5546875 34.01757812 C-19.10351562 33.17001953 -18.65234375 32.32246094 -18.1875 31.44921875 C-17.76855469 30.66893311 -17.34960938 29.88864746 -16.91796875 29.0847168 C-15.79850319 26.9220443 -15.79850319 26.9220443 -16 24 Z M-64 40 C-64.94875 40.309375 -65.8975 40.61875 -66.875 40.9375 C-69.14839117 41.8039938 -69.14839117 41.8039938 -69.9375 43.9375 C-70.20896722 46.31450092 -70.20896722 46.31450092 -68 49 C-63.40050766 50.12874681 -58.70534031 50.50878315 -54 51 C-53.17757812 51.13277344 -52.35515625 51.26554687 -51.5078125 51.40234375 C-49.24249308 51.74949803 -49.24249308 51.74949803 -46 51 C-42.37623002 47.57123109 -40.18899652 43.42429651 -38 39 C-41.01921026 38.58074902 -44.03793152 38.18917802 -47.0625 37.8125 C-47.91005859 37.69197266 -48.75761719 37.57144531 -49.63085938 37.44726562 C-55.46111193 36.74943617 -58.80084658 37.26430242 -64 40 Z M-35 45 C-35.66 46.65 -36.32 48.3 -37 50 C-37.66 50 -38.32 50 -39 50 C-41.30487033 53.62751988 -42.10664326 55.3315114 -41.41796875 59.6484375 C-41.01191406 60.87820312 -40.60585938 62.10796875 -40.1875 63.375 C-39.78917969 64.62023437 -39.39085937 65.86546875 -38.98046875 67.1484375 C-38.65691406 68.08945313 -38.33335937 69.03046875 -38 70 C-33.95715014 64.83942106 -29.8397905 59.09738368 -30.1875 52.375 C-30.5896875 51.199375 -30.5896875 51.199375 -31 50 C-31.66 50 -32.32 50 -33 50 C-33.33 48.35 -33.66 46.7 -34 45 C-34.33 45 -34.66 45 -35 45 Z M-63 56 C-61.35 58.64 -59.7 61.28 -58 64 C-57.67 63.34 -57.34 62.68 -57 62 C-56.34 62 -55.68 62 -55 62 C-54.34 60.35 -53.68 58.7 -53 57 C-56.3 56.67 -59.6 56.34 -63 56 Z M-48 62 C-49.38232443 63.62626404 -50.71937515 65.2925002 -52 67 C-50.02 67.99 -50.02 67.99 -48 69 C-45.71271266 67.16116119 -45.71271266 67.16116119 -45.875 64.375 C-45.91625 63.59125 -45.9575 62.8075 -46 62 C-46.66 62 -47.32 62 -48 62 Z M-141 63 C-141 63.66 -141 64.32 -141 65 C-141.99 65 -142.98 65 -144 65 C-144 65.66 -144 66.32 -144 67 C-144.66 67 -145.32 67 -146 67 C-146 67.66 -146 68.32 -146 69 C-146.66 69 -147.32 69 -148 69 C-149.10589691 70.25471154 -150.16083729 71.55466947 -151.1875 72.875 C-154.52210615 76.78833944 -156.83921834 78.09459971 -162 79 C-163.3778365 79.32140737 -164.75287147 79.6550371 -166.125 80 C-166.78757812 80.16242188 -167.45015625 80.32484375 -168.1328125 80.4921875 C-170.50772829 81.1380851 -172.74697374 82.01430101 -175 83 C-175 83.66 -175 84.32 -175 85 C-175.66 85 -176.32 85 -177 85 C-180.03322519 94.09967556 -176.05419139 102.03045619 -172.0625 110.125 C-171.04999965 112.08765462 -170.02991644 114.04642833 -169 116 C-168.45472656 117.06154297 -168.45472656 117.06154297 -167.8984375 118.14453125 C-165.79336935 122.07228037 -163.3648476 125.07789551 -160 128 C-159.34 128 -158.68 128 -158 128 C-157.7525 128.78375 -157.505 129.5675 -157.25 130.375 C-156.21389616 133.04699472 -156.21389616 133.04699472 -154.1875 134.4375 C-151.48027045 135.36332896 -151.48027045 135.36332896 -147 133 C-146.34 124.75 -145.68 116.5 -145 108 C-142.525 107.505 -142.525 107.505 -140 107 C-140.05329468 108.02154175 -140.05329468 108.02154175 -140.10766602 109.0637207 C-140.26517792 112.14637865 -140.41393888 115.22939829 -140.5625 118.3125 C-140.61857422 119.38435547 -140.67464844 120.45621094 -140.73242188 121.56054688 C-140.80493164 123.10258789 -140.80493164 123.10258789 -140.87890625 124.67578125 C-140.9260376 125.62364502 -140.97316895 126.57150879 -141.02172852 127.5480957 C-141.12456133 130.13933025 -141.12456133 130.13933025 -140 133 C-137.99528611 133.77112101 -137.99528611 133.77112101 -135.625 134.125 C-132.96267247 134.61930837 -130.5800298 135.13999007 -128 136 C-127.7525 135.4225 -127.505 134.845 -127.25 134.25 C-125.83694303 131.70649745 -124.04701082 130.04701082 -122 128 C-122 127.34 -122 126.68 -122 126 C-121.34 126 -120.68 126 -120 126 C-119.34 124.35 -118.68 122.7 -118 121 C-117.34 121 -116.68 121 -116 121 C-114.62426011 119.20815024 -114.62426011 119.20815024 -113.28515625 116.87109375 C-112.76373047 116.00033203 -112.24230469 115.12957031 -111.70507812 114.23242188 C-111.16302734 113.31009766 -110.62097656 112.38777344 -110.0625 111.4375 C-109.52431641 110.54224609 -108.98613281 109.64699219 -108.43164062 108.72460938 C-102.69541304 99.10880143 -102.69541304 99.10880143 -100.125 88.3125 C-100.02445312 87.40113281 -99.92390625 86.48976563 -99.8203125 85.55078125 C-99.85742367 82.98015433 -99.85742367 82.98015433 -100.9921875 80.7421875 C-103.97839217 78.15104493 -107.20638627 78.11288401 -111 77.8125 C-118.78611457 77.07129514 -118.78611457 77.07129514 -122 76 C-122.68025637 74.00458132 -123.34490497 72.00382009 -124 70 C-126.80722492 65.17157314 -129.94349617 64.00037184 -135.07421875 62.48046875 C-137.93207593 61.76745367 -137.89089447 61.96363149 -141 63 Z M-46 75 C-45.34 76.32 -44.68 77.64 -44 79 C-43.67 77.68 -43.34 76.36 -43 75 C-43.99 75 -44.98 75 -46 75 Z M-96 99 C-98.27427334 101.71792767 -98.27427334 101.71792767 -97.7578125 104.26171875 C-97.54898438 105.06222656 -97.34015625 105.86273438 -97.125 106.6875 C-96.92132813 107.49574219 -96.71765625 108.30398437 -96.5078125 109.13671875 C-96.34023438 109.75160156 -96.17265625 110.36648437 -96 111 C-95.34 110.67 -94.68 110.34 -94 110 C-92.68 112.31 -91.36 114.62 -90 117 C-89.34 117 -88.68 117 -88 117 C-89.07401108 119.91517292 -89.77810176 121.77810176 -92 124 C-87.61110675 123.33501617 -84.0188515 121.81242323 -80 120 C-80.48768084 113.90398951 -81.94378767 109.76587216 -86.5625 105.5859375 C-88.03154791 104.37821061 -89.51497187 103.1880225 -91 102 C-91.33 101.34 -91.66 100.68 -92 100 C-94.02463255 99.34786708 -94.02463255 99.34786708 -96 99 Z M-182 105 C-187.10613191 108.02736973 -187.10613191 108.02736973 -190 113 C-188.35 112.34 -186.7 111.68 -185 111 C-185 110.34 -185 109.68 -185 109 C-183.35 108.67 -181.7 108.34 -180 108 C-180.66 107.01 -181.32 106.02 -182 105 Z M-191 113 C-191.33 113.99 -191.66 114.98 -192 116 C-192.66 116 -193.32 116 -194 116 C-193.67 116.99 -193.34 117.98 -193 119 C-192.01 117.68 -191.02 116.36 -190 115 C-190.33 114.34 -190.66 113.68 -191 113 Z M-77.9375 126.75 C-78.61490234 126.92015625 -79.29230469 127.0903125 -79.99023438 127.265625 C-84.54763108 128.45413114 -88.71235991 130.05295571 -93 132 C-93.68707031 132.30421875 -94.37414062 132.6084375 -95.08203125 132.921875 C-99.94939076 135.25117571 -104.21323818 138.17093239 -108.58984375 141.31640625 C-111.62571836 143.43709014 -114.74825691 145.23274832 -118 147 C-117.01 150.3 -116.02 153.6 -115 157 C-109.10322231 157.19333697 -103.56409518 156.44351545 -97.75 155.5 C-95.97426801 155.21680136 -94.19823716 154.9354686 -92.421875 154.65625 C-91.64424805 154.53056641 -90.86662109 154.40488281 -90.06542969 154.27539062 C-88 154 -88 154 -85 154 C-85 154.99 -85 155.98 -85 157 C-89.98470414 158.66156805 -94.87016153 160.01301592 -100.046875 160.9140625 C-101.38927246 161.15334473 -101.38927246 161.15334473 -102.75878906 161.39746094 C-104.57525653 161.7139029 -106.39507996 162.01169026 -108.21777344 162.29003906 C-110.59052542 162.70854732 -112.75735717 163.11762961 -115 164 C-116.71428515 166.46971072 -116.71428515 166.46971072 -117 169 C-111.78559034 175.21786993 -106.42146834 181.00552462 -100 186 C-99.34 186 -98.68 186 -98 186 C-98 186.66 -98 187.32 -98 188 C-97.34 188 -96.68 188 -96 188 C-96 188.66 -96 189.32 -96 190 C-93.76330376 191.7326095 -91.54350915 193.3191076 -89.1875 194.875 C-88.50768066 195.32464111 -87.82786133 195.77428223 -87.12744141 196.23754883 C-77.8984325 202.25497879 -77.8984325 202.25497879 -67.3046875 203.71484375 C-64.81744919 203.17452524 -64.81744919 203.17452524 -63.25 200.875 C-61.00707519 195.71627294 -60.86433751 190.56216223 -61 185 C-60.154375 184.7525 -59.30875 184.505 -58.4375 184.25 C-52.99677098 182.27155308 -47.52723989 179.74820754 -44 175 C-42.76983355 170.16720323 -42.91225604 167.45072104 -45 163 C-46.0538625 161.30107809 -47.16087536 159.63423453 -48.3125 158 C-49.23482422 156.68902344 -49.23482422 156.68902344 -50.17578125 155.3515625 C-52.03392795 152.80168839 -52.03392795 152.80168839 -55 150.375 C-55.66 149.59125 -56.32 148.8075 -57 148 C-56.625 144.3125 -56.625 144.3125 -56.21875 142.25390625 C-55.79609995 137.89910129 -57.20035913 133.9258575 -59 130 C-64.46424809 123.94502239 -70.62410754 124.75732542 -77.9375 126.75 Z M-222 132 C-224.73044364 136.45561705 -225.29533769 139.76020445 -225.3125 144.9375 C-225.58424161 150.78612053 -226.38865526 153.80893704 -230.72265625 157.765625 C-231.14417969 158.17296875 -231.56570313 158.5803125 -232 159 C-232 159.66 -232 160.32 -232 161 C-232.66 161 -233.32 161 -234 161 C-237.38512955 166.33157904 -240.00477761 170.46894554 -239 177 C-236.82358853 181.87425485 -234.33875972 182.9703916 -229.5 184.9375 C-225.28322521 187.05056231 -223.4086823 188.01103399 -221.5859375 192.421875 C-220.875 196.1875 -220.875 196.1875 -220.4921875 199.79296875 C-219.97238067 203.17996407 -219.44596374 204.63857418 -217 207 C-212.40425398 208.98431396 -208.38999723 206.68789101 -204 205 C-203.32839844 204.74734375 -202.65679687 204.4946875 -201.96484375 204.234375 C-198.55868116 202.89797293 -198.55868116 202.89797293 -195.69140625 200.69140625 C-192.82285718 197.82285718 -189.4149749 195.58159685 -186.11914062 193.22851562 C-184.71102789 192.19865051 -183.35094212 191.10379302 -182 190 C-182 189.34 -182 188.68 -182 188 C-181.01 187.67 -180.02 187.34 -179 187 C-177.29006566 185.3777546 -175.62652316 183.70586575 -174 182 C-173.236875 181.278125 -172.47375 180.55625 -171.6875 179.8125 C-169.77286049 178.16877727 -169.77286049 178.16877727 -170 176 C-169.01 176 -168.02 176 -167 176 C-164.43312633 172.1496895 -165.16711276 170.41430237 -166 166 C-166.89525391 166.10828125 -166.89525391 166.10828125 -167.80859375 166.21875 C-173.86047779 166.86620268 -179.85642075 167.10936573 -185.9375 167.125 C-186.670896 167.12951172 -187.40429199 167.13402344 -188.15991211 167.13867188 C-191.576883 167.1292164 -194.73498963 167.07412874 -198 166 C-198 165.01 -198 164.02 -198 163 C-197.410979 162.94465088 -196.82195801 162.88930176 -196.21508789 162.83227539 C-193.49748485 162.57646027 -190.77999254 162.31948622 -188.0625 162.0625 C-186.67321289 161.93198242 -186.67321289 161.93198242 -185.25585938 161.79882812 C-179.4969594 161.25324813 -173.7475767 160.6543395 -168 160 C-165.39240433 155.15531261 -165.39240433 155.15531261 -166 150 C-169.79281638 147.03786836 -173.91847203 144.54509072 -178 142 C-179.0621875 141.33742188 -180.124375 140.67484375 -181.21875 139.9921875 C-186.43108261 136.8463605 -191.04509636 134.43358791 -197 133 C-198.62976541 132.30270104 -200.25439643 131.59333502 -201.875 130.875 C-208.87432865 128.03484689 -215.58924687 127.42089062 -222 132 Z M-153.6875 146.0625 C-158.05470009 152.11460656 -160.47725018 157.53040503 -159.6875 165.0625 C-159.460625 166.361875 -159.23375 167.66125 -159 169 C-158.34 169 -157.68 169 -157 169 C-156.7215625 169.86625 -156.7215625 169.86625 -156.4375 170.75 C-153.86603416 174.77490305 -150.13409054 176.47880297 -145.6328125 177.578125 C-139.44382346 178.46502063 -134.71003068 177.441245 -129 175 C-129 174.34 -129 173.68 -129 173 C-128.34 173 -127.68 173 -127 173 C-123.65094299 168.88931944 -121 164.37560791 -121 159 C-122.59542248 152.20736795 -124.80912236 146.32195559 -130.625 142.1875 C-138.59088334 137.53097261 -147.82911087 139.04221742 -153.6875 146.0625 Z M-151 183 C-151.86625 184.36125 -151.86625 184.36125 -152.75 185.75 C-155 189 -155 189 -156.83203125 190.79296875 C-167.38696191 201.53807834 -177 217.49491964 -177 232.875 C-175.74163243 236.80739866 -174.24897737 238.4730176 -171 241 C-167.45177441 242.61282981 -164.21184415 243.10413485 -160.375 243.4375 C-156.71245524 243.76989902 -154.76504883 244.45615507 -152 247 C-151.34 247 -150.68 247 -150 247 C-149.67 248.32 -149.34 249.64 -149 251 C-148.34 251 -147.68 251 -147 251 C-147 251.66 -147 252.32 -147 253 C-145.54688391 254.32627781 -145.54688391 254.32627781 -143.6875 255.5625 C-143.07261719 255.99691406 -142.45773437 256.43132812 -141.82421875 256.87890625 C-137.92728008 259.27381288 -134.46407497 259.16233 -130 259 C-129.34 258.67 -128.68 258.34 -128 258 C-128 257.34 -128 256.68 -128 256 C-127.37867188 255.7525 -126.75734375 255.505 -126.1171875 255.25 C-123.56808719 253.74499613 -123.17370714 252.71665088 -122.125 250 C-120.31532081 246.17342645 -120.31532081 246.17342645 -117.5 244.625 C-115.35500069 244.24196441 -113.20570944 243.88111943 -111.05078125 243.55859375 C-109.44783203 243.31302734 -109.44783203 243.31302734 -107.8125 243.0625 C-106.78769531 242.92972656 -105.76289063 242.79695313 -104.70703125 242.66015625 C-101.79449444 241.94988392 -100.72543084 241.41560317 -99 239 C-97.63444866 230.95841989 -101.65033062 224.09810893 -105 217 C-105.66 217 -106.32 217 -107 217 C-107.309375 216.05125 -107.61875 215.1025 -107.9375 214.125 C-108.87394742 211.13919592 -108.87394742 211.13919592 -110 209 C-110.66 209 -111.32 209 -112 209 C-112.2165625 208.071875 -112.2165625 208.071875 -112.4375 207.125 C-112.93152225 204.96741678 -112.93152225 204.96741678 -114 203 C-114.66 203 -115.32 203 -116 203 C-116.268125 202.2575 -116.53625 201.515 -116.8125 200.75 C-117.95276751 198.10938051 -119.09380306 196.14447156 -121 194 C-121.66 194 -122.32 194 -123 194 C-123.1546875 193.1028125 -123.1546875 193.1028125 -123.3125 192.1875 C-124.09824033 189.68741714 -124.96918853 188.62464918 -127 187 C-127.66 187 -128.32 187 -129 187 C-129.66 185.68 -130.32 184.36 -131 183 C-133.64 183.66 -136.28 184.32 -139 185 C-139.03758423 186.16571533 -139.03758423 186.16571533 -139.07592773 187.35498047 C-139.19166796 190.86183069 -139.31449352 194.36839745 -139.4375 197.875 C-139.47681641 199.09832031 -139.51613281 200.32164062 -139.55664062 201.58203125 C-139.61948242 203.33193359 -139.61948242 203.33193359 -139.68359375 205.1171875 C-139.72025146 206.19597168 -139.75690918 207.27475586 -139.79467773 208.38623047 C-140 211 -140 211 -141 213 C-141.99 213.33 -142.98 213.66 -144 214 C-144.33 204.1 -144.66 194.2 -145 184 C-147.97 183.505 -147.97 183.505 -151 183 Z M-92 201 C-92.12117187 201.68707031 -92.24234375 202.37414062 -92.3671875 203.08203125 C-92.53476562 203.98308594 -92.70234375 204.88414062 -92.875 205.8125 C-93.03742188 206.70582031 -93.19984375 207.59914063 -93.3671875 208.51953125 C-94.33983843 212.33208273 -95.74184686 213.82789791 -99 216 C-98.01 217.65 -97.02 219.3 -96 221 C-91.12450824 219.69891569 -88.2765221 217.82914252 -84.625 214.375 C-83.75101563 213.55773437 -82.87703125 212.74046875 -81.9765625 211.8984375 C-81.32429688 211.27195312 -80.67203125 210.64546875 -80 210 C-81.2226022 206.3321934 -82.10903675 206.11112643 -85.4375 204.375 C-86.24058594 203.94960938 -87.04367187 203.52421875 -87.87109375 203.0859375 C-89.24468297 202.38528098 -90.62082143 201.68958928 -92 201 Z M-242 250 C-244.64130091 252.64130091 -244.82401188 254.80878108 -245.625 258.4375 C-245.88539063 259.59121094 -246.14578125 260.74492187 -246.4140625 261.93359375 C-247.09384352 264.97080016 -247.09384352 264.97080016 -247 268 C-243.04 268 -239.08 268 -235 268 C-234.01 266.02 -233.02 264.04 -232 262 C-233.47535937 259.99708788 -234.95502293 257.99763223 -236.4375 256 C-236.85837891 255.42765625 -237.27925781 254.8553125 -237.71289062 254.265625 C-238.78444136 252.82546081 -239.88966676 251.41048004 -241 250 C-241.33 250 -241.66 250 -242 250 Z M-229 269 C-230.26026798 271.52053595 -229.91874445 272.8542098 -229.5625 275.625 C-229.46066406 276.44226563 -229.35882813 277.25953125 -229.25390625 278.1015625 C-229.12822266 279.04128906 -229.12822266 279.04128906 -229 280 C-227.02 278.68 -225.04 277.36 -223 276 C-224.29144978 273.00007271 -224.29144978 273.00007271 -226 270 C-226.99 269.67 -227.98 269.34 -229 269 Z M-249 274 C-252.24644267 282.2972231 -252.24644267 282.2972231 -254 291 C-250.40523299 287.50794062 -247.07973809 283.95966325 -244 280 C-244 279.34 -244 278.68 -244 278 C-243.34 278 -242.68 278 -242 278 C-241.67 277.01 -241.34 276.02 -241 275 C-243.64 274.67 -246.28 274.34 -249 274 Z M-237 280 C-238.0536394 281.30756357 -239.06853634 282.64651756 -240.0625 284 C-240.61035156 284.7425 -241.15820312 285.485 -241.72265625 286.25 C-242.35494141 287.11625 -242.35494141 287.11625 -243 288 C-242.67 288.66 -242.34 289.32 -242 290 C-239.69 288.35 -237.38 286.7 -235 285 C-235.33 283.35 -235.66 281.7 -236 280 C-236.33 280 -236.66 280 -237 280 Z " fill="#000000" transform="translate(560,125)"/>
<path d="M0 0 C3.73205306 3.46547784 5.43301098 6.75818657 5.80078125 11.890625 C5.81112144 14.08274583 5.75893658 16.24986927 5.625 18.4375 C4.965 18.4375 4.305 18.4375 3.625 18.4375 C3.295 20.0875 2.965 21.7375 2.625 23.4375 C1.201875 23.9015625 1.201875 23.9015625 -0.25 24.375 C-3.23580408 25.31144742 -3.23580408 25.31144742 -5.375 26.4375 C-9.82143105 26.74066575 -13.36423047 26.44288476 -17.375 24.4375 C-21.01963628 19.61081952 -22.99396473 14.56420171 -22.375 8.4375 C-20.79968045 4.38469552 -18.75616419 1.35827613 -15.125 -1.0625 C-9.60136147 -2.06679792 -5.18072048 -2.3984817 0 0 Z " fill="#000000" transform="translate(426.375,271.5625)"/>
<path d="M0 0 C2.3125 0.8125 2.3125 0.8125 3.3125 1.8125 C3.76628151 7.03098739 3.76628151 7.03098739 2.1875 9.75 C-0.61420027 11.33763015 -2.65735644 10.55320176 -5.6875 9.8125 C-6.4375 7.0625 -6.4375 7.0625 -6.6875 3.8125 C-4.63730269 0.73720403 -3.75659144 -0.26208777 0 0 Z " fill="#000000" transform="translate(421.6875,200.1875)"/>
<path d="M0 0 C2.31 0 4.62 0 7 0 C8.37494222 2.26461071 9.07991957 3.45654694 8.6875 6.125 C8 8 8 8 7 10 C5.02 10 3.04 10 1 10 C-0.80411967 7.24075815 -1.0127245 6.11027897 -0.625 2.75 C-0.41875 1.8425 -0.2125 0.935 0 0 Z " fill="#000000" transform="translate(416,358)"/>
<path d="M0 0 C1 1 1 1 1.0625 4.0625 C1.041875 5.031875 1.02125 6.00125 1 7 C-2.465 8.485 -2.465 8.485 -6 10 C-8.22984785 8.23470379 -8.93915901 7.34766278 -9.4375 4.5 C-9 2 -9 2 -7.3125 0.125 C-4.40666572 -1.28864911 -3.02691303 -0.98170152 0 0 Z " fill="#000000" transform="translate(342,291)"/>
<path d="M0 0 C5.875 0.875 5.875 0.875 7 2 C7.25 4.9375 7.25 4.9375 7 8 C4 10 4 10 1.4375 9.875 C-1 9 -1 9 -2.5 7.25 C-3 5 -3 5 -1.625 2.25 C-1.08875 1.5075 -0.5525 0.765 0 0 Z " fill="#000000" transform="translate(493,284)"/>
<path d="" fill="#000000" transform="translate(0,0)"/>
<path d="" fill="#000000" transform="translate(0,0)"/>
<path d="" fill="#000000" transform="translate(0,0)"/>
<path d="" fill="#000000" transform="translate(0,0)"/>
<path d="" fill="#000000" transform="translate(0,0)"/>
<path d="" fill="#000000" transform="translate(0,0)"/>
<path d="" fill="#000000" transform="translate(0,0)"/>
<path d="" fill="#000000" transform="translate(0,0)"/>
<path d="" fill="#000000" transform="translate(0,0)"/>
<path d="" fill="#000000" transform="translate(0,0)"/>
<path d="" fill="#000000" transform="translate(0,0)"/>
<path d="" fill="#000000" transform="translate(0,0)"/>
<path d="" fill="#000000" transform="translate(0,0)"/>
<path d="" fill="#000000" transform="translate(0,0)"/>
<path d="" fill="#000000" transform="translate(0,0)"/>
<path d="" fill="#000000" transform="translate(0,0)"/>
<path d="" fill="#000000" transform="translate(0,0)"/>
<path d="" fill="#000000" transform="translate(0,0)"/>
<path d="" fill="#000000" transform="translate(0,0)"/>
<path d="" fill="#000000" transform="translate(0,0)"/>
<path d="" fill="#000000" transform="translate(0,0)"/>
</svg>
