<?xml version="1.0" encoding="UTF-8"?>
<svg version="1.1" xmlns="http://www.w3.org/2000/svg" viewBox="-25 25 250 350">
<path d="M0 0 C0 0.66 0 1.32 0 2 C0.99 2.495 0.99 2.495 2 3 C2 3.99 2 4.98 2 6 C1.34 6 0.68 6 0 6 C0 6.66 0 7.32 0 8 C-0.66 8 -1.32 8 -2 8 C-2 8.66 -2 9.32 -2 10 C-2.66 10 -3.32 10 -4 10 C-4 10.66 -4 11.32 -4 12 C-5.1324597 13.16677666 -6.27130789 14.32787585 -7.4375 15.4609375 C-15.5936074 23.49470329 -20.45866059 31.09937292 -21.16796875 42.76171875 C-21.21827706 50.29790412 -20.57022201 57.6224631 -19.71826172 65.09667969 C-18.89742717 72.46482425 -18.10123631 79.75818159 -20 87 C-18.15535156 87.07347656 -18.15535156 87.07347656 -16.2734375 87.1484375 C-14.64060434 87.22351029 -13.00779288 87.29905615 -11.375 87.375 C-10.56675781 87.4059375 -9.75851562 87.436875 -8.92578125 87.46875 C2.00180288 88.00180288 2.00180288 88.00180288 6 92 C5.625 94.625 5.625 94.625 5 97 C3.68 97.33 2.36 97.66 1 98 C1 98.66 1 99.32 1 100 C0.45472656 100.29132813 -0.09054687 100.58265625 -0.65234375 100.8828125 C-4.78120402 103.12721859 -8.75270029 105.45904495 -12.625 108.125 C-16.2960593 110.62828824 -19.85540142 112.41270693 -24 114 C-23.566875 115.15628906 -23.566875 115.15628906 -23.125 116.3359375 C-22.568125 117.84027344 -22.568125 117.84027344 -22 119.375 C-21.62875 120.37273437 -21.2575 121.37046875 -20.875 122.3984375 C-20 125 -20 125 -20 127 C-19.278125 127.28875 -18.55625 127.5775 -17.8125 127.875 C-16.11326276 128.5546949 -14.42239806 129.25671197 -12.75 130 C-8.91644816 131.39401885 -4.9906956 132.18273336 -1 133 C-0.67 135.31 -0.34 137.62 0 140 C-0.78246094 140.33773437 -1.56492187 140.67546875 -2.37109375 141.0234375 C-3.38300781 141.46945313 -4.39492188 141.91546875 -5.4375 142.375 C-6.44683594 142.81585938 -7.45617187 143.25671875 -8.49609375 143.7109375 C-11.12143547 144.75076286 -11.12143547 144.75076286 -12 147 C-12.66 147 -13.32 147 -14 147 C-16.27018487 150.64883964 -16.35945227 153.94941863 -16.5625 158.1875 C-16.63964703 159.53781665 -16.7177679 160.88807802 -16.796875 162.23828125 C-16.91260161 164.38144899 -17.0276538 166.524654 -17.140625 168.66796875 C-17.68099644 175.60682933 -19.88873871 181.36092339 -24.25 186.8125 C-32.83240738 193.63941496 -41.43418353 194.08749767 -52 195 C-51.505 195.928125 -51.01 196.85625 -50.5 197.8125 C-49 201 -49 201 -49 204 C-48.34 204 -47.68 204 -47 204 C-44.98253348 213.17171318 -44.40274547 220.25641446 -48.75 228.75 C-53.26036883 235.26497719 -59.15720016 238.36476259 -66 242 C-70.80316453 244.57100688 -70.80316453 244.57100688 -75 248 C-75.68839847 250.68217021 -75.68839847 250.68217021 -76.125 253.75 C-76.37636719 255.28914063 -76.37636719 255.28914063 -76.6328125 256.859375 C-77.08467083 260.01446801 -77.08467083 260.01446801 -76.8671875 263.265625 C-76.93292969 264.61914062 -76.93292969 264.61914062 -77 266 C-80.22791555 268.1519437 -81.28400809 268.20086443 -85 268 C-85 267.34 -85 266.68 -85 266 C-85.66 266 -86.32 266 -87 266 C-87 265.01 -87 264.02 -87 263 C-87.66 263 -88.32 263 -89 263 C-89.5775 262.236875 -90.155 261.47375 -90.75 260.6875 C-93.39132187 257.53258777 -95.16071088 256.47597385 -99 255 C-101.99374037 254.79374113 -104.8923061 255.02686914 -107.875 255.3125 C-108.65875 255.37373047 -109.4425 255.43496094 -110.25 255.49804688 C-112.16793969 255.65007868 -114.08420986 255.82292808 -116 256 C-116.03738281 256.825 -116.07476562 257.65 -116.11328125 258.5 C-116.50210337 265.33107091 -117.19847809 271.96204275 -118.4375 278.6875 C-118.55971924 279.37005859 -118.68193848 280.05261719 -118.80786133 280.75585938 C-119.45130665 284.08388065 -120.09074186 286.13611279 -122 289 C-125.125 289.1875 -125.125 289.1875 -128 289 C-128.28721924 288.48091064 -128.57443848 287.96182129 -128.87036133 287.42700195 C-130.1834974 285.05499613 -131.49798679 282.68374289 -132.8125 280.3125 C-133.26431641 279.49587891 -133.71613281 278.67925781 -134.18164062 277.83789062 C-136.01297371 274.53614411 -137.84148973 271.25694278 -139.82421875 268.04296875 C-141 266 -141 266 -141 264 C-142.98 264.33 -144.96 264.66 -147 265 C-147 265.66 -147 266.32 -147 267 C-147.64324219 267.27972656 -148.28648437 267.55945313 -148.94921875 267.84765625 C-165.00580968 274.97119374 -177.70531599 281.28396861 -185 298 C-187.26014513 304.46932231 -188.48005546 311.13086978 -189.5703125 317.8828125 C-190 320 -190 320 -191 321 C-194.72224599 321.29386153 -195.77786243 321.14809171 -199 319 C-199.84375 316.4609375 -199.84375 316.4609375 -200.5 313.375 C-201.26746568 309.820903 -202.15619924 306.46486568 -203.46484375 303.078125 C-210.8434436 283.93204844 -213.07863521 260.69503143 -209.6875 240.5 C-209.55287354 239.67556396 -209.41824707 238.85112793 -209.27954102 238.00170898 C-208.03050502 230.64611349 -206.46707999 223.65143671 -203 217 C-204.3303125 216.8453125 -204.3303125 216.8453125 -205.6875 216.6875 C-211.0216751 215.58040705 -215.01325306 212.65451803 -219 209 C-220.0625 207.0625 -220.0625 207.0625 -220 205 C-216.10810188 198.67566555 -209.58095839 195.04971243 -203 192 C-203.7425 191.855625 -204.485 191.71125 -205.25 191.5625 C-206.1575 191.376875 -207.065 191.19125 -208 191 C-208.721875 190.9175 -209.44375 190.835 -210.1875 190.75 C-212 190 -212 190 -213.375 187.625 C-213.58125 186.75875 -213.7875 185.8925 -214 185 C-213.34 184.01 -212.68 183.02 -212 182 C-211.34 182 -210.68 182 -210 182 C-210 181.34 -210 180.68 -210 180 C-209.443125 179.79375 -208.88625 179.5875 -208.3125 179.375 C-205.04268138 177.43078352 -202.72917443 175.37769479 -201 172 C-200.48266977 168.041623 -200.71126001 164.16494505 -200.9375 160.1875 C-201.4015655 151.56228262 -201.41660536 144.09838717 -195.48803711 137.25463867 C-194 136 -194 136 -192 136 C-192 135.34 -192 134.68 -192 134 C-185.64533966 131.14769943 -179.97698084 129.27756524 -173 129 C-172.29746094 128.97164062 -171.59492188 128.94328125 -170.87109375 128.9140625 C-166.80552176 128.83691692 -162.98307425 129.20338515 -159 130 C-159.38671875 129.46632812 -159.7734375 128.93265625 -160.171875 128.3828125 C-164.04839253 122.83670574 -166.82706637 117.40443597 -169 111 C-169.23847656 110.3090625 -169.47695312 109.618125 -169.72265625 108.90625 C-171.75992587 102.10635669 -171.1045832 95.97951019 -168.25 89.5625 C-166.7355252 86.7618352 -166.15061498 86.08215362 -163.25 84.5 C-162.5075 84.335 -161.765 84.17 -161 84 C-161 83.34 -161 82.68 -161 82 C-158.22967112 80.8529341 -155.4587654 79.70729921 -152.6875 78.5625 C-151.90181641 78.23701172 -151.11613281 77.91152344 -150.30664062 77.57617188 C-149.54931641 77.26357422 -148.79199219 76.95097656 -148.01171875 76.62890625 C-147.31522217 76.34088135 -146.61872559 76.05285645 -145.90112305 75.75610352 C-144.28856513 75.11476643 -142.64635679 74.5487856 -141 74 C-140.03653679 71.6771898 -140.03653679 71.6771898 -139.4375 68.875 C-139.05851562 67.38806641 -139.05851562 67.38806641 -138.671875 65.87109375 C-138.27675328 64.18263756 -137.90259086 62.48860199 -137.578125 60.78515625 C-137.1875 58.9375 -137.1875 58.9375 -136 56 C-132.875 54.5625 -132.875 54.5625 -130 54 C-123 64.13793103 -123 64.13793103 -123 68 C-120.34771188 69.07525194 -117.71631546 70.09456151 -115 71 C-115.10828125 70.08734375 -115.10828125 70.08734375 -115.21875 69.15625 C-115.84219722 63.26813737 -116.1337575 57.41704956 -116.1875 51.5 C-116.20683594 50.45875977 -116.20683594 50.45875977 -116.2265625 49.39648438 C-116.23382213 45.69770364 -116.10806753 44.1621013 -114 41 C-109.96880356 41.52672427 -107.86267875 42.57672358 -104.875 45.3125 C-104.21242188 45.90675781 -103.54984375 46.50101563 -102.8671875 47.11328125 C-98 52.03138075 -98 52.03138075 -98 55 C-96.68 55 -95.36 55 -94 55 C-92.21086204 53.10396491 -92.21086204 53.10396491 -90.6875 50.5625 C-88.27626659 46.91966677 -85.83846197 43.34886475 -83.1875 39.875 C-82.62417969 39.12992188 -82.06085938 38.38484375 -81.48046875 37.6171875 C-80.99191406 37.08351562 -80.50335938 36.54984375 -80 36 C-79.34 36 -78.68 36 -78 36 C-77.76667969 35.44183594 -77.53335938 34.88367188 -77.29296875 34.30859375 C-73.32088387 27.2164422 -65.83150544 21.2696909 -59 17 C-58.34 17 -57.68 17 -57 17 C-57 16.34 -57 15.68 -57 15 C-38.81964375 4.47315579 -21.19166842 -0.56427519 0 0 Z M-55.125 23.625 C-57.30982214 25.88811978 -57.30982214 25.88811978 -57 29 C-56.34031077 31.91092585 -55.46600415 34.76180608 -54.625 37.625 C-54.40328125 38.41390625 -54.1815625 39.2028125 -53.953125 40.015625 C-53.36479126 42.02980286 -52.68854008 44.01783916 -52 46 C-51.34 46.33 -50.68 46.66 -50 47 C-49.34 45.88625 -48.68 44.7725 -48 43.625 C-47.62875 42.99851562 -47.2575 42.37203125 -46.875 41.7265625 C-45.84931652 40.02527333 -45.84931652 40.02527333 -46 38 C-45.34 38 -44.68 38 -44 38 C-43.54625 36.948125 -43.0925 35.89625 -42.625 34.8125 C-38.26646882 26.0485717 -31.26533213 18.46459964 -25 11 C-34.44062049 11 -48.21966636 17.20053918 -55.125 23.625 Z M-27 23 C-26.67 23.99 -26.34 24.98 -26 26 C-25.67 25.01 -25.34 24.02 -25 23 C-25.66 23 -26.32 23 -27 23 Z M-29 26 C-30.82505013 28.40560586 -30.82505013 28.40560586 -32.625 31.375 C-33.25664062 32.37273437 -33.88828125 33.37046875 -34.5390625 34.3984375 C-36.16321318 36.79335831 -36.16321318 36.79335831 -36 39 C-36.66 39 -37.32 39 -38 39 C-38.99 41.64 -39.98 44.28 -41 47 C-39.1128125 47.0309375 -39.1128125 47.0309375 -37.1875 47.0625 C-36.47980469 47.07410156 -35.77210938 47.08570313 -35.04296875 47.09765625 C-32.79694539 47.08263217 -32.79694539 47.08263217 -30 46 C-29.86722656 45.05898437 -29.73445312 44.11796875 -29.59765625 43.1484375 C-29.42105469 41.90320313 -29.24445313 40.65796875 -29.0625 39.375 C-28.88847656 38.14523438 -28.71445312 36.91546875 -28.53515625 35.6484375 C-28.06225699 32.42443816 -27.54848998 29.21187824 -27 26 C-27.66 26 -28.32 26 -29 26 Z M-64 32 C-67.3 34.64 -70.6 37.28 -74 40 C-73.67 40.66 -73.34 41.32 -73 42 C-72.01 42 -71.02 42 -70 42 C-66.43076153 42.56356397 -63.31851573 43.57777897 -60 45 C-60.28317926 43.39431334 -60.57687791 41.79047953 -60.875 40.1875 C-61.03742188 39.29417969 -61.19984375 38.40085937 -61.3671875 37.48046875 C-61.91188449 34.77272154 -61.91188449 34.77272154 -64 32 Z M-108 54 C-109.04167441 58.09725269 -108.94409525 61.61495224 -108.5625 65.8125 C-108.46066406 66.97394531 -108.35882813 68.13539063 -108.25390625 69.33203125 C-108.17011719 70.21246094 -108.08632812 71.09289062 -108 72 C-105.36 72 -102.72 72 -100 72 C-99.00341225 69.19709697 -98.61356308 67.9032312 -99 65 C-101.29081613 61.0257004 -103.9873108 57.45646707 -107 54 C-107.33 54 -107.66 54 -108 54 Z M-40.3125 56.4375 C-41.38113281 56.72496094 -42.44976562 57.01242188 -43.55078125 57.30859375 C-44.35902344 57.53675781 -45.16726562 57.76492187 -46 58 C-43.2904853 60.98980932 -40.4751822 62.31276773 -36.83984375 63.9375 C-35 65 -35 65 -33 68 C-31.35 67.67 -29.7 67.34 -28 67 C-28.33 63.37 -28.66 59.74 -29 56 C-33.89906839 55.02018632 -35.68710501 55.16678709 -40.3125 56.4375 Z M-131 70 C-131.391875 71.051875 -131.78375 72.10375 -132.1875 73.1875 C-133.81845319 76.95241063 -135.78295251 79.38147297 -139 82 C-140.99826317 82.67185472 -142.99858007 83.33760835 -145 84 C-147.49886911 85.13010939 -149.9357221 86.3722602 -152.375 87.625 C-153.01566406 87.94984375 -153.65632813 88.2746875 -154.31640625 88.609375 C-155.87947501 89.40257407 -157.44000622 90.20077031 -159 91 C-159 91.66 -159 92.32 -159 93 C-159.66 93.33 -160.32 93.66 -161 94 C-164.29670801 104.04095382 -160.26455898 112.07742571 -156 121 C-155.34 121 -154.68 121 -154 121 C-154 121.99 -154 122.98 -154 124 C-153.01 124.33 -152.02 124.66 -151 125 C-151.185625 123.906875 -151.37125 122.81375 -151.5625 121.6875 C-152 118 -152 118 -151 115 C-130.33552988 104.99999115 -105.51223881 102.90540168 -83 104 C-82.85522878 97.45312389 -83.14166879 90.72449219 -87.2890625 85.3203125 C-93.13401943 80.03797174 -100.4792667 79.7139915 -107.9375 79.5 C-113.8938636 79.3282304 -119.30997472 78.88184076 -125 77 C-125.495 75.515 -125.495 75.515 -126 74 C-127.62332967 72.61423077 -129.28724465 71.27358732 -131 70 Z M-33 76 C-33.93683619 79.20425133 -34.46786512 82.41882243 -35.05859375 85.703125 C-36.09221374 89.3229394 -37.53968592 91.19999758 -40 94 C-41.24016669 96.6794645 -41.24016669 96.6794645 -42 99 C-40.02 99.66 -38.04 100.32 -36 101 C-28.82203707 89.55881284 -28.82203707 89.55881284 -27.4375 76.625 C-27.623125 76.08875 -27.80875 75.5525 -28 75 C-30.21081851 74.89459074 -30.21081851 74.89459074 -33 76 Z M-23 94 C-23.391875 94.721875 -23.78375 95.44375 -24.1875 96.1875 C-26.14649898 99.227326 -28.37963597 101.52127727 -31 104 C-30.01 104.495 -30.01 104.495 -29 105 C-28.67 105.99 -28.34 106.98 -28 108 C-27.67 107.34 -27.34 106.68 -27 106 C-25.33826345 105.32113782 -23.67049507 104.6570148 -22 104 C-20.03896023 102.83025698 -18.10148617 101.62024401 -16.1875 100.375 C-15.21167969 99.74335938 -14.23585938 99.11171875 -13.23046875 98.4609375 C-12.49441406 97.97882813 -11.75835937 97.49671875 -11 97 C-11.33 96.34 -11.66 95.68 -12 95 C-14.58605332 94.5316735 -14.58605332 94.5316735 -17.5625 94.375 C-19.08037109 94.26285156 -19.08037109 94.26285156 -20.62890625 94.1484375 C-21.80259766 94.07496094 -21.80259766 94.07496094 -23 94 Z M-61 110 C-61.33 110.66 -61.66 111.32 -62 112 C-62.7425 112.28875 -63.485 112.5775 -64.25 112.875 C-67.36778193 114.15045624 -69.52049715 115.73302596 -72 118 C-72 118.66 -72 119.32 -72 120 C-68.7 120.33 -65.4 120.66 -62 121 C-61.67 119.68 -61.34 118.36 -61 117 C-56.38911659 119.24313247 -54.92436096 121.28610217 -53 126 C-52.25560813 129.33076459 -51.80300436 132.67814564 -51.375 136.0625 C-51.18780396 137.46205933 -51.18780396 137.46205933 -50.99682617 138.88989258 C-49.31416197 151.7918069 -47.69330408 165.08250286 -50 178 C-50.99 178.99 -50.99 178.99 -52 180 C-52 180.99 -52 181.98 -52 183 C-52.66 183 -53.32 183 -54 183 C-54 183.66 -54 184.32 -54 185 C-41.12105918 185.81238295 -41.12105918 185.81238295 -29.93359375 180.234375 C-24.58562364 174.05449843 -24.73558163 164.62243368 -24.9609375 156.84765625 C-25.0160746 152.82816178 -24.53076213 148.98071596 -24 145 C-23.34 145 -22.68 145 -22 145 C-20.33333333 143.66666667 -20.33333333 143.66666667 -19 142 C-19 141.34 -19 140.68 -19 140 C-18.34 140 -17.68 140 -17 140 C-17.33 139.01 -17.66 138.02 -18 137 C-18.99 137 -19.98 137 -21 137 C-21.495 136.01 -21.495 136.01 -22 135 C-22.99 134.67 -23.98 134.34 -25 134 C-26.0546875 132.1953125 -26.0546875 132.1953125 -27 130 C-27.35320312 129.31679687 -27.70640625 128.63359375 -28.0703125 127.9296875 C-28.41835938 127.25164062 -28.76640625 126.57359375 -29.125 125.875 C-29.47820312 125.19179687 -29.83140625 124.50859375 -30.1953125 123.8046875 C-31 122 -31 122 -31 120 C-31.66 120 -32.32 120 -33 120 C-32.95875 119.071875 -32.9175 118.14375 -32.875 117.1875 C-32.72863661 113.84190281 -32.72863661 113.84190281 -35 111 C-35.66 111 -36.32 111 -37 111 C-37 110.34 -37 109.68 -37 109 C-40.60325874 106.75020412 -43.68010034 106.70103193 -47.875 106.6875 C-49.66550781 106.66236328 -49.66550781 106.66236328 -51.4921875 106.63671875 C-55.32122586 107.03326727 -57.73359051 107.99627716 -61 110 Z M-151 125 C-151 125.66 -151 126.32 -151 127 C-150.34 127 -149.68 127 -149 127 C-149 126.34 -149 125.68 -149 125 C-149.66 125 -150.32 125 -151 125 Z M-190 143.5625 C-193.67609494 148.0427407 -193.25532017 152.48115623 -193 158 C-192.835 158.825 -192.67 159.65 -192.5 160.5 C-191.01838956 167.90805221 -191.83711544 172.74345682 -195.90625 179.15234375 C-197.16980113 180.92898935 -197.16980113 180.92898935 -197 183 C-196.28972656 183.18175781 -195.57945312 183.36351562 -194.84765625 183.55078125 C-193.46900391 183.92783203 -193.46900391 183.92783203 -192.0625 184.3125 C-191.14597656 184.55613281 -190.22945312 184.79976562 -189.28515625 185.05078125 C-188.53105469 185.36402344 -187.77695313 185.67726563 -187 186 C-186.67 186.99 -186.34 187.98 -186 189 C-185.34 189 -184.68 189 -184 189 C-183.76152344 189.82757813 -183.52304688 190.65515625 -183.27734375 191.5078125 C-181.77804777 195.60680517 -179.80085876 199.14319671 -177.5625 202.875 C-177.16740234 203.56335938 -176.77230469 204.25171875 -176.36523438 204.9609375 C-175.33085994 206.69579513 -174.17340125 208.35598328 -173 210 C-172.01 210 -171.02 210 -170 210 C-170 210.66 -170 211.32 -170 212 C-163.72072351 214.55628166 -159.42475739 215.59967814 -153.046875 212.96484375 C-152.37140625 212.64644531 -151.6959375 212.32804687 -151 212 C-149.2675 211.2265625 -149.2675 211.2265625 -147.5 210.4375 C-144.8918702 209.24412499 -144.8918702 209.24412499 -144 207 C-141.9375 205.875 -141.9375 205.875 -140 205 C-140 204.01 -140 203.02 -140 202 C-141.43671568 201.35242375 -142.87440416 200.70700547 -144.3125 200.0625 C-145.11300781 199.70285156 -145.91351563 199.34320313 -146.73828125 198.97265625 C-149.09489608 197.92153959 -149.09489608 197.92153959 -152 197 C-153.5838192 194.44829129 -154.37344168 191.92393881 -155 189 C-155.66 189 -156.32 189 -157 189 C-157.11472656 188.00355469 -157.22945312 187.00710938 -157.34765625 185.98046875 C-157.92502688 181.94090377 -159.13571526 178.16871243 -160.4375 174.3125 C-167.74491004 151.74188431 -167.74491004 151.74188431 -164.109375 142.8125 C-163 141 -163 141 -161 140 C-161 139.34 -161 138.68 -161 138 C-176.59931452 136.27669392 -176.59931452 136.27669392 -190 143.5625 Z M-114 148 C-116.59561462 149.50713107 -117.77676923 150.31322994 -118.71484375 153.19921875 C-119.23558334 159.01871203 -119.16385876 163.91828091 -116 169 C-112.63593973 171.81853698 -109.37872144 172.91414272 -105 173 C-100.57053337 171.65263372 -97.68768043 169.93774605 -94.9375 166.1875 C-93.78431846 162.26668277 -93.92591759 159.93830216 -95 156 C-99.58748003 148.4130138 -105.59973717 145.9343616 -114 148 Z M-193 193 C-193.44730469 193.40992188 -193.89460938 193.81984375 -194.35546875 194.2421875 C-197.73744485 197.25640074 -200.579668 199.66050545 -205 201 C-205 201.66 -205 202.32 -205 203 C-206.98 203.99 -206.98 203.99 -209 205 C-208.67 205.66 -208.34 206.32 -208 207 C-206.845 207.33 -205.69 207.66 -204.5 208 C-203.345 208.33 -202.19 208.66 -201 209 C-200.67 209.66 -200.34 210.32 -200 211 C-199.62488281 210.40832031 -199.24976563 209.81664062 -198.86328125 209.20703125 C-194.1682279 201.95749044 -194.1682279 201.95749044 -191.125 199.0625 C-190.42375 198.381875 -189.7225 197.70125 -189 197 C-189 196.34 -189 195.68 -189 195 C-190.32 194.34 -191.64 193.68 -193 193 Z M-65 193 C-65.33 193.66 -65.66 194.32 -66 195 C-65.505 195.99 -65.505 195.99 -65 197 C-65.66 197 -66.32 197 -67 197 C-67.33 199.31 -67.66 201.62 -68 204 C-67.34 204 -66.68 204 -66 204 C-66.350625 204.61875 -66.70125 205.2375 -67.0625 205.875 C-67.371875 206.57625 -67.68125 207.2775 -68 208 C-67.505 208.99 -67.505 208.99 -67 210 C-67.66 210 -68.32 210 -69 210 C-69 210.66 -69 211.32 -69 212 C-69.65226562 212.19335938 -70.30453125 212.38671875 -70.9765625 212.5859375 C-72.28753906 212.97652344 -72.28753906 212.97652344 -73.625 213.375 C-74.48351562 213.63023437 -75.34203125 213.88546875 -76.2265625 214.1484375 C-78.15647427 214.74100196 -80.07160496 215.3830178 -81.97265625 216.0625 C-89.8832539 218.51223347 -98.64297054 218.09939922 -106.875 218.1875 C-107.5760083 218.20055176 -108.2770166 218.21360352 -108.99926758 218.22705078 C-113.6695233 218.23481697 -117.56712905 217.41337914 -122 216 C-125.73771834 215.2863276 -125.73771834 215.2863276 -129 215 C-131.56974757 217.56974757 -130.82041962 223.45280598 -131.01171875 227.03125 C-130.99666066 232.13092388 -129.94914714 236.31984443 -128 241 C-127.34 241 -126.68 241 -126 241 C-126 241.99 -126 242.98 -126 244 C-119.47527689 248.34981541 -114.75746226 248.54543807 -107.125 247.4375 C-100.68470676 246.54830764 -93.86727234 247.06636383 -88 250 C-88 250.66 -88 251.32 -88 252 C-84.86974123 251.32913489 -84.86974123 251.32913489 -83.7890625 248.85546875 C-83.40492188 247.97503906 -83.02078125 247.09460938 -82.625 246.1875 C-79.46367722 239.59281183 -75.55989567 237.21464638 -69.1875 234.125 C-61.97763758 230.41707075 -55.8683011 226.60490331 -53.1875 218.5625 C-52.94603135 215.26242839 -53.42666546 212.24889572 -54 209 C-54.66 209 -55.32 209 -56 209 C-56.061875 208.34 -56.12375 207.68 -56.1875 207 C-57.30378495 202.8783325 -59.33761566 199.34249498 -62 196 C-62.66 196 -63.32 196 -64 196 C-64.495 194.515 -64.495 194.515 -65 193 Z M-140 235 C-141.22690794 236.53750681 -141.22690794 236.53750681 -142.25 238.5625 C-146.45155549 245.66992171 -151.68663355 250.26869059 -159 254 C-159.16681109 256.91652174 -159.16681109 256.91652174 -159 260 C-158.34 260.66 -157.68 261.32 -157 262 C-150.28708779 259.06901016 -144.51079359 255.92975184 -140 250 C-140 249.34 -140 248.68 -140 248 C-139.34 248 -138.68 248 -138 248 C-135.68407978 244.77885843 -135.68407978 244.77885843 -135 241 C-135.66 241 -136.32 241 -137 241 C-137 239.02 -137 237.04 -137 235 C-137.99 235 -138.98 235 -140 235 Z M-200.25 239.25 C-203.26535284 241.7063687 -203.26535284 241.7063687 -203.3828125 244.9375 C-203.3756382 247.97940481 -203.25729913 250.96958797 -203 254 C-200.76668505 253.62828452 -198.53835335 253.22655905 -196.3125 252.8125 C-195.07113281 252.59207031 -193.82976562 252.37164062 -192.55078125 252.14453125 C-188.51611614 250.84402863 -186.72662825 249.18541082 -184 246 C-186.82619333 243.06913285 -189.65914923 240.33859554 -193 238 C-196.95811911 237.76068061 -196.95811911 237.76068061 -200.25 239.25 Z M-177 248 C-178.26012852 253.04051407 -177.64010155 255.9757517 -175.6875 260.75 C-175.01267578 262.44382812 -175.01267578 262.44382812 -174.32421875 264.171875 C-173.16812614 267.0588975 -173.16812614 267.0588975 -171 269 C-169.02 268.01 -167.04 267.02 -165 266 C-166.72083606 259.956088 -168.72044168 253.75237071 -173 249 C-175.07941848 248.2406513 -175.07941848 248.2406513 -177 248 Z M-131 251 C-133.72962263 254.556781 -135.70347325 257.48470634 -136 262 C-134.68202975 264.69206503 -134.68202975 264.69206503 -132.6875 267.1875 C-132.05199219 268.04730469 -131.41648437 268.90710938 -130.76171875 269.79296875 C-129.03871829 272.03561838 -129.03871829 272.03561838 -127 274 C-124.77374447 271.77374447 -125.02954469 267.25965997 -124.625 264.1875 C-124.49222656 263.36701172 -124.35945313 262.54652344 -124.22265625 261.70117188 C-123.92424707 259.37244704 -123.7279081 257.33327344 -124 255 C-126.16356229 252.32621287 -126.16356229 252.32621287 -129 251 C-129.66 251 -130.32 251 -131 251 Z M-203 260 C-202.54050414 270.88529859 -201.07963287 281.31408771 -199 292 C-196.94818363 288.92227544 -196.80181101 288.32839564 -196.6875 284.875 C-195.99125999 276.00779227 -192.79767724 267.39303172 -190 259 C-194.48473401 258.91030532 -198.59106181 259.20689072 -203 260 Z M-184 264 C-187.96527529 274.73783992 -187.96527529 274.73783992 -189 286 C-185.75150023 284.27773504 -185.75150023 284.27773504 -185 281 C-184.175 280.195625 -183.35 279.39125 -182.5 278.5625 C-179.69612247 275.69512497 -179.69612247 275.69512497 -179 272 C-179.73137483 269.81482513 -179.73137483 269.81482513 -180.9375 267.75 C-181.50791016 266.69039063 -181.50791016 266.69039063 -182.08984375 265.609375 C-182.39019531 265.07828125 -182.69054687 264.5471875 -183 264 C-183.33 264 -183.66 264 -184 264 Z " transform="translate(200,50)" />
<path d=""  />
<path d=""  />
<path d=""  />
<path d=""  />
<path d=""  />
<path d=""  />
<path d=""  />
</svg>
