<?xml version="1.0" encoding="UTF-8"?>
<svg version="1.1" xmlns="http://www.w3.org/2000/svg" width="1000" height="1300">
<path d="M0 0 C2.0625 0.4375 2.0625 0.4375 4 1 C3.56940909 7.71127897 2.38906947 13.94537664 0.62109375 20.43359375 C-0.11760947 23.04588919 -0.11760947 23.04588919 0 26 C1.09699219 25.4225 2.19398437 24.845 3.32421875 24.25 C4.77837203 23.49946927 6.23281445 22.74949856 7.6875 22 C8.40873047 21.6184375 9.12996094 21.236875 9.87304688 20.84375 C13.70546553 18.8837916 16.57371149 17.44125747 21 18 C21.495 20.475 21.495 20.475 22 23 C16.39 25.97 10.78 28.94 5 32 C9.87868764 33.62622921 14.61248576 34.89026316 19.609375 36.0234375 C22 37 22 37 23.328125 39.1015625 C23.54984375 39.72804688 23.7715625 40.35453125 24 41 C20.33787286 43.39446775 18.18995159 42.85350866 14 42 C11.19856504 41.34940858 8.41115704 40.6504136 5.625 39.9375 C4.88894531 39.75123047 4.15289062 39.56496094 3.39453125 39.37304688 C1.59580556 38.91752543 -0.20217529 38.4590645 -2 38 C-1.74605469 38.6290625 -1.49210937 39.258125 -1.23046875 39.90625 C-0.51386853 41.68835691 0.19812332 43.47232167 0.90625 45.2578125 C1.57953822 46.94584226 2.26453026 48.62932603 2.96875 50.3046875 C4.4804085 54.01384955 5.23679402 56.1802416 4 60 C1.67578125 59.84765625 1.67578125 59.84765625 -1 59 C-2.58203125 56.49609375 -2.58203125 56.49609375 -3.8125 53.4375 C-4.23144531 52.42558594 -4.65039062 51.41367187 -5.08203125 50.37109375 C-5.38496094 49.58863281 -5.68789062 48.80617188 -6 48 C-8.45369798 51.68054697 -9.44052033 55.3872336 -10.70703125 59.6015625 C-12 62 -12 62 -14.63671875 62.8359375 C-15.41660156 62.89007812 -16.19648437 62.94421875 -17 63 C-18.09178911 59.72463268 -17.93042848 58.95586381 -17.00390625 55.76953125 C-16.66069336 54.56586914 -16.66069336 54.56586914 -16.31054688 53.33789062 C-16.06369141 52.50451172 -15.81683594 51.67113281 -15.5625 50.8125 C-15.31951172 49.96751953 -15.07652344 49.12253906 -14.82617188 48.25195312 C-14.22506507 46.1657589 -13.61352166 44.08257699 -13 42 C-16.64659983 42 -19.50725287 42.95217586 -23 44 C-29.66666667 46 -29.66666667 46 -33 46 C-33 44.68 -33 43.36 -33 42 C-22.92430279 37.30278884 -22.92430279 37.30278884 -18.375 35.8125 C-15.83447997 35.25355766 -15.83447997 35.25355766 -15 33 C-16.27810547 32.81244141 -16.27810547 32.81244141 -17.58203125 32.62109375 C-21.05414138 31.99016174 -24.31585273 31.10023116 -27.6875 30.0625 C-28.80511719 29.72347656 -29.92273437 29.38445313 -31.07421875 29.03515625 C-34 28 -34 28 -37 26 C-36.67 24.35 -36.34 22.7 -36 21 C-31.32155425 22.0981193 -26.77199457 23.61879198 -22.19140625 25.0625 C-19.46476002 25.86347319 -16.79450603 26.49855593 -14 27 C-14.38091797 26.1646875 -14.38091797 26.1646875 -14.76953125 25.3125 C-21.28715004 10.86145011 -21.28715004 10.86145011 -20 7 C-19.01 7 -18.02 7 -17 7 C-14.03 12.61 -11.06 18.22 -8 24 C-5.99243255 18.6464868 -4.25166475 13.56365234 -2.875 8.0625 C-1.13029525 1.13029525 -1.13029525 1.13029525 0 0 Z " fill="#000000" transform="translate(73,510)"/>
<path d="M0 0 C0.99 0.66 1.98 1.32 3 2 C2.56856647 3.37691552 2.12948836 4.75143619 1.6875 6.125 C1.44386719 6.89070312 1.20023438 7.65640625 0.94921875 8.4453125 C-0.15576513 11.41921973 -1.54310961 14.18416143 -3 17 C-2.19175781 16.4946875 -1.38351563 15.989375 -0.55078125 15.46875 C0.51785156 14.8190625 1.58648437 14.169375 2.6875 13.5 C3.74324219 12.8503125 4.79898438 12.200625 5.88671875 11.53125 C8.9770971 10.01126466 10.62703511 9.64956209 14 10 C14.495 10.99 14.495 10.99 15 12 C11.01437117 16.23473064 6.70133003 19.57360692 2 23 C6.29 23.99 10.58 24.98 15 26 C13 31 13 31 11 32 C9.28766312 31.9129796 7.57824594 31.75902838 5.875 31.5625 C4.96492188 31.46066406 4.05484375 31.35882812 3.1171875 31.25390625 C2.41851562 31.17011719 1.71984375 31.08632813 1 31 C4.20728523 34.96988597 4.20728523 34.96988597 7.75 38.625 C9.29675426 40.32642969 9.61402447 41.76134195 10 44 C10.66 44 11.32 44 12 44 C12.625 46.375 12.625 46.375 13 49 C12.34 49.66 11.68 50.32 11 51 C7.94131963 50.90320632 6.98902319 49.98864399 4.8515625 47.77734375 C4.11679688 46.84019531 3.38203125 45.90304687 2.625 44.9375 C1.84511719 43.95007813 1.06523437 42.96265625 0.26171875 41.9453125 C-2.52298296 38.31894792 -5.30249264 34.69188262 -8 31 C-8.26554687 32.13179687 -8.53109375 33.26359375 -8.8046875 34.4296875 C-9.1610844 35.91154832 -9.51787576 37.3933143 -9.875 38.875 C-10.13603516 39.99455078 -10.13603516 39.99455078 -10.40234375 41.13671875 C-11.7734375 46.7734375 -11.7734375 46.7734375 -14 49 C-16.625 48.625 -16.625 48.625 -19 48 C-18.68872484 46.41642541 -18.37592711 44.83315007 -18.0625 43.25 C-17.88847656 42.36828125 -17.71445313 41.4865625 -17.53515625 40.578125 C-17.07631512 38.36764947 -16.56663926 36.18487932 -16 34 C-17.32 34 -18.64 34 -20 34 C-20 34.66 -20 35.32 -20 36 C-25.94 38.475 -25.94 38.475 -32 41 C-32.66 40.34 -33.32 39.68 -34 39 C-34 38.01 -34 37.02 -34 36 C-33.34 36 -32.68 36 -32 36 C-32 35.34 -32 34.68 -32 34 C-30.7625 33.4121875 -30.7625 33.4121875 -29.5 32.8125 C-25.50720092 30.74480048 -21.79014062 28.41784833 -18 26 C-22.29 24.68 -26.58 23.36 -31 22 C-30.67 20.35 -30.34 18.7 -30 17 C-26.37 17.33 -22.74 17.66 -19 18 C-19.825 16.741875 -20.65 15.48375 -21.5 14.1875 C-24 10.375 -24 10.375 -24 7 C-24.66 7 -25.32 7 -26 7 C-26 5.35 -26 3.7 -26 2 C-24.1875 1.375 -24.1875 1.375 -22 1 C-21.01 1.66 -20.02 2.32 -19 3 C-19 3.99 -19 4.98 -19 6 C-18.34 6 -17.68 6 -17 6 C-15.4921875 8.1875 -15.4921875 8.1875 -13.875 11 C-13.33617187 11.928125 -12.79734375 12.85625 -12.2421875 13.8125 C-11.83226562 14.534375 -11.42234375 15.25625 -11 16 C-7.80572325 13.07191298 -6.65480626 9.99911513 -5 6 C-2.3880597 1.19402985 -2.3880597 1.19402985 0 0 Z " fill="#000000" transform="translate(210,582)"/>
<path d="M0 0 C2 2 2 2 2.1953125 4.3828125 C2.17210937 5.28773438 2.14890625 6.19265625 2.125 7.125 C2.10695313 8.03507813 2.08890625 8.94515625 2.0703125 9.8828125 C2.04710937 10.58148437 2.02390625 11.28015625 2 12 C2.67546875 11.48308594 3.3509375 10.96617187 4.046875 10.43359375 C4.93890625 9.77488281 5.8309375 9.11617187 6.75 8.4375 C7.63171875 7.77621094 8.5134375 7.11492188 9.421875 6.43359375 C12 5 12 5 14.328125 5.28515625 C14.87984375 5.52105469 15.4315625 5.75695312 16 6 C16 10 16 10 14.46875 11.703125 C13.49421875 12.46882812 13.49421875 12.46882812 12.5 13.25 C11.8503125 13.77078125 11.200625 14.2915625 10.53125 14.828125 C10.0259375 15.21484375 9.520625 15.6015625 9 16 C12.24135649 17.62067825 15.78997072 17.39697553 19.37109375 17.62109375 C22 18 22 18 25 20 C25 20.99 25 21.98 25 23 C21.16457543 25.55694972 19.34097467 25.04045639 14.8125 24.625 C12.90404297 24.45871094 12.90404297 24.45871094 10.95703125 24.2890625 C9.98121094 24.19367187 9.00539063 24.09828125 8 24 C8 24.66 8 25.32 8 26 C8.66 26.33 9.32 26.66 10 27 C10.495 28.485 10.495 28.485 11 30 C11.66 30 12.32 30 13 30 C13.66 32.31 14.32 34.62 15 37 C12.8125 37.8125 12.8125 37.8125 10 38 C7.07943633 35.55487693 5.11104061 33.16656091 3 30 C2.95101563 30.61488281 2.90203125 31.22976563 2.8515625 31.86328125 C2.77679688 32.67152344 2.70203125 33.47976563 2.625 34.3125 C2.55539062 35.11300781 2.48578125 35.91351562 2.4140625 36.73828125 C2 39 2 39 0 42 C-1.65 41.67 -3.3 41.34 -5 41 C-4.98839844 40.30132813 -4.97679687 39.60265625 -4.96484375 38.8828125 C-4.95582031 37.97273437 -4.94679688 37.06265625 -4.9375 36.125 C-4.92589844 35.22007812 -4.91429687 34.31515625 -4.90234375 33.3828125 C-4.83750743 30.9831415 -4.83750743 30.9831415 -6 29 C-6.66 29.99 -7.32 30.98 -8 32 C-8.66 32 -9.32 32 -10 32 C-10 32.66 -10 33.32 -10 34 C-12.81769349 36.17364926 -14.2190681 37.08677021 -17.8125 36.6875 C-18.534375 36.460625 -19.25625 36.23375 -20 36 C-19.75 34.125 -19.75 34.125 -19 32 C-17.67532254 31.3162955 -16.34136367 30.65035814 -15 30 C-14.67 29.34 -14.34 28.68 -14 28 C-12.75491604 25.50983207 -11.53283204 25.01313282 -9 24 C-9 23.34 -9 22.68 -9 22 C-9.98742187 21.97421875 -10.97484375 21.9484375 -11.9921875 21.921875 C-13.27351563 21.86515625 -14.55484375 21.8084375 -15.875 21.75 C-17.15117187 21.70359375 -18.42734375 21.6571875 -19.7421875 21.609375 C-23 21 -23 21 -24.4453125 18.953125 C-24.62835938 18.30859375 -24.81140625 17.6640625 -25 17 C-23 15 -23 15 -19.9609375 14.8046875 C-18.18589844 14.83949219 -18.18589844 14.83949219 -16.375 14.875 C-14.59222656 14.90207031 -14.59222656 14.90207031 -12.7734375 14.9296875 C-11.85820312 14.95289063 -10.94296875 14.97609375 -10 15 C-10.66 13.02 -11.32 11.04 -12 9 C-12.66 9 -13.32 9 -14 9 C-15.76462683 5.91190305 -16 4.76687864 -16 1 C-14.68 1 -13.36 1 -12 1 C-10.078125 2.96875 -10.078125 2.96875 -8.25 5.5 C-7.32960938 6.75296875 -7.32960938 6.75296875 -6.390625 8.03125 C-5.93171875 8.6809375 -5.4728125 9.330625 -5 10 C-4.83564453 9.04287109 -4.83564453 9.04287109 -4.66796875 8.06640625 C-4.50941406 7.24011719 -4.35085938 6.41382813 -4.1875 5.5625 C-4.03667969 4.73878906 -3.88585937 3.91507813 -3.73046875 3.06640625 C-3.48941406 2.38449219 -3.24835938 1.70257812 -3 1 C-2.01 0.67 -1.02 0.34 0 0 Z " fill="#000000" transform="translate(355,546)"/>
<path d="M0 0 C2 0.25 2 0.25 4 1 C5.10868317 4.32604951 5.54177532 7.53058454 6 11 C6.60328125 10.55527344 7.2065625 10.11054687 7.828125 9.65234375 C8.62734375 9.08644531 9.4265625 8.52054688 10.25 7.9375 C11.03890625 7.36902344 11.8278125 6.80054688 12.640625 6.21484375 C15 5 15 5 17.296875 5.31640625 C17.85890625 5.54199219 18.4209375 5.76757812 19 6 C18.67 7.98 18.34 9.96 18 12 C17.34 12 16.68 12 16 12 C15.731875 12.61875 15.46375 13.2375 15.1875 13.875 C14 16 14 16 11 18 C11.77085937 18.04898438 12.54171875 18.09796875 13.3359375 18.1484375 C14.33882813 18.22320313 15.34171875 18.29796875 16.375 18.375 C17.87160156 18.47941406 17.87160156 18.47941406 19.3984375 18.5859375 C22 19 22 19 24 21 C23.625 23.125 23.625 23.125 23 25 C19.92677456 25.91058531 17.19902639 26.08886184 14 26 C14 26.66 14 27.32 14 28 C14.598125 28.12375 15.19625 28.2475 15.8125 28.375 C18 29 18 29 21 31 C21 31.66 21 32.32 21 33 C22.32 33.66 23.64 34.32 25 35 C24.34 36.32 23.68 37.64 23 39 C16.44672101 38.72694671 12.93069452 36.18788859 8 32 C8.185625 32.886875 8.37125 33.77375 8.5625 34.6875 C8.98042484 37.85178811 8.80777742 39.94839642 8 43 C6.02 43.495 6.02 43.495 4 44 C0.68557793 39.53273547 0.33990833 35.37992836 0 30 C-0.53625 30.969375 -1.0725 31.93875 -1.625 32.9375 C-4 36 -4 36 -7.25 36.875 C-8.61125 36.936875 -8.61125 36.936875 -10 37 C-9.125 30.25 -9.125 30.25 -8 28 C-7.34 28 -6.68 28 -6 28 C-6 27.01 -6 26.02 -6 25 C-6.78375 24.896875 -7.5675 24.79375 -8.375 24.6875 C-11 24 -11 24 -13 21 C-12.67 20.34 -12.34 19.68 -12 19 C-8.9375 18.375 -8.9375 18.375 -6 18 C-6 17.34 -6 16.68 -6 16 C-6.66 16 -7.32 16 -8 16 C-8.33 14.68 -8.66 13.36 -9 12 C-9.66 12 -10.32 12 -11 12 C-10.67 10.68 -10.34 9.36 -10 8 C-8.68 7.67 -7.36 7.34 -6 7 C-4.68 8.65 -3.36 10.3 -2 12 C-1.93941406 11.21753906 -1.87882812 10.43507813 -1.81640625 9.62890625 C-1.73261719 8.61699219 -1.64882813 7.60507812 -1.5625 6.5625 C-1.48128906 5.55316406 -1.40007812 4.54382813 -1.31640625 3.50390625 C-1 1 -1 1 0 0 Z " fill="#000000" transform="translate(319,670)"/>
<path d="M0 0 C2.4375 0.75 2.4375 0.75 5 2 C5.8125 4.125 5.8125 4.125 6 6 C5.34 6 4.68 6 4 6 C4 6.99 4 7.98 4 9 C-0.75 8.25 -0.75 8.25 -3 6 C-1.125 1.125 -1.125 1.125 0 0 Z " fill="#000000" transform="translate(36,662)"/>
<path d="M0 0 C0.6875 2.3125 0.6875 2.3125 1 5 C-0.4375 6.8125 -0.4375 6.8125 -2 8 C-3.9375 7.1875 -3.9375 7.1875 -6 6 C-6.33 5.01 -6.66 4.02 -7 3 C-4.49955934 -0.00052879 -4.2621484 0 0 0 Z " fill="#000000" transform="translate(404,629)"/>
<path d="M0 0 C1.65 0 3.3 0 5 0 C5.93423645 3.01031744 6.04449911 3.86650268 5 7 C4.01 7.33 3.02 7.66 2 8 C-0.1875 6.5625 -0.1875 6.5625 -2 5 C-1.34 3.35 -0.68 1.7 0 0 Z " fill="#000000" transform="translate(339,477)"/>
<path d="M0 0 C2.97 0.495 2.97 0.495 6 1 C5.67 2.98 5.34 4.96 5 7 C3.35 6.67 1.7 6.34 0 6 C-1.125 2.25 -1.125 2.25 0 0 Z " fill="#000000" transform="translate(230,533)"/>
<path d="M0 0 C1.125 4.75 1.125 4.75 0 7 C-1.65 7 -3.3 7 -5 7 C-5.6875 5.1875 -5.6875 5.1875 -6 3 C-4.04862098 0.26806937 -3.44686768 0 0 0 Z " fill="#000000" transform="translate(59,789)"/>
<path d="M0 0 C0.33 1.65 0.66 3.3 1 5 C-0.98 5.99 -0.98 5.99 -3 7 C-3.99 6.34 -4.98 5.68 -6 5 C-6 3.68 -6 2.36 -6 1 C-4 0 -4 0 0 0 Z " fill="#000000" transform="translate(454,444)"/>
<path d="M0 0 C0.33 1.98 0.66 3.96 1 6 C-0.65 6.33 -2.3 6.66 -4 7 C-4.33 5.35 -4.66 3.7 -5 2 C-2 0 -2 0 0 0 Z " fill="#000000" transform="translate(204,741)"/>
<path d="M0 0 C1.65 0.33 3.3 0.66 5 1 C4.67 2.65 4.34 4.3 4 6 C3.01 6.33 2.02 6.66 1 7 C0.34 6.34 -0.32 5.68 -1 5 C-0.625 2.375 -0.625 2.375 0 0 Z " fill="#000000" transform="translate(114,478)"/>
</svg>
